<mxfile host="Electron" agent="Mozilla/5.0 (Windows NT 10.0; Win64; x64) AppleWebKit/537.36 (KHTML, like Gecko) draw.io/24.7.5 Chrome/126.0.6478.183 Electron/31.3.0 Safari/537.36" version="24.7.5" pages="2">
  <diagram id="rYV5eHRr3M1SIAPz0MPq" name="Min-Flow">
    <mxGraphModel dx="8020" dy="5320" grid="1" gridSize="10" guides="1" tooltips="1" connect="1" arrows="1" fold="1" page="1" pageScale="1" pageWidth="850" pageHeight="1100" math="0" shadow="0">
      <root>
        <mxCell id="0" />
        <mxCell id="1" parent="0" />
        <mxCell id="FJRzQ0SDMOUs9rcgQZn3-11" value="" style="rounded=0;whiteSpace=wrap;html=1;fillColor=none;dashed=1;" vertex="1" parent="1">
          <mxGeometry x="-5" y="30" width="340" height="80" as="geometry" />
        </mxCell>
        <mxCell id="FJRzQ0SDMOUs9rcgQZn3-5" value="" style="rounded=0;whiteSpace=wrap;html=1;fillColor=none;" vertex="1" parent="1">
          <mxGeometry x="-5" y="50" width="140" height="40" as="geometry" />
        </mxCell>
        <mxCell id="FJRzQ0SDMOUs9rcgQZn3-2" value="" style="rounded=0;whiteSpace=wrap;html=1;fillColor=none;" vertex="1" parent="1">
          <mxGeometry x="-145" y="50" width="140" height="40" as="geometry" />
        </mxCell>
        <mxCell id="FJRzQ0SDMOUs9rcgQZn3-1" value="Set [ id: 0x20]" style="text;html=1;align=center;verticalAlign=middle;resizable=0;points=[];autosize=1;strokeColor=none;fillColor=none;fontStyle=1;strokeWidth=1;fontSize=19;" vertex="1" parent="1">
          <mxGeometry x="-145" y="50" width="140" height="40" as="geometry" />
        </mxCell>
        <mxCell id="FJRzQ0SDMOUs9rcgQZn3-7" value="Command" style="text;html=1;align=center;verticalAlign=middle;resizable=0;points=[];autosize=1;strokeColor=none;fillColor=none;fontStyle=1;strokeWidth=1;fontSize=19;" vertex="1" parent="1">
          <mxGeometry x="10" y="50" width="110" height="40" as="geometry" />
        </mxCell>
        <mxCell id="FJRzQ0SDMOUs9rcgQZn3-8" value="Min ID" style="text;html=1;align=center;verticalAlign=middle;resizable=0;points=[];autosize=1;strokeColor=none;fillColor=none;" vertex="1" parent="1">
          <mxGeometry x="-105" y="-10" width="60" height="30" as="geometry" />
        </mxCell>
        <mxCell id="FJRzQ0SDMOUs9rcgQZn3-9" value="Payload" style="text;html=1;align=center;verticalAlign=middle;resizable=0;points=[];autosize=1;strokeColor=none;fillColor=none;" vertex="1" parent="1">
          <mxGeometry x="130" y="-10" width="70" height="30" as="geometry" />
        </mxCell>
        <mxCell id="FJRzQ0SDMOUs9rcgQZn3-12" value="" style="rounded=0;whiteSpace=wrap;html=1;fillColor=none;" vertex="1" parent="1">
          <mxGeometry x="135" y="50" width="100" height="40" as="geometry" />
        </mxCell>
        <mxCell id="FJRzQ0SDMOUs9rcgQZn3-13" value="..." style="rounded=0;whiteSpace=wrap;html=1;fillColor=none;" vertex="1" parent="1">
          <mxGeometry x="235" y="50" width="100" height="40" as="geometry" />
        </mxCell>
        <mxCell id="FJRzQ0SDMOUs9rcgQZn3-14" value="Content" style="text;html=1;align=center;verticalAlign=middle;resizable=0;points=[];autosize=1;strokeColor=none;fillColor=none;fontStyle=1;strokeWidth=1;fontSize=19;" vertex="1" parent="1">
          <mxGeometry x="140" y="50" width="90" height="40" as="geometry" />
        </mxCell>
        <mxCell id="FJRzQ0SDMOUs9rcgQZn3-17" value="Min ID: 0x20" style="rounded=0;whiteSpace=wrap;html=1;fillColor=#fff2cc;strokeColor=#d6b656;" vertex="1" parent="1">
          <mxGeometry x="-240" y="209" width="140" height="40" as="geometry" />
        </mxCell>
        <mxCell id="FJRzQ0SDMOUs9rcgQZn3-18" value="CMD Code: 0x01" style="rounded=0;whiteSpace=wrap;html=1;fillColor=none;" vertex="1" parent="1">
          <mxGeometry x="-100" y="209" width="140" height="40" as="geometry" />
        </mxCell>
        <mxCell id="FJRzQ0SDMOUs9rcgQZn3-23" value="Min ID: 0x3F" style="rounded=0;whiteSpace=wrap;html=1;fillColor=none;" vertex="1" parent="1">
          <mxGeometry x="-30" y="279" width="140" height="40" as="geometry" />
        </mxCell>
        <mxCell id="FJRzQ0SDMOUs9rcgQZn3-24" value="&lt;div style=&quot;background-color:#2f2f2f;padding:0px 0px 0px 2px;&quot;&gt;&lt;div style=&quot;color:#cccccc;background-color:#2f2f2f;font-family:&amp;quot;Consolas&amp;quot;;font-size:12pt;white-space:pre;&quot;&gt;&lt;p style=&quot;margin:0;&quot;&gt;&lt;span style=&quot;color:#dd2867;font-weight:bold;&quot;&gt;#define&lt;/span&gt;&lt;span style=&quot;color:#d9e8f7;&quot;&gt; &lt;/span&gt;&lt;span style=&quot;color:#0dd140;font-weight:bold;&quot;&gt;OVER&lt;/span&gt;&lt;span style=&quot;color:#d9e8f7;&quot;&gt;&lt;span style=&quot;white-space: pre;&quot;&gt;&amp;nbsp;&amp;nbsp;&amp;nbsp;&amp;nbsp;&lt;/span&gt;&lt;span style=&quot;white-space: pre;&quot;&gt;&amp;nbsp;&amp;nbsp;&amp;nbsp;&amp;nbsp;&lt;/span&gt;&lt;span style=&quot;white-space: pre;&quot;&gt;&amp;nbsp;&amp;nbsp;&amp;nbsp;&amp;nbsp;&lt;/span&gt;&lt;span style=&quot;white-space: pre;&quot;&gt;&amp;nbsp;&amp;nbsp;&amp;nbsp;&amp;nbsp;&lt;/span&gt;  0x3B&lt;/span&gt;&lt;/p&gt;&lt;p style=&quot;margin:0;&quot;&gt;&lt;span style=&quot;color:#dd2867;font-weight:bold;&quot;&gt;#define&lt;/span&gt;&lt;span style=&quot;color:#d9e8f7;&quot;&gt; &lt;/span&gt;&lt;span style=&quot;color:#0dd140;font-weight:bold;&quot;&gt;GOT_IT&lt;/span&gt;&lt;span style=&quot;color:#d9e8f7;&quot;&gt;&lt;span style=&quot;white-space: pre;&quot;&gt;&amp;nbsp;&amp;nbsp;&amp;nbsp;&amp;nbsp;&lt;/span&gt;&lt;span style=&quot;white-space: pre;&quot;&gt;&amp;nbsp;&amp;nbsp;&amp;nbsp;&amp;nbsp;&lt;/span&gt;&lt;span style=&quot;white-space: pre;&quot;&gt;&amp;nbsp;&amp;nbsp;&amp;nbsp;&amp;nbsp;&lt;/span&gt;&lt;span style=&quot;white-space: pre;&quot;&gt;&amp;nbsp;&amp;nbsp;&amp;nbsp;&amp;nbsp;&lt;/span&gt;0x3C&lt;/span&gt;&lt;/p&gt;&lt;p style=&quot;margin:0;&quot;&gt;&lt;span style=&quot;color:#dd2867;font-weight:bold;&quot;&gt;#define&lt;/span&gt;&lt;span style=&quot;color:#d9e8f7;&quot;&gt; &lt;/span&gt;&lt;span style=&quot;color:#0dd140;font-weight:bold;&quot;&gt;WRONG&lt;/span&gt;&lt;span style=&quot;color:#d9e8f7;&quot;&gt;&lt;span style=&quot;white-space: pre;&quot;&gt;&amp;nbsp;&amp;nbsp;&amp;nbsp;&amp;nbsp;&lt;/span&gt;&lt;span style=&quot;white-space: pre;&quot;&gt;&amp;nbsp;&amp;nbsp;&amp;nbsp;&amp;nbsp;&lt;/span&gt;&lt;span style=&quot;white-space: pre;&quot;&gt;&amp;nbsp;&amp;nbsp;&amp;nbsp;&amp;nbsp;&lt;/span&gt;&lt;span style=&quot;white-space: pre;&quot;&gt;&amp;nbsp;&amp;nbsp;&amp;nbsp;&amp;nbsp;&lt;/span&gt; 0x3D&lt;/span&gt;&lt;/p&gt;&lt;p style=&quot;margin:0;&quot;&gt;&lt;span style=&quot;color:#dd2867;font-weight:bold;&quot;&gt;#define&lt;/span&gt;&lt;span style=&quot;color:#d9e8f7;&quot;&gt; &lt;/span&gt;&lt;span style=&quot;color:#0dd140;font-weight:bold;&quot;&gt;FAIL&lt;/span&gt;&lt;span style=&quot;color:#d9e8f7;&quot;&gt;&lt;span style=&quot;white-space: pre;&quot;&gt;&amp;nbsp;&amp;nbsp;&amp;nbsp;&amp;nbsp;&lt;/span&gt;&lt;span style=&quot;white-space: pre;&quot;&gt;&amp;nbsp;&amp;nbsp;&amp;nbsp;&amp;nbsp;&lt;/span&gt;&lt;span style=&quot;white-space: pre;&quot;&gt;&amp;nbsp;&amp;nbsp;&amp;nbsp;&amp;nbsp;&lt;/span&gt;&lt;span style=&quot;white-space: pre;&quot;&gt;&amp;nbsp;&amp;nbsp;&amp;nbsp;&amp;nbsp;&lt;/span&gt;  0x3E&lt;/span&gt;&lt;/p&gt;&lt;p style=&quot;margin:0;&quot;&gt;&lt;span style=&quot;color:#dd2867;font-weight:bold;&quot;&gt;#define&lt;/span&gt;&lt;span style=&quot;color:#d9e8f7;&quot;&gt;&lt;span style=&quot;white-space: pre;&quot;&gt;&amp;nbsp;&lt;/span&gt;&lt;/span&gt;&lt;span style=&quot;color:#0dd140;font-weight:bold;&quot;&gt;DONE&lt;/span&gt;&lt;span style=&quot;color:#d9e8f7;&quot;&gt;&lt;span style=&quot;white-space: pre;&quot;&gt;&amp;nbsp;&amp;nbsp;&amp;nbsp;&amp;nbsp;&lt;/span&gt;&lt;span style=&quot;white-space: pre;&quot;&gt;&amp;nbsp;&amp;nbsp;&amp;nbsp;&amp;nbsp;&lt;/span&gt;&lt;span style=&quot;white-space: pre;&quot;&gt;&amp;nbsp;&amp;nbsp;&amp;nbsp;&amp;nbsp;&lt;/span&gt;&lt;span style=&quot;white-space: pre;&quot;&gt;&amp;nbsp;&amp;nbsp;&amp;nbsp;&amp;nbsp;&lt;/span&gt;  0x3F&lt;/span&gt;&lt;/p&gt;&lt;/div&gt;&lt;/div&gt;" style="text;whiteSpace=wrap;html=1;" vertex="1" parent="1">
          <mxGeometry x="-610" y="10" width="360" height="120" as="geometry" />
        </mxCell>
        <mxCell id="FJRzQ0SDMOUs9rcgQZn3-25" value="&lt;div style=&quot;color: #f7f1ff;background-color: #222222;font-family: Consolas, &#39;Courier New&#39;, monospace;font-weight: normal;font-size: 16px;line-height: 22px;white-space: pre;&quot;&gt;&lt;div style=&quot;line-height: 22px;&quot;&gt;&lt;div style=&quot;line-height: 22px;&quot;&gt;&lt;span style=&quot;color: #fce566;&quot;&gt;&quot;set_temp&lt;/span&gt;&lt;span style=&quot;color: #8b888f;&quot;&gt;&quot;&lt;/span&gt;&lt;span style=&quot;color: #8b888f;&quot;&gt;,&lt;/span&gt; &lt;span style=&quot;color: #7bd88f;&quot;&gt;Cmd_set_temp&lt;/span&gt;&lt;/div&gt;&lt;/div&gt;&lt;/div&gt;" style="text;whiteSpace=wrap;html=1;" vertex="1" parent="1">
          <mxGeometry x="416" y="396" width="150" height="36" as="geometry" />
        </mxCell>
        <mxCell id="FJRzQ0SDMOUs9rcgQZn3-26" value="Min ID: 0x20" style="rounded=0;whiteSpace=wrap;html=1;fillColor=#fff2cc;strokeColor=#d6b656;" vertex="1" parent="1">
          <mxGeometry x="-240" y="359" width="140" height="40" as="geometry" />
        </mxCell>
        <mxCell id="FJRzQ0SDMOUs9rcgQZn3-27" value="CMD Code: 0x02" style="rounded=0;whiteSpace=wrap;html=1;fillColor=none;" vertex="1" parent="1">
          <mxGeometry x="-100" y="359" width="140" height="40" as="geometry" />
        </mxCell>
        <mxCell id="FJRzQ0SDMOUs9rcgQZn3-31" value="Min ID: 0x3F" style="rounded=0;whiteSpace=wrap;html=1;fillColor=none;" vertex="1" parent="1">
          <mxGeometry x="180" y="429" width="140" height="40" as="geometry" />
        </mxCell>
        <mxCell id="FJRzQ0SDMOUs9rcgQZn3-35" value="Channel 1" style="rounded=0;whiteSpace=wrap;html=1;fillColor=none;" vertex="1" parent="1">
          <mxGeometry x="40" y="359" width="70" height="40" as="geometry" />
        </mxCell>
        <mxCell id="FJRzQ0SDMOUs9rcgQZn3-36" value="&lt;i&gt;Big-endian&lt;/i&gt;" style="text;html=1;align=center;verticalAlign=middle;resizable=0;points=[];autosize=1;strokeColor=none;fillColor=none;fontColor=#FF0000;" vertex="1" parent="1">
          <mxGeometry x="125" y="30" width="80" height="30" as="geometry" />
        </mxCell>
        <mxCell id="FJRzQ0SDMOUs9rcgQZn3-37" value="" style="html=1;points=[[0,0,0,0,5],[0,1,0,0,-5],[1,0,0,0,5],[1,1,0,0,-5]];perimeter=orthogonalPerimeter;outlineConnect=0;targetShapes=umlLifeline;portConstraint=eastwest;newEdgeStyle={&quot;curved&quot;:0,&quot;rounded&quot;:0};" vertex="1" parent="1">
          <mxGeometry x="406" y="374" width="10" height="80" as="geometry" />
        </mxCell>
        <mxCell id="FJRzQ0SDMOUs9rcgQZn3-38" value="Call" style="html=1;verticalAlign=bottom;endArrow=block;curved=0;rounded=0;" edge="1" parent="1" target="FJRzQ0SDMOUs9rcgQZn3-37">
          <mxGeometry relative="1" as="geometry">
            <mxPoint x="321" y="379" as="sourcePoint" />
          </mxGeometry>
        </mxCell>
        <mxCell id="FJRzQ0SDMOUs9rcgQZn3-39" value="return" style="html=1;verticalAlign=bottom;endArrow=open;dashed=1;endSize=8;curved=0;rounded=0;exitX=1;exitY=1;exitDx=0;exitDy=-5;" edge="1" parent="1" source="FJRzQ0SDMOUs9rcgQZn3-37">
          <mxGeometry relative="1" as="geometry">
            <mxPoint x="321" y="449" as="targetPoint" />
          </mxGeometry>
        </mxCell>
        <mxCell id="FJRzQ0SDMOUs9rcgQZn3-40" value="Channel 2" style="rounded=0;whiteSpace=wrap;html=1;fillColor=none;" vertex="1" parent="1">
          <mxGeometry x="110" y="359" width="70" height="40" as="geometry" />
        </mxCell>
        <mxCell id="FJRzQ0SDMOUs9rcgQZn3-41" value="Channel 3" style="rounded=0;whiteSpace=wrap;html=1;fillColor=none;" vertex="1" parent="1">
          <mxGeometry x="180" y="359" width="70" height="40" as="geometry" />
        </mxCell>
        <mxCell id="FJRzQ0SDMOUs9rcgQZn3-42" value="Channel 4" style="rounded=0;whiteSpace=wrap;html=1;fillColor=none;" vertex="1" parent="1">
          <mxGeometry x="250" y="359" width="70" height="40" as="geometry" />
        </mxCell>
        <mxCell id="FJRzQ0SDMOUs9rcgQZn3-43" value="&lt;div style=&quot;color: #f7f1ff;background-color: #222222;font-family: Consolas, &#39;Courier New&#39;, monospace;font-weight: normal;font-size: 16px;line-height: 22px;white-space: pre;&quot;&gt;&lt;div&gt;&lt;span style=&quot;color: #8b888f;&quot;&gt;&quot;&lt;/span&gt;&lt;span style=&quot;color: #fce566;&quot;&gt;tec_init&lt;/span&gt;&lt;span style=&quot;color: #8b888f;&quot;&gt;&quot;&lt;/span&gt;&lt;span style=&quot;color: #8b888f;&quot;&gt;,&lt;/span&gt;&lt;span style=&quot;color: #f7f1ff;&quot;&gt; &lt;/span&gt;&lt;span style=&quot;color: #7bd88f;&quot;&gt;Cmd_tec_init&lt;/span&gt;&lt;/div&gt;&lt;/div&gt;" style="text;whiteSpace=wrap;html=1;" vertex="1" parent="1">
          <mxGeometry x="207" y="546" width="240" height="50" as="geometry" />
        </mxCell>
        <mxCell id="FJRzQ0SDMOUs9rcgQZn3-44" value="Min ID: 0x20" style="rounded=0;whiteSpace=wrap;html=1;fillColor=#fff2cc;strokeColor=#d6b656;" vertex="1" parent="1">
          <mxGeometry x="-239" y="510" width="140" height="40" as="geometry" />
        </mxCell>
        <mxCell id="FJRzQ0SDMOUs9rcgQZn3-45" value="CMD Code: 0x03" style="rounded=0;whiteSpace=wrap;html=1;fillColor=none;" vertex="1" parent="1">
          <mxGeometry x="-99" y="510" width="140" height="40" as="geometry" />
        </mxCell>
        <mxCell id="FJRzQ0SDMOUs9rcgQZn3-46" value="Min ID: 0x3C" style="rounded=0;whiteSpace=wrap;html=1;fillColor=none;" vertex="1" parent="1">
          <mxGeometry x="-29" y="580" width="140" height="40" as="geometry" />
        </mxCell>
        <mxCell id="FJRzQ0SDMOUs9rcgQZn3-48" value="" style="html=1;points=[[0,0,0,0,5],[0,1,0,0,-5],[1,0,0,0,5],[1,1,0,0,-5]];perimeter=orthogonalPerimeter;outlineConnect=0;targetShapes=umlLifeline;portConstraint=eastwest;newEdgeStyle={&quot;curved&quot;:0,&quot;rounded&quot;:0};" vertex="1" parent="1">
          <mxGeometry x="197" y="525" width="10" height="80" as="geometry" />
        </mxCell>
        <mxCell id="FJRzQ0SDMOUs9rcgQZn3-49" value="Call" style="html=1;verticalAlign=bottom;endArrow=block;curved=0;rounded=0;" edge="1" parent="1" target="FJRzQ0SDMOUs9rcgQZn3-48">
          <mxGeometry relative="1" as="geometry">
            <mxPoint x="112" y="530" as="sourcePoint" />
          </mxGeometry>
        </mxCell>
        <mxCell id="FJRzQ0SDMOUs9rcgQZn3-50" value="return" style="html=1;verticalAlign=bottom;endArrow=open;dashed=1;endSize=8;curved=0;rounded=0;exitX=1;exitY=1;exitDx=0;exitDy=-5;" edge="1" parent="1" source="FJRzQ0SDMOUs9rcgQZn3-48">
          <mxGeometry relative="1" as="geometry">
            <mxPoint x="112" y="600" as="targetPoint" />
          </mxGeometry>
        </mxCell>
        <mxCell id="FJRzQ0SDMOUs9rcgQZn3-54" value="&lt;b&gt;DONE&lt;/b&gt;" style="text;html=1;align=center;verticalAlign=middle;resizable=0;points=[];autosize=1;strokeColor=none;fillColor=none;" vertex="1" parent="1">
          <mxGeometry x="-40" y="299" width="60" height="30" as="geometry" />
        </mxCell>
        <mxCell id="FJRzQ0SDMOUs9rcgQZn3-55" value="DONE" style="text;html=1;align=center;verticalAlign=middle;resizable=0;points=[];autosize=1;strokeColor=none;fillColor=none;fontStyle=1" vertex="1" parent="1">
          <mxGeometry x="170" y="449" width="60" height="30" as="geometry" />
        </mxCell>
        <mxCell id="FJRzQ0SDMOUs9rcgQZn3-56" value="&lt;b&gt;GOT IT&lt;/b&gt;" style="text;html=1;align=center;verticalAlign=middle;resizable=0;points=[];autosize=1;strokeColor=none;fillColor=none;" vertex="1" parent="1">
          <mxGeometry x="-36" y="600" width="60" height="30" as="geometry" />
        </mxCell>
        <mxCell id="FJRzQ0SDMOUs9rcgQZn3-57" value="" style="html=1;points=[[0,0,0,0,5],[0,1,0,0,-5],[1,0,0,0,5],[1,1,0,0,-5]];perimeter=orthogonalPerimeter;outlineConnect=0;targetShapes=umlLifeline;portConstraint=eastwest;newEdgeStyle={&quot;curved&quot;:0,&quot;rounded&quot;:0};fillColor=#ffe6cc;strokeColor=#d79b00;" vertex="1" parent="1">
          <mxGeometry x="281" y="596" width="10" height="80" as="geometry" />
        </mxCell>
        <mxCell id="FJRzQ0SDMOUs9rcgQZn3-58" value="busy" style="html=1;verticalAlign=bottom;startArrow=oval;endArrow=block;startSize=8;curved=0;rounded=0;entryX=0;entryY=0;entryDx=0;entryDy=5;" edge="1" target="FJRzQ0SDMOUs9rcgQZn3-57" parent="1">
          <mxGeometry relative="1" as="geometry">
            <mxPoint x="211" y="601" as="sourcePoint" />
          </mxGeometry>
        </mxCell>
        <mxCell id="FJRzQ0SDMOUs9rcgQZn3-59" value="Pin CProcess = LOW" style="text;html=1;align=center;verticalAlign=middle;resizable=0;points=[];autosize=1;strokeColor=none;fillColor=none;" vertex="1" parent="1">
          <mxGeometry x="281" y="585" width="140" height="30" as="geometry" />
        </mxCell>
        <mxCell id="FJRzQ0SDMOUs9rcgQZn3-60" value="Pin CProcess = HIGH" style="text;html=1;align=center;verticalAlign=middle;resizable=0;points=[];autosize=1;strokeColor=none;fillColor=none;" vertex="1" parent="1">
          <mxGeometry x="281" y="657" width="140" height="30" as="geometry" />
        </mxCell>
        <mxCell id="FJRzQ0SDMOUs9rcgQZn3-75" value="Min ID: 0x21" style="rounded=0;whiteSpace=wrap;html=1;fillColor=#dae8fc;strokeColor=#6c8ebf;" vertex="1" parent="1">
          <mxGeometry x="-85" y="662" width="140" height="40" as="geometry" />
        </mxCell>
        <mxCell id="FJRzQ0SDMOUs9rcgQZn3-76" value="CMD Code: 0x00" style="rounded=0;whiteSpace=wrap;html=1;fillColor=none;" vertex="1" parent="1">
          <mxGeometry x="55" y="662" width="140" height="40" as="geometry" />
        </mxCell>
        <mxCell id="FJRzQ0SDMOUs9rcgQZn3-77" value="Min ID: 0x2A" style="rounded=0;whiteSpace=wrap;html=1;fillColor=none;" vertex="1" parent="1">
          <mxGeometry x="55" y="732" width="140" height="40" as="geometry" />
        </mxCell>
        <mxCell id="FJRzQ0SDMOUs9rcgQZn3-78" value="" style="html=1;points=[[0,0,0,0,5],[0,1,0,0,-5],[1,0,0,0,5],[1,1,0,0,-5]];perimeter=orthogonalPerimeter;outlineConnect=0;targetShapes=umlLifeline;portConstraint=eastwest;newEdgeStyle={&quot;curved&quot;:0,&quot;rounded&quot;:0};" vertex="1" parent="1">
          <mxGeometry x="281" y="677" width="10" height="80" as="geometry" />
        </mxCell>
        <mxCell id="FJRzQ0SDMOUs9rcgQZn3-79" value="Call" style="html=1;verticalAlign=bottom;endArrow=block;curved=0;rounded=0;" edge="1" parent="1" target="FJRzQ0SDMOUs9rcgQZn3-78">
          <mxGeometry relative="1" as="geometry">
            <mxPoint x="196" y="682" as="sourcePoint" />
          </mxGeometry>
        </mxCell>
        <mxCell id="FJRzQ0SDMOUs9rcgQZn3-80" value="return" style="html=1;verticalAlign=bottom;endArrow=open;dashed=1;endSize=8;curved=0;rounded=0;exitX=1;exitY=1;exitDx=0;exitDy=-5;" edge="1" parent="1" source="FJRzQ0SDMOUs9rcgQZn3-78">
          <mxGeometry relative="1" as="geometry">
            <mxPoint x="196" y="752" as="targetPoint" />
          </mxGeometry>
        </mxCell>
        <mxCell id="FJRzQ0SDMOUs9rcgQZn3-81" value="&lt;b&gt;DEVICE STATUS ACK&lt;/b&gt;" style="text;html=1;align=center;verticalAlign=middle;resizable=0;points=[];autosize=1;strokeColor=none;fillColor=none;" vertex="1" parent="1">
          <mxGeometry x="43" y="751" width="150" height="30" as="geometry" />
        </mxCell>
        <mxCell id="FJRzQ0SDMOUs9rcgQZn3-82" value="&lt;b&gt;SET&lt;/b&gt;" style="text;html=1;align=center;verticalAlign=middle;resizable=0;points=[];autosize=1;strokeColor=none;fillColor=none;" vertex="1" parent="1">
          <mxGeometry x="-250" y="229" width="50" height="30" as="geometry" />
        </mxCell>
        <mxCell id="FJRzQ0SDMOUs9rcgQZn3-83" value="&lt;b&gt;SET&lt;/b&gt;" style="text;html=1;align=center;verticalAlign=middle;resizable=0;points=[];autosize=1;strokeColor=none;fillColor=none;" vertex="1" parent="1">
          <mxGeometry x="-250" y="379" width="50" height="30" as="geometry" />
        </mxCell>
        <mxCell id="FJRzQ0SDMOUs9rcgQZn3-84" value="&lt;b&gt;SET&lt;/b&gt;" style="text;html=1;align=center;verticalAlign=middle;resizable=0;points=[];autosize=1;strokeColor=none;fillColor=none;" vertex="1" parent="1">
          <mxGeometry x="-250" y="530" width="50" height="30" as="geometry" />
        </mxCell>
        <mxCell id="FJRzQ0SDMOUs9rcgQZn3-85" value="&lt;b&gt;GET&lt;/b&gt;" style="text;html=1;align=center;verticalAlign=middle;resizable=0;points=[];autosize=1;strokeColor=none;fillColor=none;" vertex="1" parent="1">
          <mxGeometry x="-96" y="682" width="50" height="30" as="geometry" />
        </mxCell>
        <mxCell id="FJRzQ0SDMOUs9rcgQZn3-86" value="&lt;b&gt;TEMP_PW&lt;/b&gt;" style="text;html=1;align=center;verticalAlign=middle;resizable=0;points=[];autosize=1;strokeColor=none;fillColor=none;" vertex="1" parent="1">
          <mxGeometry x="-110" y="229" width="80" height="30" as="geometry" />
        </mxCell>
        <mxCell id="FJRzQ0SDMOUs9rcgQZn3-87" value="&lt;b&gt;SET_TEMP&lt;/b&gt;" style="text;html=1;align=center;verticalAlign=middle;resizable=0;points=[];autosize=1;strokeColor=none;fillColor=none;" vertex="1" parent="1">
          <mxGeometry x="-113" y="379" width="90" height="30" as="geometry" />
        </mxCell>
        <mxCell id="FJRzQ0SDMOUs9rcgQZn3-88" value="&lt;div style=&quot;color: #f7f1ff;background-color: #222222;font-family: Consolas, &#39;Courier New&#39;, monospace;font-weight: normal;font-size: 16px;line-height: 22px;white-space: pre;&quot;&gt;&lt;div style=&quot;line-height: 22px;&quot;&gt;&lt;span style=&quot;color: #fce566;&quot;&gt;&quot;temp_pw&lt;/span&gt;&lt;span style=&quot;color: #8b888f;&quot;&gt;&quot;&lt;/span&gt;&lt;span style=&quot;color: #8b888f;&quot;&gt;,&lt;/span&gt; &lt;span style=&quot;color: #7bd88f;&quot;&gt;Cmd_temp_pw&lt;/span&gt;&lt;/div&gt;&lt;/div&gt;" style="text;whiteSpace=wrap;html=1;" vertex="1" parent="1">
          <mxGeometry x="210" y="250" width="150" height="36" as="geometry" />
        </mxCell>
        <mxCell id="FJRzQ0SDMOUs9rcgQZn3-89" value="" style="html=1;points=[[0,0,0,0,5],[0,1,0,0,-5],[1,0,0,0,5],[1,1,0,0,-5]];perimeter=orthogonalPerimeter;outlineConnect=0;targetShapes=umlLifeline;portConstraint=eastwest;newEdgeStyle={&quot;curved&quot;:0,&quot;rounded&quot;:0};" vertex="1" parent="1">
          <mxGeometry x="195" y="224" width="10" height="80" as="geometry" />
        </mxCell>
        <mxCell id="FJRzQ0SDMOUs9rcgQZn3-90" value="Call" style="html=1;verticalAlign=bottom;endArrow=block;curved=0;rounded=0;" edge="1" parent="1" target="FJRzQ0SDMOUs9rcgQZn3-89">
          <mxGeometry relative="1" as="geometry">
            <mxPoint x="110" y="229" as="sourcePoint" />
          </mxGeometry>
        </mxCell>
        <mxCell id="FJRzQ0SDMOUs9rcgQZn3-91" value="return" style="html=1;verticalAlign=bottom;endArrow=open;dashed=1;endSize=8;curved=0;rounded=0;exitX=1;exitY=1;exitDx=0;exitDy=-5;" edge="1" parent="1" source="FJRzQ0SDMOUs9rcgQZn3-89">
          <mxGeometry relative="1" as="geometry">
            <mxPoint x="110" y="299" as="targetPoint" />
          </mxGeometry>
        </mxCell>
        <mxCell id="FJRzQ0SDMOUs9rcgQZn3-92" value="ON/OFF" style="rounded=0;whiteSpace=wrap;html=1;fillColor=none;" vertex="1" parent="1">
          <mxGeometry x="40" y="209" width="70" height="40" as="geometry" />
        </mxCell>
        <mxCell id="FJRzQ0SDMOUs9rcgQZn3-93" value="&lt;b&gt;DEVICE STATUS&lt;/b&gt;" style="text;html=1;align=center;verticalAlign=middle;resizable=0;points=[];autosize=1;strokeColor=none;fillColor=none;" vertex="1" parent="1">
          <mxGeometry x="43" y="682" width="120" height="30" as="geometry" />
        </mxCell>
        <mxCell id="FJRzQ0SDMOUs9rcgQZn3-96" value="..." style="rounded=0;whiteSpace=wrap;html=1;fillColor=none;" vertex="1" parent="1">
          <mxGeometry x="55" y="772" width="140" height="40" as="geometry" />
        </mxCell>
        <mxCell id="FJRzQ0SDMOUs9rcgQZn3-97" value="TEC INIT [x] : F/OK/?" style="rounded=0;whiteSpace=wrap;html=1;fillColor=none;" vertex="1" parent="1">
          <mxGeometry x="55" y="812" width="140" height="40" as="geometry" />
        </mxCell>
        <mxCell id="FJRzQ0SDMOUs9rcgQZn3-98" value="Channel [x]" style="rounded=0;whiteSpace=wrap;html=1;fillColor=none;" vertex="1" parent="1">
          <mxGeometry x="41" y="510" width="70" height="40" as="geometry" />
        </mxCell>
        <mxCell id="FJRzQ0SDMOUs9rcgQZn3-99" value="..." style="rounded=0;whiteSpace=wrap;html=1;fillColor=none;" vertex="1" parent="1">
          <mxGeometry x="55" y="852" width="140" height="40" as="geometry" />
        </mxCell>
        <mxCell id="FJRzQ0SDMOUs9rcgQZn3-100" value="&lt;div style=&quot;color: #f7f1ff;background-color: #222222;font-family: Consolas, &#39;Courier New&#39;, monospace;font-weight: normal;font-size: 16px;line-height: 22px;white-space: pre;&quot;&gt;&lt;div style=&quot;line-height: 22px;&quot;&gt;&lt;div style=&quot;line-height: 22px;&quot;&gt;&lt;div style=&quot;line-height: 22px;&quot;&gt;&lt;span style=&quot;color: #8b888f;&quot;&gt;&quot;&lt;/span&gt;&lt;span style=&quot;color: #fce566;&quot;&gt;tec_vol&lt;/span&gt;&lt;span style=&quot;color: #8b888f;&quot;&gt;&quot;&lt;/span&gt;&lt;span style=&quot;color: #8b888f;&quot;&gt;,&lt;/span&gt; &lt;span style=&quot;color: #7bd88f;&quot;&gt;Cmd_tec_set_vol&lt;/span&gt;&lt;/div&gt;&lt;/div&gt;&lt;/div&gt;&lt;/div&gt;" style="text;whiteSpace=wrap;html=1;" vertex="1" parent="1">
          <mxGeometry x="416" y="967" width="150" height="36" as="geometry" />
        </mxCell>
        <mxCell id="FJRzQ0SDMOUs9rcgQZn3-101" value="Min ID: 0x20" style="rounded=0;whiteSpace=wrap;html=1;fillColor=#fff2cc;strokeColor=#d6b656;" vertex="1" parent="1">
          <mxGeometry x="-240" y="930" width="140" height="40" as="geometry" />
        </mxCell>
        <mxCell id="FJRzQ0SDMOUs9rcgQZn3-102" value="CMD Code: 0x04" style="rounded=0;whiteSpace=wrap;html=1;fillColor=none;" vertex="1" parent="1">
          <mxGeometry x="-100" y="930" width="140" height="40" as="geometry" />
        </mxCell>
        <mxCell id="FJRzQ0SDMOUs9rcgQZn3-103" value="Min ID: 0x3F" style="rounded=0;whiteSpace=wrap;html=1;fillColor=none;" vertex="1" parent="1">
          <mxGeometry x="180" y="1000" width="140" height="40" as="geometry" />
        </mxCell>
        <mxCell id="FJRzQ0SDMOUs9rcgQZn3-104" value="Channel 1" style="rounded=0;whiteSpace=wrap;html=1;fillColor=none;" vertex="1" parent="1">
          <mxGeometry x="40" y="930" width="70" height="40" as="geometry" />
        </mxCell>
        <mxCell id="FJRzQ0SDMOUs9rcgQZn3-105" value="" style="html=1;points=[[0,0,0,0,5],[0,1,0,0,-5],[1,0,0,0,5],[1,1,0,0,-5]];perimeter=orthogonalPerimeter;outlineConnect=0;targetShapes=umlLifeline;portConstraint=eastwest;newEdgeStyle={&quot;curved&quot;:0,&quot;rounded&quot;:0};" vertex="1" parent="1">
          <mxGeometry x="406" y="945" width="10" height="80" as="geometry" />
        </mxCell>
        <mxCell id="FJRzQ0SDMOUs9rcgQZn3-106" value="Call" style="html=1;verticalAlign=bottom;endArrow=block;curved=0;rounded=0;" edge="1" parent="1" target="FJRzQ0SDMOUs9rcgQZn3-105">
          <mxGeometry relative="1" as="geometry">
            <mxPoint x="321" y="950" as="sourcePoint" />
          </mxGeometry>
        </mxCell>
        <mxCell id="FJRzQ0SDMOUs9rcgQZn3-107" value="return" style="html=1;verticalAlign=bottom;endArrow=open;dashed=1;endSize=8;curved=0;rounded=0;exitX=1;exitY=1;exitDx=0;exitDy=-5;" edge="1" parent="1" source="FJRzQ0SDMOUs9rcgQZn3-105">
          <mxGeometry relative="1" as="geometry">
            <mxPoint x="321" y="1020" as="targetPoint" />
          </mxGeometry>
        </mxCell>
        <mxCell id="FJRzQ0SDMOUs9rcgQZn3-108" value="Channel 2" style="rounded=0;whiteSpace=wrap;html=1;fillColor=none;" vertex="1" parent="1">
          <mxGeometry x="110" y="930" width="70" height="40" as="geometry" />
        </mxCell>
        <mxCell id="FJRzQ0SDMOUs9rcgQZn3-109" value="Channel 3" style="rounded=0;whiteSpace=wrap;html=1;fillColor=none;" vertex="1" parent="1">
          <mxGeometry x="180" y="930" width="70" height="40" as="geometry" />
        </mxCell>
        <mxCell id="FJRzQ0SDMOUs9rcgQZn3-110" value="Channel 4" style="rounded=0;whiteSpace=wrap;html=1;fillColor=none;" vertex="1" parent="1">
          <mxGeometry x="250" y="930" width="70" height="40" as="geometry" />
        </mxCell>
        <mxCell id="FJRzQ0SDMOUs9rcgQZn3-111" value="DONE" style="text;html=1;align=center;verticalAlign=middle;resizable=0;points=[];autosize=1;strokeColor=none;fillColor=none;fontStyle=1" vertex="1" parent="1">
          <mxGeometry x="170" y="1020" width="60" height="30" as="geometry" />
        </mxCell>
        <mxCell id="FJRzQ0SDMOUs9rcgQZn3-112" value="&lt;b&gt;SET&lt;/b&gt;" style="text;html=1;align=center;verticalAlign=middle;resizable=0;points=[];autosize=1;strokeColor=none;fillColor=none;" vertex="1" parent="1">
          <mxGeometry x="-250" y="950" width="50" height="30" as="geometry" />
        </mxCell>
        <mxCell id="FJRzQ0SDMOUs9rcgQZn3-113" value="&lt;b&gt;TEC_VOL&lt;/b&gt;" style="text;html=1;align=center;verticalAlign=middle;resizable=0;points=[];autosize=1;strokeColor=none;fillColor=none;" vertex="1" parent="1">
          <mxGeometry x="-111" y="950" width="80" height="30" as="geometry" />
        </mxCell>
        <mxCell id="FJRzQ0SDMOUs9rcgQZn3-114" value="&lt;div style=&quot;color: #f7f1ff;background-color: #222222;font-family: Consolas, &#39;Courier New&#39;, monospace;font-weight: normal;font-size: 16px;line-height: 22px;white-space: pre;&quot;&gt;&lt;div style=&quot;line-height: 22px;&quot;&gt;&lt;div style=&quot;line-height: 22px;&quot;&gt;&lt;div style=&quot;line-height: 22px;&quot;&gt;&lt;div style=&quot;line-height: 22px;&quot;&gt;&lt;span style=&quot;color: #8b888f;&quot;&gt;&quot;&lt;/span&gt;&lt;span style=&quot;color: #fce566;&quot;&gt;tec_dir&lt;/span&gt;&lt;span style=&quot;color: #8b888f;&quot;&gt;&quot;&lt;/span&gt;&lt;span style=&quot;color: #8b888f;&quot;&gt;,&lt;/span&gt; &lt;span style=&quot;color: #7bd88f;&quot;&gt;Cmd_tec_dir&lt;/span&gt;&lt;/div&gt;&lt;/div&gt;&lt;/div&gt;&lt;/div&gt;&lt;/div&gt;" style="text;whiteSpace=wrap;html=1;" vertex="1" parent="1">
          <mxGeometry x="416" y="1117" width="150" height="36" as="geometry" />
        </mxCell>
        <mxCell id="FJRzQ0SDMOUs9rcgQZn3-115" value="Min ID: 0x20" style="rounded=0;whiteSpace=wrap;html=1;fillColor=#fff2cc;strokeColor=#d6b656;" vertex="1" parent="1">
          <mxGeometry x="-240" y="1080" width="140" height="40" as="geometry" />
        </mxCell>
        <mxCell id="FJRzQ0SDMOUs9rcgQZn3-116" value="CMD Code: 0x05" style="rounded=0;whiteSpace=wrap;html=1;fillColor=none;" vertex="1" parent="1">
          <mxGeometry x="-100" y="1080" width="140" height="40" as="geometry" />
        </mxCell>
        <mxCell id="FJRzQ0SDMOUs9rcgQZn3-117" value="Min ID: 0x3F" style="rounded=0;whiteSpace=wrap;html=1;fillColor=none;" vertex="1" parent="1">
          <mxGeometry x="180" y="1150" width="140" height="40" as="geometry" />
        </mxCell>
        <mxCell id="FJRzQ0SDMOUs9rcgQZn3-118" value="Channel 1" style="rounded=0;whiteSpace=wrap;html=1;fillColor=none;" vertex="1" parent="1">
          <mxGeometry x="40" y="1080" width="70" height="40" as="geometry" />
        </mxCell>
        <mxCell id="FJRzQ0SDMOUs9rcgQZn3-119" value="" style="html=1;points=[[0,0,0,0,5],[0,1,0,0,-5],[1,0,0,0,5],[1,1,0,0,-5]];perimeter=orthogonalPerimeter;outlineConnect=0;targetShapes=umlLifeline;portConstraint=eastwest;newEdgeStyle={&quot;curved&quot;:0,&quot;rounded&quot;:0};" vertex="1" parent="1">
          <mxGeometry x="406" y="1095" width="10" height="80" as="geometry" />
        </mxCell>
        <mxCell id="FJRzQ0SDMOUs9rcgQZn3-120" value="Call" style="html=1;verticalAlign=bottom;endArrow=block;curved=0;rounded=0;" edge="1" parent="1" target="FJRzQ0SDMOUs9rcgQZn3-119">
          <mxGeometry relative="1" as="geometry">
            <mxPoint x="321" y="1100" as="sourcePoint" />
          </mxGeometry>
        </mxCell>
        <mxCell id="FJRzQ0SDMOUs9rcgQZn3-121" value="return" style="html=1;verticalAlign=bottom;endArrow=open;dashed=1;endSize=8;curved=0;rounded=0;exitX=1;exitY=1;exitDx=0;exitDy=-5;" edge="1" parent="1" source="FJRzQ0SDMOUs9rcgQZn3-119">
          <mxGeometry relative="1" as="geometry">
            <mxPoint x="321" y="1170" as="targetPoint" />
          </mxGeometry>
        </mxCell>
        <mxCell id="FJRzQ0SDMOUs9rcgQZn3-122" value="Channel 2" style="rounded=0;whiteSpace=wrap;html=1;fillColor=none;" vertex="1" parent="1">
          <mxGeometry x="110" y="1080" width="70" height="40" as="geometry" />
        </mxCell>
        <mxCell id="FJRzQ0SDMOUs9rcgQZn3-123" value="Channel 3" style="rounded=0;whiteSpace=wrap;html=1;fillColor=none;" vertex="1" parent="1">
          <mxGeometry x="180" y="1080" width="70" height="40" as="geometry" />
        </mxCell>
        <mxCell id="FJRzQ0SDMOUs9rcgQZn3-124" value="Channel 4" style="rounded=0;whiteSpace=wrap;html=1;fillColor=none;" vertex="1" parent="1">
          <mxGeometry x="250" y="1080" width="70" height="40" as="geometry" />
        </mxCell>
        <mxCell id="FJRzQ0SDMOUs9rcgQZn3-125" value="DONE" style="text;html=1;align=center;verticalAlign=middle;resizable=0;points=[];autosize=1;strokeColor=none;fillColor=none;fontStyle=1" vertex="1" parent="1">
          <mxGeometry x="170" y="1170" width="60" height="30" as="geometry" />
        </mxCell>
        <mxCell id="FJRzQ0SDMOUs9rcgQZn3-126" value="&lt;b&gt;SET&lt;/b&gt;" style="text;html=1;align=center;verticalAlign=middle;resizable=0;points=[];autosize=1;strokeColor=none;fillColor=none;" vertex="1" parent="1">
          <mxGeometry x="-250" y="1100" width="50" height="30" as="geometry" />
        </mxCell>
        <mxCell id="FJRzQ0SDMOUs9rcgQZn3-127" value="&lt;b&gt;TEC_DIR&lt;/b&gt;" style="text;html=1;align=center;verticalAlign=middle;resizable=0;points=[];autosize=1;strokeColor=none;fillColor=none;" vertex="1" parent="1">
          <mxGeometry x="-106" y="1100" width="70" height="30" as="geometry" />
        </mxCell>
        <mxCell id="FJRzQ0SDMOUs9rcgQZn3-128" value="&lt;div style=&quot;color: #f7f1ff;background-color: #222222;font-family: Consolas, &#39;Courier New&#39;, monospace;font-weight: normal;font-size: 16px;line-height: 22px;white-space: pre;&quot;&gt;&lt;div style=&quot;line-height: 22px;&quot;&gt;&lt;div style=&quot;line-height: 22px;&quot;&gt;&lt;div style=&quot;line-height: 22px;&quot;&gt;&lt;div style=&quot;line-height: 22px;&quot;&gt;&lt;div style=&quot;line-height: 22px;&quot;&gt;&lt;span style=&quot;color: #8b888f;&quot;&gt;&quot;&lt;/span&gt;&lt;span style=&quot;color: #fce566;&quot;&gt;tec_ctrl&lt;/span&gt;&lt;span style=&quot;color: #8b888f;&quot;&gt;&quot;&lt;/span&gt;&lt;span style=&quot;color: #8b888f;&quot;&gt;,&lt;/span&gt; &lt;span style=&quot;color: #7bd88f;&quot;&gt;Cmd_tec_ctrl&lt;/span&gt;&lt;/div&gt;&lt;/div&gt;&lt;/div&gt;&lt;/div&gt;&lt;/div&gt;&lt;/div&gt;" style="text;whiteSpace=wrap;html=1;" vertex="1" parent="1">
          <mxGeometry x="416" y="1267" width="150" height="36" as="geometry" />
        </mxCell>
        <mxCell id="FJRzQ0SDMOUs9rcgQZn3-129" value="Min ID: 0x20" style="rounded=0;whiteSpace=wrap;html=1;fillColor=#fff2cc;strokeColor=#d6b656;" vertex="1" parent="1">
          <mxGeometry x="-240" y="1230" width="140" height="40" as="geometry" />
        </mxCell>
        <mxCell id="FJRzQ0SDMOUs9rcgQZn3-130" value="CMD Code: 0x06" style="rounded=0;whiteSpace=wrap;html=1;fillColor=none;" vertex="1" parent="1">
          <mxGeometry x="-100" y="1230" width="140" height="40" as="geometry" />
        </mxCell>
        <mxCell id="FJRzQ0SDMOUs9rcgQZn3-131" value="Min ID: 0x3F" style="rounded=0;whiteSpace=wrap;html=1;fillColor=none;" vertex="1" parent="1">
          <mxGeometry x="180" y="1300" width="140" height="40" as="geometry" />
        </mxCell>
        <mxCell id="FJRzQ0SDMOUs9rcgQZn3-132" value="Channel 1" style="rounded=0;whiteSpace=wrap;html=1;fillColor=none;" vertex="1" parent="1">
          <mxGeometry x="40" y="1230" width="70" height="40" as="geometry" />
        </mxCell>
        <mxCell id="FJRzQ0SDMOUs9rcgQZn3-133" value="" style="html=1;points=[[0,0,0,0,5],[0,1,0,0,-5],[1,0,0,0,5],[1,1,0,0,-5]];perimeter=orthogonalPerimeter;outlineConnect=0;targetShapes=umlLifeline;portConstraint=eastwest;newEdgeStyle={&quot;curved&quot;:0,&quot;rounded&quot;:0};" vertex="1" parent="1">
          <mxGeometry x="406" y="1245" width="10" height="80" as="geometry" />
        </mxCell>
        <mxCell id="FJRzQ0SDMOUs9rcgQZn3-134" value="Call" style="html=1;verticalAlign=bottom;endArrow=block;curved=0;rounded=0;" edge="1" target="FJRzQ0SDMOUs9rcgQZn3-133" parent="1">
          <mxGeometry relative="1" as="geometry">
            <mxPoint x="321" y="1250" as="sourcePoint" />
          </mxGeometry>
        </mxCell>
        <mxCell id="FJRzQ0SDMOUs9rcgQZn3-135" value="return" style="html=1;verticalAlign=bottom;endArrow=open;dashed=1;endSize=8;curved=0;rounded=0;exitX=1;exitY=1;exitDx=0;exitDy=-5;" edge="1" source="FJRzQ0SDMOUs9rcgQZn3-133" parent="1">
          <mxGeometry relative="1" as="geometry">
            <mxPoint x="321" y="1320" as="targetPoint" />
          </mxGeometry>
        </mxCell>
        <mxCell id="FJRzQ0SDMOUs9rcgQZn3-136" value="Channel 2" style="rounded=0;whiteSpace=wrap;html=1;fillColor=none;" vertex="1" parent="1">
          <mxGeometry x="110" y="1230" width="70" height="40" as="geometry" />
        </mxCell>
        <mxCell id="FJRzQ0SDMOUs9rcgQZn3-137" value="Channel 3" style="rounded=0;whiteSpace=wrap;html=1;fillColor=none;" vertex="1" parent="1">
          <mxGeometry x="180" y="1230" width="70" height="40" as="geometry" />
        </mxCell>
        <mxCell id="FJRzQ0SDMOUs9rcgQZn3-138" value="Channel 4" style="rounded=0;whiteSpace=wrap;html=1;fillColor=none;" vertex="1" parent="1">
          <mxGeometry x="250" y="1230" width="70" height="40" as="geometry" />
        </mxCell>
        <mxCell id="FJRzQ0SDMOUs9rcgQZn3-139" value="DONE" style="text;html=1;align=center;verticalAlign=middle;resizable=0;points=[];autosize=1;strokeColor=none;fillColor=none;fontStyle=1" vertex="1" parent="1">
          <mxGeometry x="170" y="1320" width="60" height="30" as="geometry" />
        </mxCell>
        <mxCell id="FJRzQ0SDMOUs9rcgQZn3-140" value="&lt;b&gt;SET&lt;/b&gt;" style="text;html=1;align=center;verticalAlign=middle;resizable=0;points=[];autosize=1;strokeColor=none;fillColor=none;" vertex="1" parent="1">
          <mxGeometry x="-250" y="1250" width="50" height="30" as="geometry" />
        </mxCell>
        <mxCell id="FJRzQ0SDMOUs9rcgQZn3-141" value="&lt;b&gt;TEC_CTRL&lt;/b&gt;" style="text;html=1;align=center;verticalAlign=middle;resizable=0;points=[];autosize=1;strokeColor=none;fillColor=none;" vertex="1" parent="1">
          <mxGeometry x="-113" y="1250" width="90" height="30" as="geometry" />
        </mxCell>
        <mxCell id="FJRzQ0SDMOUs9rcgQZn3-156" value="&lt;div style=&quot;color: #f7f1ff;background-color: #222222;font-family: Consolas, &#39;Courier New&#39;, monospace;font-weight: normal;font-size: 16px;line-height: 22px;white-space: pre;&quot;&gt;&lt;div style=&quot;line-height: 22px;&quot;&gt;&lt;div style=&quot;line-height: 22px;&quot;&gt;&lt;div style=&quot;line-height: 22px;&quot;&gt;&lt;div style=&quot;line-height: 22px;&quot;&gt;&lt;div style=&quot;line-height: 22px;&quot;&gt;&lt;div style=&quot;line-height: 22px;&quot;&gt;&lt;span style=&quot;color: #8b888f;&quot;&gt;&quot;&lt;/span&gt;&lt;span style=&quot;color: #fce566;&quot;&gt;heater_duty&lt;/span&gt;&lt;span style=&quot;color: #8b888f;&quot;&gt;&quot;&lt;/span&gt;&lt;span style=&quot;color: #8b888f;&quot;&gt;,&lt;/span&gt; &lt;span style=&quot;color: #7bd88f;&quot;&gt;Cmd_heater_set_duty&lt;/span&gt;&lt;/div&gt;&lt;/div&gt;&lt;/div&gt;&lt;/div&gt;&lt;/div&gt;&lt;/div&gt;&lt;/div&gt;" style="text;whiteSpace=wrap;html=1;" vertex="1" parent="1">
          <mxGeometry x="416" y="1417" width="150" height="36" as="geometry" />
        </mxCell>
        <mxCell id="FJRzQ0SDMOUs9rcgQZn3-157" value="Min ID: 0x20" style="rounded=0;whiteSpace=wrap;html=1;fillColor=#fff2cc;strokeColor=#d6b656;" vertex="1" parent="1">
          <mxGeometry x="-240" y="1380" width="140" height="40" as="geometry" />
        </mxCell>
        <mxCell id="FJRzQ0SDMOUs9rcgQZn3-158" value="CMD Code: 0x07" style="rounded=0;whiteSpace=wrap;html=1;fillColor=none;" vertex="1" parent="1">
          <mxGeometry x="-100" y="1380" width="140" height="40" as="geometry" />
        </mxCell>
        <mxCell id="FJRzQ0SDMOUs9rcgQZn3-159" value="Min ID: 0x3F" style="rounded=0;whiteSpace=wrap;html=1;fillColor=none;" vertex="1" parent="1">
          <mxGeometry x="180" y="1450" width="140" height="40" as="geometry" />
        </mxCell>
        <mxCell id="FJRzQ0SDMOUs9rcgQZn3-160" value="Channel 1" style="rounded=0;whiteSpace=wrap;html=1;fillColor=none;" vertex="1" parent="1">
          <mxGeometry x="40" y="1380" width="70" height="40" as="geometry" />
        </mxCell>
        <mxCell id="FJRzQ0SDMOUs9rcgQZn3-161" value="" style="html=1;points=[[0,0,0,0,5],[0,1,0,0,-5],[1,0,0,0,5],[1,1,0,0,-5]];perimeter=orthogonalPerimeter;outlineConnect=0;targetShapes=umlLifeline;portConstraint=eastwest;newEdgeStyle={&quot;curved&quot;:0,&quot;rounded&quot;:0};" vertex="1" parent="1">
          <mxGeometry x="406" y="1395" width="10" height="80" as="geometry" />
        </mxCell>
        <mxCell id="FJRzQ0SDMOUs9rcgQZn3-162" value="Call" style="html=1;verticalAlign=bottom;endArrow=block;curved=0;rounded=0;" edge="1" parent="1" target="FJRzQ0SDMOUs9rcgQZn3-161">
          <mxGeometry relative="1" as="geometry">
            <mxPoint x="321" y="1400" as="sourcePoint" />
          </mxGeometry>
        </mxCell>
        <mxCell id="FJRzQ0SDMOUs9rcgQZn3-163" value="return" style="html=1;verticalAlign=bottom;endArrow=open;dashed=1;endSize=8;curved=0;rounded=0;exitX=1;exitY=1;exitDx=0;exitDy=-5;" edge="1" parent="1" source="FJRzQ0SDMOUs9rcgQZn3-161">
          <mxGeometry relative="1" as="geometry">
            <mxPoint x="321" y="1470" as="targetPoint" />
          </mxGeometry>
        </mxCell>
        <mxCell id="FJRzQ0SDMOUs9rcgQZn3-164" value="Channel 2" style="rounded=0;whiteSpace=wrap;html=1;fillColor=none;" vertex="1" parent="1">
          <mxGeometry x="110" y="1380" width="70" height="40" as="geometry" />
        </mxCell>
        <mxCell id="FJRzQ0SDMOUs9rcgQZn3-165" value="Channel 3" style="rounded=0;whiteSpace=wrap;html=1;fillColor=none;" vertex="1" parent="1">
          <mxGeometry x="180" y="1380" width="70" height="40" as="geometry" />
        </mxCell>
        <mxCell id="FJRzQ0SDMOUs9rcgQZn3-166" value="Channel 4" style="rounded=0;whiteSpace=wrap;html=1;fillColor=none;" vertex="1" parent="1">
          <mxGeometry x="250" y="1380" width="70" height="40" as="geometry" />
        </mxCell>
        <mxCell id="FJRzQ0SDMOUs9rcgQZn3-167" value="DONE" style="text;html=1;align=center;verticalAlign=middle;resizable=0;points=[];autosize=1;strokeColor=none;fillColor=none;fontStyle=1" vertex="1" parent="1">
          <mxGeometry x="170" y="1470" width="60" height="30" as="geometry" />
        </mxCell>
        <mxCell id="FJRzQ0SDMOUs9rcgQZn3-168" value="&lt;b&gt;SET&lt;/b&gt;" style="text;html=1;align=center;verticalAlign=middle;resizable=0;points=[];autosize=1;strokeColor=none;fillColor=none;" vertex="1" parent="1">
          <mxGeometry x="-250" y="1400" width="50" height="30" as="geometry" />
        </mxCell>
        <mxCell id="FJRzQ0SDMOUs9rcgQZn3-169" value="&lt;b&gt;HEATER_DUTY&lt;/b&gt;" style="text;html=1;align=center;verticalAlign=middle;resizable=0;points=[];autosize=1;strokeColor=none;fillColor=none;" vertex="1" parent="1">
          <mxGeometry x="-108" y="1400" width="110" height="30" as="geometry" />
        </mxCell>
        <mxCell id="FJRzQ0SDMOUs9rcgQZn3-170" value="&lt;div style=&quot;color: #f7f1ff;background-color: #222222;font-family: Consolas, &#39;Courier New&#39;, monospace;font-weight: normal;font-size: 16px;line-height: 22px;white-space: pre;&quot;&gt;&lt;div style=&quot;line-height: 22px;&quot;&gt;&lt;div style=&quot;line-height: 22px;&quot;&gt;&lt;div style=&quot;line-height: 22px;&quot;&gt;&lt;div style=&quot;line-height: 22px;&quot;&gt;&lt;div style=&quot;line-height: 22px;&quot;&gt;&lt;div style=&quot;line-height: 22px;&quot;&gt;&lt;div style=&quot;line-height: 22px;&quot;&gt;&lt;span style=&quot;color: #8b888f;&quot;&gt;&quot;&lt;/span&gt;&lt;span style=&quot;color: #fce566;&quot;&gt;temp_set_auto&lt;/span&gt;&lt;span style=&quot;color: #8b888f;&quot;&gt;&quot;&lt;/span&gt;&lt;span style=&quot;color: #8b888f;&quot;&gt;,&lt;/span&gt; &lt;span style=&quot;color: #7bd88f;&quot;&gt;Cmd_temp_set_auto&lt;/span&gt;&lt;/div&gt;&lt;/div&gt;&lt;/div&gt;&lt;/div&gt;&lt;/div&gt;&lt;/div&gt;&lt;/div&gt;&lt;/div&gt;" style="text;whiteSpace=wrap;html=1;" vertex="1" parent="1">
          <mxGeometry x="416" y="1567" width="150" height="36" as="geometry" />
        </mxCell>
        <mxCell id="FJRzQ0SDMOUs9rcgQZn3-171" value="Min ID: 0x20" style="rounded=0;whiteSpace=wrap;html=1;fillColor=#fff2cc;strokeColor=#d6b656;" vertex="1" parent="1">
          <mxGeometry x="-240" y="1530" width="140" height="40" as="geometry" />
        </mxCell>
        <mxCell id="FJRzQ0SDMOUs9rcgQZn3-172" value="CMD Code: 0x08" style="rounded=0;whiteSpace=wrap;html=1;fillColor=none;" vertex="1" parent="1">
          <mxGeometry x="-100" y="1530" width="140" height="40" as="geometry" />
        </mxCell>
        <mxCell id="FJRzQ0SDMOUs9rcgQZn3-173" value="Min ID: 0x3F" style="rounded=0;whiteSpace=wrap;html=1;fillColor=none;" vertex="1" parent="1">
          <mxGeometry x="180" y="1600" width="140" height="40" as="geometry" />
        </mxCell>
        <mxCell id="FJRzQ0SDMOUs9rcgQZn3-174" value="Channel 1" style="rounded=0;whiteSpace=wrap;html=1;fillColor=none;" vertex="1" parent="1">
          <mxGeometry x="40" y="1530" width="70" height="40" as="geometry" />
        </mxCell>
        <mxCell id="FJRzQ0SDMOUs9rcgQZn3-175" value="" style="html=1;points=[[0,0,0,0,5],[0,1,0,0,-5],[1,0,0,0,5],[1,1,0,0,-5]];perimeter=orthogonalPerimeter;outlineConnect=0;targetShapes=umlLifeline;portConstraint=eastwest;newEdgeStyle={&quot;curved&quot;:0,&quot;rounded&quot;:0};" vertex="1" parent="1">
          <mxGeometry x="406" y="1545" width="10" height="80" as="geometry" />
        </mxCell>
        <mxCell id="FJRzQ0SDMOUs9rcgQZn3-176" value="Call" style="html=1;verticalAlign=bottom;endArrow=block;curved=0;rounded=0;" edge="1" parent="1" target="FJRzQ0SDMOUs9rcgQZn3-175">
          <mxGeometry relative="1" as="geometry">
            <mxPoint x="321" y="1550" as="sourcePoint" />
          </mxGeometry>
        </mxCell>
        <mxCell id="FJRzQ0SDMOUs9rcgQZn3-177" value="return" style="html=1;verticalAlign=bottom;endArrow=open;dashed=1;endSize=8;curved=0;rounded=0;exitX=1;exitY=1;exitDx=0;exitDy=-5;" edge="1" parent="1" source="FJRzQ0SDMOUs9rcgQZn3-175">
          <mxGeometry relative="1" as="geometry">
            <mxPoint x="321" y="1620" as="targetPoint" />
          </mxGeometry>
        </mxCell>
        <mxCell id="FJRzQ0SDMOUs9rcgQZn3-178" value="Channel 2" style="rounded=0;whiteSpace=wrap;html=1;fillColor=none;" vertex="1" parent="1">
          <mxGeometry x="110" y="1530" width="70" height="40" as="geometry" />
        </mxCell>
        <mxCell id="FJRzQ0SDMOUs9rcgQZn3-179" value="Channel 3" style="rounded=0;whiteSpace=wrap;html=1;fillColor=none;" vertex="1" parent="1">
          <mxGeometry x="180" y="1530" width="70" height="40" as="geometry" />
        </mxCell>
        <mxCell id="FJRzQ0SDMOUs9rcgQZn3-180" value="Channel 4" style="rounded=0;whiteSpace=wrap;html=1;fillColor=none;" vertex="1" parent="1">
          <mxGeometry x="250" y="1530" width="70" height="40" as="geometry" />
        </mxCell>
        <mxCell id="FJRzQ0SDMOUs9rcgQZn3-181" value="DONE" style="text;html=1;align=center;verticalAlign=middle;resizable=0;points=[];autosize=1;strokeColor=none;fillColor=none;fontStyle=1" vertex="1" parent="1">
          <mxGeometry x="170" y="1620" width="60" height="30" as="geometry" />
        </mxCell>
        <mxCell id="FJRzQ0SDMOUs9rcgQZn3-182" value="&lt;b&gt;SET&lt;/b&gt;" style="text;html=1;align=center;verticalAlign=middle;resizable=0;points=[];autosize=1;strokeColor=none;fillColor=none;" vertex="1" parent="1">
          <mxGeometry x="-250" y="1550" width="50" height="30" as="geometry" />
        </mxCell>
        <mxCell id="FJRzQ0SDMOUs9rcgQZn3-183" value="&lt;b&gt;TEMP_SET_AUTO&lt;/b&gt;" style="text;html=1;align=center;verticalAlign=middle;resizable=0;points=[];autosize=1;strokeColor=none;fillColor=none;" vertex="1" parent="1">
          <mxGeometry x="-111" y="1550" width="130" height="30" as="geometry" />
        </mxCell>
        <mxCell id="FJRzQ0SDMOUs9rcgQZn3-184" value="&lt;div style=&quot;color: #f7f1ff;background-color: #222222;font-family: Consolas, &#39;Courier New&#39;, monospace;font-weight: normal;font-size: 16px;line-height: 22px;white-space: pre;&quot;&gt;&lt;div style=&quot;line-height: 22px;&quot;&gt;&lt;div style=&quot;line-height: 22px;&quot;&gt;&lt;div style=&quot;line-height: 22px;&quot;&gt;&lt;div style=&quot;line-height: 22px;&quot;&gt;&lt;div style=&quot;line-height: 22px;&quot;&gt;&lt;div style=&quot;line-height: 22px;&quot;&gt;&lt;div style=&quot;line-height: 22px;&quot;&gt;&lt;div style=&quot;line-height: 22px;&quot;&gt;&lt;span style=&quot;color: #8b888f;&quot;&gt;&quot;&lt;/span&gt;&lt;span style=&quot;color: #fce566;&quot;&gt;temp_auto_0&lt;/span&gt;&lt;span style=&quot;color: #8b888f;&quot;&gt;&quot;&lt;/span&gt;&lt;span style=&quot;color: #8b888f;&quot;&gt;,&lt;/span&gt; &lt;span style=&quot;color: #7bd88f;&quot;&gt;Cmd_temp_auto_0&lt;/span&gt;&lt;/div&gt;&lt;/div&gt;&lt;/div&gt;&lt;/div&gt;&lt;/div&gt;&lt;/div&gt;&lt;/div&gt;&lt;/div&gt;&lt;/div&gt;" style="text;whiteSpace=wrap;html=1;" vertex="1" parent="1">
          <mxGeometry x="416" y="1717" width="150" height="36" as="geometry" />
        </mxCell>
        <mxCell id="FJRzQ0SDMOUs9rcgQZn3-185" value="Min ID: 0x20" style="rounded=0;whiteSpace=wrap;html=1;fillColor=#fff2cc;strokeColor=#d6b656;" vertex="1" parent="1">
          <mxGeometry x="-240" y="1680" width="140" height="40" as="geometry" />
        </mxCell>
        <mxCell id="FJRzQ0SDMOUs9rcgQZn3-186" value="CMD Code: 0x0A" style="rounded=0;whiteSpace=wrap;html=1;fillColor=none;" vertex="1" parent="1">
          <mxGeometry x="-100" y="1680" width="140" height="40" as="geometry" />
        </mxCell>
        <mxCell id="FJRzQ0SDMOUs9rcgQZn3-187" value="Min ID: 0x3F" style="rounded=0;whiteSpace=wrap;html=1;fillColor=none;" vertex="1" parent="1">
          <mxGeometry x="180" y="1750" width="140" height="40" as="geometry" />
        </mxCell>
        <mxCell id="FJRzQ0SDMOUs9rcgQZn3-188" value="AUTO" style="rounded=0;whiteSpace=wrap;html=1;fillColor=none;" vertex="1" parent="1">
          <mxGeometry x="40" y="1680" width="70" height="40" as="geometry" />
        </mxCell>
        <mxCell id="FJRzQ0SDMOUs9rcgQZn3-189" value="" style="html=1;points=[[0,0,0,0,5],[0,1,0,0,-5],[1,0,0,0,5],[1,1,0,0,-5]];perimeter=orthogonalPerimeter;outlineConnect=0;targetShapes=umlLifeline;portConstraint=eastwest;newEdgeStyle={&quot;curved&quot;:0,&quot;rounded&quot;:0};" vertex="1" parent="1">
          <mxGeometry x="406" y="1695" width="10" height="80" as="geometry" />
        </mxCell>
        <mxCell id="FJRzQ0SDMOUs9rcgQZn3-190" value="Call" style="html=1;verticalAlign=bottom;endArrow=block;curved=0;rounded=0;" edge="1" parent="1" target="FJRzQ0SDMOUs9rcgQZn3-189">
          <mxGeometry relative="1" as="geometry">
            <mxPoint x="321" y="1700" as="sourcePoint" />
          </mxGeometry>
        </mxCell>
        <mxCell id="FJRzQ0SDMOUs9rcgQZn3-191" value="return" style="html=1;verticalAlign=bottom;endArrow=open;dashed=1;endSize=8;curved=0;rounded=0;exitX=1;exitY=1;exitDx=0;exitDy=-5;" edge="1" parent="1" source="FJRzQ0SDMOUs9rcgQZn3-189">
          <mxGeometry relative="1" as="geometry">
            <mxPoint x="321" y="1770" as="targetPoint" />
          </mxGeometry>
        </mxCell>
        <mxCell id="FJRzQ0SDMOUs9rcgQZn3-192" value="VOL" style="rounded=0;whiteSpace=wrap;html=1;fillColor=none;" vertex="1" parent="1">
          <mxGeometry x="110" y="1680" width="70" height="40" as="geometry" />
        </mxCell>
        <mxCell id="FJRzQ0SDMOUs9rcgQZn3-193" value="DUTY" style="rounded=0;whiteSpace=wrap;html=1;fillColor=none;" vertex="1" parent="1">
          <mxGeometry x="180" y="1680" width="70" height="40" as="geometry" />
        </mxCell>
        <mxCell id="FJRzQ0SDMOUs9rcgQZn3-194" value="POINT" style="rounded=0;whiteSpace=wrap;html=1;fillColor=none;" vertex="1" parent="1">
          <mxGeometry x="250" y="1680" width="70" height="40" as="geometry" />
        </mxCell>
        <mxCell id="FJRzQ0SDMOUs9rcgQZn3-195" value="DONE" style="text;html=1;align=center;verticalAlign=middle;resizable=0;points=[];autosize=1;strokeColor=none;fillColor=none;fontStyle=1" vertex="1" parent="1">
          <mxGeometry x="170" y="1770" width="60" height="30" as="geometry" />
        </mxCell>
        <mxCell id="FJRzQ0SDMOUs9rcgQZn3-196" value="&lt;b&gt;SET&lt;/b&gt;" style="text;html=1;align=center;verticalAlign=middle;resizable=0;points=[];autosize=1;strokeColor=none;fillColor=none;" vertex="1" parent="1">
          <mxGeometry x="-250" y="1700" width="50" height="30" as="geometry" />
        </mxCell>
        <mxCell id="FJRzQ0SDMOUs9rcgQZn3-197" value="&lt;b&gt;TEMP_AUTO_0&lt;/b&gt;" style="text;html=1;align=center;verticalAlign=middle;resizable=0;points=[];autosize=1;strokeColor=none;fillColor=none;" vertex="1" parent="1">
          <mxGeometry x="-108" y="1700" width="110" height="30" as="geometry" />
        </mxCell>
        <mxCell id="FJRzQ0SDMOUs9rcgQZn3-198" value="&lt;div style=&quot;color: #f7f1ff;background-color: #222222;font-family: Consolas, &#39;Courier New&#39;, monospace;font-weight: normal;font-size: 16px;line-height: 22px;white-space: pre;&quot;&gt;&lt;div style=&quot;line-height: 22px;&quot;&gt;&lt;div style=&quot;line-height: 22px;&quot;&gt;&lt;div style=&quot;line-height: 22px;&quot;&gt;&lt;div style=&quot;line-height: 22px;&quot;&gt;&lt;div style=&quot;line-height: 22px;&quot;&gt;&lt;div style=&quot;line-height: 22px;&quot;&gt;&lt;div style=&quot;line-height: 22px;&quot;&gt;&lt;div style=&quot;line-height: 22px;&quot;&gt;&lt;span style=&quot;color: #8b888f;&quot;&gt;&quot;&lt;/span&gt;&lt;span style=&quot;color: #fce566;&quot;&gt;temp_auto_1&lt;/span&gt;&lt;span style=&quot;color: #8b888f;&quot;&gt;&quot;&lt;/span&gt;&lt;span style=&quot;color: #8b888f;&quot;&gt;,&lt;/span&gt; &lt;span style=&quot;color: #7bd88f;&quot;&gt;Cmd_temp_auto_1&lt;/span&gt;&lt;/div&gt;&lt;/div&gt;&lt;/div&gt;&lt;/div&gt;&lt;/div&gt;&lt;/div&gt;&lt;/div&gt;&lt;/div&gt;&lt;/div&gt;" style="text;whiteSpace=wrap;html=1;" vertex="1" parent="1">
          <mxGeometry x="416" y="1867" width="150" height="36" as="geometry" />
        </mxCell>
        <mxCell id="FJRzQ0SDMOUs9rcgQZn3-199" value="Min ID: 0x20" style="rounded=0;whiteSpace=wrap;html=1;fillColor=#fff2cc;strokeColor=#d6b656;" vertex="1" parent="1">
          <mxGeometry x="-240" y="1830" width="140" height="40" as="geometry" />
        </mxCell>
        <mxCell id="FJRzQ0SDMOUs9rcgQZn3-200" value="CMD Code: 0x0B" style="rounded=0;whiteSpace=wrap;html=1;fillColor=none;" vertex="1" parent="1">
          <mxGeometry x="-100" y="1830" width="140" height="40" as="geometry" />
        </mxCell>
        <mxCell id="FJRzQ0SDMOUs9rcgQZn3-201" value="Min ID: 0x3F" style="rounded=0;whiteSpace=wrap;html=1;fillColor=none;" vertex="1" parent="1">
          <mxGeometry x="180" y="1900" width="140" height="40" as="geometry" />
        </mxCell>
        <mxCell id="FJRzQ0SDMOUs9rcgQZn3-202" value="AUTO" style="rounded=0;whiteSpace=wrap;html=1;fillColor=none;" vertex="1" parent="1">
          <mxGeometry x="40" y="1830" width="70" height="40" as="geometry" />
        </mxCell>
        <mxCell id="FJRzQ0SDMOUs9rcgQZn3-203" value="" style="html=1;points=[[0,0,0,0,5],[0,1,0,0,-5],[1,0,0,0,5],[1,1,0,0,-5]];perimeter=orthogonalPerimeter;outlineConnect=0;targetShapes=umlLifeline;portConstraint=eastwest;newEdgeStyle={&quot;curved&quot;:0,&quot;rounded&quot;:0};" vertex="1" parent="1">
          <mxGeometry x="406" y="1845" width="10" height="80" as="geometry" />
        </mxCell>
        <mxCell id="FJRzQ0SDMOUs9rcgQZn3-204" value="Call" style="html=1;verticalAlign=bottom;endArrow=block;curved=0;rounded=0;" edge="1" parent="1" target="FJRzQ0SDMOUs9rcgQZn3-203">
          <mxGeometry relative="1" as="geometry">
            <mxPoint x="321" y="1850" as="sourcePoint" />
          </mxGeometry>
        </mxCell>
        <mxCell id="FJRzQ0SDMOUs9rcgQZn3-205" value="return" style="html=1;verticalAlign=bottom;endArrow=open;dashed=1;endSize=8;curved=0;rounded=0;exitX=1;exitY=1;exitDx=0;exitDy=-5;" edge="1" parent="1" source="FJRzQ0SDMOUs9rcgQZn3-203">
          <mxGeometry relative="1" as="geometry">
            <mxPoint x="321" y="1920" as="targetPoint" />
          </mxGeometry>
        </mxCell>
        <mxCell id="FJRzQ0SDMOUs9rcgQZn3-206" value="VOL" style="rounded=0;whiteSpace=wrap;html=1;fillColor=none;" vertex="1" parent="1">
          <mxGeometry x="110" y="1830" width="70" height="40" as="geometry" />
        </mxCell>
        <mxCell id="FJRzQ0SDMOUs9rcgQZn3-207" value="DUTY" style="rounded=0;whiteSpace=wrap;html=1;fillColor=none;" vertex="1" parent="1">
          <mxGeometry x="180" y="1830" width="70" height="40" as="geometry" />
        </mxCell>
        <mxCell id="FJRzQ0SDMOUs9rcgQZn3-208" value="POINT" style="rounded=0;whiteSpace=wrap;html=1;fillColor=none;" vertex="1" parent="1">
          <mxGeometry x="250" y="1830" width="70" height="40" as="geometry" />
        </mxCell>
        <mxCell id="FJRzQ0SDMOUs9rcgQZn3-209" value="DONE" style="text;html=1;align=center;verticalAlign=middle;resizable=0;points=[];autosize=1;strokeColor=none;fillColor=none;fontStyle=1" vertex="1" parent="1">
          <mxGeometry x="170" y="1920" width="60" height="30" as="geometry" />
        </mxCell>
        <mxCell id="FJRzQ0SDMOUs9rcgQZn3-210" value="&lt;b&gt;SET&lt;/b&gt;" style="text;html=1;align=center;verticalAlign=middle;resizable=0;points=[];autosize=1;strokeColor=none;fillColor=none;" vertex="1" parent="1">
          <mxGeometry x="-250" y="1850" width="50" height="30" as="geometry" />
        </mxCell>
        <mxCell id="FJRzQ0SDMOUs9rcgQZn3-211" value="&lt;b&gt;TEMP_AUTO_1&lt;/b&gt;" style="text;html=1;align=center;verticalAlign=middle;resizable=0;points=[];autosize=1;strokeColor=none;fillColor=none;" vertex="1" parent="1">
          <mxGeometry x="-108" y="1850" width="110" height="30" as="geometry" />
        </mxCell>
        <mxCell id="FJRzQ0SDMOUs9rcgQZn3-212" value="&lt;div style=&quot;color: #f7f1ff;background-color: #222222;font-family: Consolas, &#39;Courier New&#39;, monospace;font-weight: normal;font-size: 16px;line-height: 22px;white-space: pre;&quot;&gt;&lt;div style=&quot;line-height: 22px;&quot;&gt;&lt;div style=&quot;line-height: 22px;&quot;&gt;&lt;div style=&quot;line-height: 22px;&quot;&gt;&lt;div style=&quot;line-height: 22px;&quot;&gt;&lt;div style=&quot;line-height: 22px;&quot;&gt;&lt;div style=&quot;line-height: 22px;&quot;&gt;&lt;div style=&quot;line-height: 22px;&quot;&gt;&lt;div style=&quot;line-height: 22px;&quot;&gt;&lt;span style=&quot;color: #8b888f;&quot;&gt;&quot;&lt;/span&gt;&lt;span style=&quot;color: #fce566;&quot;&gt;temp_auto_2&lt;/span&gt;&lt;span style=&quot;color: #8b888f;&quot;&gt;&quot;&lt;/span&gt;&lt;span style=&quot;color: #8b888f;&quot;&gt;,&lt;/span&gt; &lt;span style=&quot;color: #7bd88f;&quot;&gt;Cmd_temp_auto_2&lt;/span&gt;&lt;/div&gt;&lt;/div&gt;&lt;/div&gt;&lt;/div&gt;&lt;/div&gt;&lt;/div&gt;&lt;/div&gt;&lt;/div&gt;&lt;/div&gt;" style="text;whiteSpace=wrap;html=1;" vertex="1" parent="1">
          <mxGeometry x="416" y="2017" width="150" height="36" as="geometry" />
        </mxCell>
        <mxCell id="FJRzQ0SDMOUs9rcgQZn3-213" value="Min ID: 0x20" style="rounded=0;whiteSpace=wrap;html=1;fillColor=#fff2cc;strokeColor=#d6b656;" vertex="1" parent="1">
          <mxGeometry x="-240" y="1980" width="140" height="40" as="geometry" />
        </mxCell>
        <mxCell id="FJRzQ0SDMOUs9rcgQZn3-214" value="CMD Code: 0x0C" style="rounded=0;whiteSpace=wrap;html=1;fillColor=none;" vertex="1" parent="1">
          <mxGeometry x="-100" y="1980" width="140" height="40" as="geometry" />
        </mxCell>
        <mxCell id="FJRzQ0SDMOUs9rcgQZn3-215" value="Min ID: 0x3F" style="rounded=0;whiteSpace=wrap;html=1;fillColor=none;" vertex="1" parent="1">
          <mxGeometry x="180" y="2050" width="140" height="40" as="geometry" />
        </mxCell>
        <mxCell id="FJRzQ0SDMOUs9rcgQZn3-216" value="AUTO" style="rounded=0;whiteSpace=wrap;html=1;fillColor=none;" vertex="1" parent="1">
          <mxGeometry x="40" y="1980" width="70" height="40" as="geometry" />
        </mxCell>
        <mxCell id="FJRzQ0SDMOUs9rcgQZn3-217" value="" style="html=1;points=[[0,0,0,0,5],[0,1,0,0,-5],[1,0,0,0,5],[1,1,0,0,-5]];perimeter=orthogonalPerimeter;outlineConnect=0;targetShapes=umlLifeline;portConstraint=eastwest;newEdgeStyle={&quot;curved&quot;:0,&quot;rounded&quot;:0};" vertex="1" parent="1">
          <mxGeometry x="406" y="1995" width="10" height="80" as="geometry" />
        </mxCell>
        <mxCell id="FJRzQ0SDMOUs9rcgQZn3-218" value="Call" style="html=1;verticalAlign=bottom;endArrow=block;curved=0;rounded=0;" edge="1" parent="1" target="FJRzQ0SDMOUs9rcgQZn3-217">
          <mxGeometry relative="1" as="geometry">
            <mxPoint x="321" y="2000" as="sourcePoint" />
          </mxGeometry>
        </mxCell>
        <mxCell id="FJRzQ0SDMOUs9rcgQZn3-219" value="return" style="html=1;verticalAlign=bottom;endArrow=open;dashed=1;endSize=8;curved=0;rounded=0;exitX=1;exitY=1;exitDx=0;exitDy=-5;" edge="1" parent="1" source="FJRzQ0SDMOUs9rcgQZn3-217">
          <mxGeometry relative="1" as="geometry">
            <mxPoint x="321" y="2070" as="targetPoint" />
          </mxGeometry>
        </mxCell>
        <mxCell id="FJRzQ0SDMOUs9rcgQZn3-220" value="VOL" style="rounded=0;whiteSpace=wrap;html=1;fillColor=none;" vertex="1" parent="1">
          <mxGeometry x="110" y="1980" width="70" height="40" as="geometry" />
        </mxCell>
        <mxCell id="FJRzQ0SDMOUs9rcgQZn3-221" value="DUTY" style="rounded=0;whiteSpace=wrap;html=1;fillColor=none;" vertex="1" parent="1">
          <mxGeometry x="180" y="1980" width="70" height="40" as="geometry" />
        </mxCell>
        <mxCell id="FJRzQ0SDMOUs9rcgQZn3-222" value="POINT" style="rounded=0;whiteSpace=wrap;html=1;fillColor=none;" vertex="1" parent="1">
          <mxGeometry x="250" y="1980" width="70" height="40" as="geometry" />
        </mxCell>
        <mxCell id="FJRzQ0SDMOUs9rcgQZn3-223" value="DONE" style="text;html=1;align=center;verticalAlign=middle;resizable=0;points=[];autosize=1;strokeColor=none;fillColor=none;fontStyle=1" vertex="1" parent="1">
          <mxGeometry x="170" y="2070" width="60" height="30" as="geometry" />
        </mxCell>
        <mxCell id="FJRzQ0SDMOUs9rcgQZn3-224" value="&lt;b&gt;SET&lt;/b&gt;" style="text;html=1;align=center;verticalAlign=middle;resizable=0;points=[];autosize=1;strokeColor=none;fillColor=none;" vertex="1" parent="1">
          <mxGeometry x="-250" y="2000" width="50" height="30" as="geometry" />
        </mxCell>
        <mxCell id="FJRzQ0SDMOUs9rcgQZn3-225" value="&lt;b&gt;TEMP_AUTO_2&lt;/b&gt;" style="text;html=1;align=center;verticalAlign=middle;resizable=0;points=[];autosize=1;strokeColor=none;fillColor=none;" vertex="1" parent="1">
          <mxGeometry x="-108" y="2000" width="110" height="30" as="geometry" />
        </mxCell>
        <mxCell id="FJRzQ0SDMOUs9rcgQZn3-226" value="&lt;div style=&quot;color: #f7f1ff;background-color: #222222;font-family: Consolas, &#39;Courier New&#39;, monospace;font-weight: normal;font-size: 16px;line-height: 22px;white-space: pre;&quot;&gt;&lt;div style=&quot;line-height: 22px;&quot;&gt;&lt;div style=&quot;line-height: 22px;&quot;&gt;&lt;div style=&quot;line-height: 22px;&quot;&gt;&lt;div style=&quot;line-height: 22px;&quot;&gt;&lt;div style=&quot;line-height: 22px;&quot;&gt;&lt;div style=&quot;line-height: 22px;&quot;&gt;&lt;div style=&quot;line-height: 22px;&quot;&gt;&lt;div style=&quot;line-height: 22px;&quot;&gt;&lt;span style=&quot;color: #8b888f;&quot;&gt;&quot;&lt;/span&gt;&lt;span style=&quot;color: #fce566;&quot;&gt;temp_auto_3&lt;/span&gt;&lt;span style=&quot;color: #8b888f;&quot;&gt;&quot;&lt;/span&gt;&lt;span style=&quot;color: #8b888f;&quot;&gt;,&lt;/span&gt; &lt;span style=&quot;color: #7bd88f;&quot;&gt;Cmd_temp_auto_3&lt;/span&gt;&lt;/div&gt;&lt;/div&gt;&lt;/div&gt;&lt;/div&gt;&lt;/div&gt;&lt;/div&gt;&lt;/div&gt;&lt;/div&gt;&lt;/div&gt;" style="text;whiteSpace=wrap;html=1;" vertex="1" parent="1">
          <mxGeometry x="416" y="2167" width="150" height="36" as="geometry" />
        </mxCell>
        <mxCell id="FJRzQ0SDMOUs9rcgQZn3-227" value="Min ID: 0x20" style="rounded=0;whiteSpace=wrap;html=1;fillColor=#fff2cc;strokeColor=#d6b656;" vertex="1" parent="1">
          <mxGeometry x="-240" y="2130" width="140" height="40" as="geometry" />
        </mxCell>
        <mxCell id="FJRzQ0SDMOUs9rcgQZn3-228" value="CMD Code: 0x0D" style="rounded=0;whiteSpace=wrap;html=1;fillColor=none;" vertex="1" parent="1">
          <mxGeometry x="-100" y="2130" width="140" height="40" as="geometry" />
        </mxCell>
        <mxCell id="FJRzQ0SDMOUs9rcgQZn3-229" value="Min ID: 0x3F" style="rounded=0;whiteSpace=wrap;html=1;fillColor=none;" vertex="1" parent="1">
          <mxGeometry x="180" y="2200" width="140" height="40" as="geometry" />
        </mxCell>
        <mxCell id="FJRzQ0SDMOUs9rcgQZn3-230" value="AUTO" style="rounded=0;whiteSpace=wrap;html=1;fillColor=none;" vertex="1" parent="1">
          <mxGeometry x="40" y="2130" width="70" height="40" as="geometry" />
        </mxCell>
        <mxCell id="FJRzQ0SDMOUs9rcgQZn3-231" value="" style="html=1;points=[[0,0,0,0,5],[0,1,0,0,-5],[1,0,0,0,5],[1,1,0,0,-5]];perimeter=orthogonalPerimeter;outlineConnect=0;targetShapes=umlLifeline;portConstraint=eastwest;newEdgeStyle={&quot;curved&quot;:0,&quot;rounded&quot;:0};" vertex="1" parent="1">
          <mxGeometry x="406" y="2145" width="10" height="80" as="geometry" />
        </mxCell>
        <mxCell id="FJRzQ0SDMOUs9rcgQZn3-232" value="Call" style="html=1;verticalAlign=bottom;endArrow=block;curved=0;rounded=0;" edge="1" parent="1" target="FJRzQ0SDMOUs9rcgQZn3-231">
          <mxGeometry relative="1" as="geometry">
            <mxPoint x="321" y="2150" as="sourcePoint" />
          </mxGeometry>
        </mxCell>
        <mxCell id="FJRzQ0SDMOUs9rcgQZn3-233" value="return" style="html=1;verticalAlign=bottom;endArrow=open;dashed=1;endSize=8;curved=0;rounded=0;exitX=1;exitY=1;exitDx=0;exitDy=-5;" edge="1" parent="1" source="FJRzQ0SDMOUs9rcgQZn3-231">
          <mxGeometry relative="1" as="geometry">
            <mxPoint x="321" y="2220" as="targetPoint" />
          </mxGeometry>
        </mxCell>
        <mxCell id="FJRzQ0SDMOUs9rcgQZn3-234" value="VOL" style="rounded=0;whiteSpace=wrap;html=1;fillColor=none;" vertex="1" parent="1">
          <mxGeometry x="110" y="2130" width="70" height="40" as="geometry" />
        </mxCell>
        <mxCell id="FJRzQ0SDMOUs9rcgQZn3-235" value="DUTY" style="rounded=0;whiteSpace=wrap;html=1;fillColor=none;" vertex="1" parent="1">
          <mxGeometry x="180" y="2130" width="70" height="40" as="geometry" />
        </mxCell>
        <mxCell id="FJRzQ0SDMOUs9rcgQZn3-236" value="POINT" style="rounded=0;whiteSpace=wrap;html=1;fillColor=none;" vertex="1" parent="1">
          <mxGeometry x="250" y="2130" width="70" height="40" as="geometry" />
        </mxCell>
        <mxCell id="FJRzQ0SDMOUs9rcgQZn3-237" value="DONE" style="text;html=1;align=center;verticalAlign=middle;resizable=0;points=[];autosize=1;strokeColor=none;fillColor=none;fontStyle=1" vertex="1" parent="1">
          <mxGeometry x="170" y="2220" width="60" height="30" as="geometry" />
        </mxCell>
        <mxCell id="FJRzQ0SDMOUs9rcgQZn3-238" value="&lt;b&gt;SET&lt;/b&gt;" style="text;html=1;align=center;verticalAlign=middle;resizable=0;points=[];autosize=1;strokeColor=none;fillColor=none;" vertex="1" parent="1">
          <mxGeometry x="-250" y="2150" width="50" height="30" as="geometry" />
        </mxCell>
        <mxCell id="FJRzQ0SDMOUs9rcgQZn3-239" value="&lt;b&gt;TEMP_AUTO_3&lt;/b&gt;" style="text;html=1;align=center;verticalAlign=middle;resizable=0;points=[];autosize=1;strokeColor=none;fillColor=none;" vertex="1" parent="1">
          <mxGeometry x="-108" y="2150" width="110" height="30" as="geometry" />
        </mxCell>
        <mxCell id="FJRzQ0SDMOUs9rcgQZn3-240" value="&lt;div style=&quot;color: #f7f1ff;background-color: #222222;font-family: Consolas, &#39;Courier New&#39;, monospace;font-weight: normal;font-size: 16px;line-height: 22px;white-space: pre;&quot;&gt;&lt;div style=&quot;line-height: 22px;&quot;&gt;&lt;div style=&quot;line-height: 22px;&quot;&gt;&lt;div style=&quot;line-height: 22px;&quot;&gt;&lt;div style=&quot;line-height: 22px;&quot;&gt;&lt;div style=&quot;line-height: 22px;&quot;&gt;&lt;div style=&quot;line-height: 22px;&quot;&gt;&lt;div style=&quot;line-height: 22px;&quot;&gt;&lt;div style=&quot;line-height: 22px;&quot;&gt;&lt;div style=&quot;line-height: 22px;&quot;&gt;&lt;span style=&quot;color: #8b888f;&quot;&gt;&quot;&lt;/span&gt;&lt;span style=&quot;color: #fce566;&quot;&gt;ir_duty&lt;/span&gt;&lt;span style=&quot;color: #8b888f;&quot;&gt;&quot;&lt;/span&gt;&lt;span style=&quot;color: #8b888f;&quot;&gt;,&lt;/span&gt; &lt;span style=&quot;color: #7bd88f;&quot;&gt;Cmd_ir_set_duty&lt;/span&gt;&lt;/div&gt;&lt;/div&gt;&lt;/div&gt;&lt;/div&gt;&lt;/div&gt;&lt;/div&gt;&lt;/div&gt;&lt;/div&gt;&lt;/div&gt;&lt;/div&gt;" style="text;whiteSpace=wrap;html=1;" vertex="1" parent="1">
          <mxGeometry x="206" y="2317" width="150" height="36" as="geometry" />
        </mxCell>
        <mxCell id="FJRzQ0SDMOUs9rcgQZn3-241" value="Min ID: 0x20" style="rounded=0;whiteSpace=wrap;html=1;fillColor=#fff2cc;strokeColor=#d6b656;" vertex="1" parent="1">
          <mxGeometry x="-240" y="2280" width="140" height="40" as="geometry" />
        </mxCell>
        <mxCell id="FJRzQ0SDMOUs9rcgQZn3-242" value="CMD Code: 0x09" style="rounded=0;whiteSpace=wrap;html=1;fillColor=none;" vertex="1" parent="1">
          <mxGeometry x="-100" y="2280" width="140" height="40" as="geometry" />
        </mxCell>
        <mxCell id="FJRzQ0SDMOUs9rcgQZn3-243" value="Min ID: 0x3F" style="rounded=0;whiteSpace=wrap;html=1;fillColor=none;" vertex="1" parent="1">
          <mxGeometry x="-30" y="2350" width="140" height="40" as="geometry" />
        </mxCell>
        <mxCell id="FJRzQ0SDMOUs9rcgQZn3-244" value="DUTY" style="rounded=0;whiteSpace=wrap;html=1;fillColor=none;" vertex="1" parent="1">
          <mxGeometry x="40" y="2280" width="70" height="40" as="geometry" />
        </mxCell>
        <mxCell id="FJRzQ0SDMOUs9rcgQZn3-245" value="" style="html=1;points=[[0,0,0,0,5],[0,1,0,0,-5],[1,0,0,0,5],[1,1,0,0,-5]];perimeter=orthogonalPerimeter;outlineConnect=0;targetShapes=umlLifeline;portConstraint=eastwest;newEdgeStyle={&quot;curved&quot;:0,&quot;rounded&quot;:0};" vertex="1" parent="1">
          <mxGeometry x="196" y="2295" width="10" height="80" as="geometry" />
        </mxCell>
        <mxCell id="FJRzQ0SDMOUs9rcgQZn3-246" value="Call" style="html=1;verticalAlign=bottom;endArrow=block;curved=0;rounded=0;" edge="1" parent="1" target="FJRzQ0SDMOUs9rcgQZn3-245">
          <mxGeometry relative="1" as="geometry">
            <mxPoint x="111" y="2300" as="sourcePoint" />
          </mxGeometry>
        </mxCell>
        <mxCell id="FJRzQ0SDMOUs9rcgQZn3-247" value="return" style="html=1;verticalAlign=bottom;endArrow=open;dashed=1;endSize=8;curved=0;rounded=0;exitX=1;exitY=1;exitDx=0;exitDy=-5;" edge="1" parent="1" source="FJRzQ0SDMOUs9rcgQZn3-245">
          <mxGeometry relative="1" as="geometry">
            <mxPoint x="111" y="2370" as="targetPoint" />
          </mxGeometry>
        </mxCell>
        <mxCell id="FJRzQ0SDMOUs9rcgQZn3-251" value="DONE" style="text;html=1;align=center;verticalAlign=middle;resizable=0;points=[];autosize=1;strokeColor=none;fillColor=none;fontStyle=1" vertex="1" parent="1">
          <mxGeometry x="-40" y="2370" width="60" height="30" as="geometry" />
        </mxCell>
        <mxCell id="FJRzQ0SDMOUs9rcgQZn3-252" value="&lt;b&gt;SET&lt;/b&gt;" style="text;html=1;align=center;verticalAlign=middle;resizable=0;points=[];autosize=1;strokeColor=none;fillColor=none;" vertex="1" parent="1">
          <mxGeometry x="-250" y="2300" width="50" height="30" as="geometry" />
        </mxCell>
        <mxCell id="FJRzQ0SDMOUs9rcgQZn3-253" value="&lt;b&gt;IR_DUTY&lt;/b&gt;" style="text;html=1;align=center;verticalAlign=middle;resizable=0;points=[];autosize=1;strokeColor=none;fillColor=none;" vertex="1" parent="1">
          <mxGeometry x="-103" y="2300" width="70" height="30" as="geometry" />
        </mxCell>
        <mxCell id="FJRzQ0SDMOUs9rcgQZn3-254" value="&lt;div style=&quot;color: #f7f1ff;background-color: #222222;font-family: Consolas, &#39;Courier New&#39;, monospace;font-weight: normal;font-size: 16px;line-height: 22px;white-space: pre;&quot;&gt;&lt;div style=&quot;line-height: 22px;&quot;&gt;&lt;div style=&quot;line-height: 22px;&quot;&gt;&lt;div style=&quot;line-height: 22px;&quot;&gt;&lt;div style=&quot;line-height: 22px;&quot;&gt;&lt;div style=&quot;line-height: 22px;&quot;&gt;&lt;div style=&quot;line-height: 22px;&quot;&gt;&lt;div style=&quot;line-height: 22px;&quot;&gt;&lt;div style=&quot;line-height: 22px;&quot;&gt;&lt;div style=&quot;line-height: 22px;&quot;&gt;&lt;span style=&quot;color: #8b888f;&quot;&gt;&quot;&lt;/span&gt;&lt;span style=&quot;color: #fce566;&quot;&gt;int_ls_dac&lt;/span&gt;&lt;span style=&quot;color: #8b888f;&quot;&gt;&quot;&lt;/span&gt;&lt;span style=&quot;color: #8b888f;&quot;&gt;,&lt;/span&gt; &lt;span style=&quot;color: #7bd88f;&quot;&gt;Cmd_int_ls_dac&lt;/span&gt;&lt;/div&gt;&lt;/div&gt;&lt;/div&gt;&lt;/div&gt;&lt;/div&gt;&lt;/div&gt;&lt;/div&gt;&lt;/div&gt;&lt;/div&gt;&lt;/div&gt;" style="text;whiteSpace=wrap;html=1;" vertex="1" parent="1">
          <mxGeometry x="206" y="2467" width="150" height="36" as="geometry" />
        </mxCell>
        <mxCell id="FJRzQ0SDMOUs9rcgQZn3-255" value="Min ID: 0x20" style="rounded=0;whiteSpace=wrap;html=1;fillColor=#fff2cc;strokeColor=#d6b656;" vertex="1" parent="1">
          <mxGeometry x="-240" y="2430" width="140" height="40" as="geometry" />
        </mxCell>
        <mxCell id="FJRzQ0SDMOUs9rcgQZn3-256" value="CMD Code: 0xE" style="rounded=0;whiteSpace=wrap;html=1;fillColor=none;" vertex="1" parent="1">
          <mxGeometry x="-100" y="2430" width="140" height="40" as="geometry" />
        </mxCell>
        <mxCell id="FJRzQ0SDMOUs9rcgQZn3-257" value="Min ID: 0x3F" style="rounded=0;whiteSpace=wrap;html=1;fillColor=none;" vertex="1" parent="1">
          <mxGeometry x="-30" y="2500" width="140" height="40" as="geometry" />
        </mxCell>
        <mxCell id="FJRzQ0SDMOUs9rcgQZn3-258" value="VALUE" style="rounded=0;whiteSpace=wrap;html=1;fillColor=none;" vertex="1" parent="1">
          <mxGeometry x="40" y="2430" width="70" height="40" as="geometry" />
        </mxCell>
        <mxCell id="FJRzQ0SDMOUs9rcgQZn3-259" value="" style="html=1;points=[[0,0,0,0,5],[0,1,0,0,-5],[1,0,0,0,5],[1,1,0,0,-5]];perimeter=orthogonalPerimeter;outlineConnect=0;targetShapes=umlLifeline;portConstraint=eastwest;newEdgeStyle={&quot;curved&quot;:0,&quot;rounded&quot;:0};" vertex="1" parent="1">
          <mxGeometry x="196" y="2445" width="10" height="80" as="geometry" />
        </mxCell>
        <mxCell id="FJRzQ0SDMOUs9rcgQZn3-260" value="Call" style="html=1;verticalAlign=bottom;endArrow=block;curved=0;rounded=0;" edge="1" parent="1" target="FJRzQ0SDMOUs9rcgQZn3-259">
          <mxGeometry relative="1" as="geometry">
            <mxPoint x="111" y="2450" as="sourcePoint" />
          </mxGeometry>
        </mxCell>
        <mxCell id="FJRzQ0SDMOUs9rcgQZn3-261" value="return" style="html=1;verticalAlign=bottom;endArrow=open;dashed=1;endSize=8;curved=0;rounded=0;exitX=1;exitY=1;exitDx=0;exitDy=-5;" edge="1" parent="1" source="FJRzQ0SDMOUs9rcgQZn3-259">
          <mxGeometry relative="1" as="geometry">
            <mxPoint x="111" y="2520" as="targetPoint" />
          </mxGeometry>
        </mxCell>
        <mxCell id="FJRzQ0SDMOUs9rcgQZn3-262" value="DONE" style="text;html=1;align=center;verticalAlign=middle;resizable=0;points=[];autosize=1;strokeColor=none;fillColor=none;fontStyle=1" vertex="1" parent="1">
          <mxGeometry x="-40" y="2520" width="60" height="30" as="geometry" />
        </mxCell>
        <mxCell id="FJRzQ0SDMOUs9rcgQZn3-263" value="&lt;b&gt;SET&lt;/b&gt;" style="text;html=1;align=center;verticalAlign=middle;resizable=0;points=[];autosize=1;strokeColor=none;fillColor=none;" vertex="1" parent="1">
          <mxGeometry x="-250" y="2450" width="50" height="30" as="geometry" />
        </mxCell>
        <mxCell id="FJRzQ0SDMOUs9rcgQZn3-264" value="&lt;b&gt;INT_LS_DAC&lt;/b&gt;" style="text;html=1;align=center;verticalAlign=middle;resizable=0;points=[];autosize=1;strokeColor=none;fillColor=none;" vertex="1" parent="1">
          <mxGeometry x="-111" y="2450" width="100" height="30" as="geometry" />
        </mxCell>
        <mxCell id="FJRzQ0SDMOUs9rcgQZn3-265" value="&lt;div style=&quot;color: #f7f1ff;background-color: #222222;font-family: Consolas, &#39;Courier New&#39;, monospace;font-weight: normal;font-size: 16px;line-height: 22px;white-space: pre;&quot;&gt;&lt;div style=&quot;line-height: 22px;&quot;&gt;&lt;div style=&quot;line-height: 22px;&quot;&gt;&lt;div style=&quot;line-height: 22px;&quot;&gt;&lt;div style=&quot;line-height: 22px;&quot;&gt;&lt;div style=&quot;line-height: 22px;&quot;&gt;&lt;div style=&quot;line-height: 22px;&quot;&gt;&lt;div style=&quot;line-height: 22px;&quot;&gt;&lt;div style=&quot;line-height: 22px;&quot;&gt;&lt;div style=&quot;line-height: 22px;&quot;&gt;&lt;div style=&quot;line-height: 22px;&quot;&gt;&lt;span style=&quot;color: #8b888f;&quot;&gt;&quot;&lt;/span&gt;&lt;span style=&quot;color: #fce566;&quot;&gt;int_ls_set&lt;/span&gt;&lt;span style=&quot;color: #8b888f;&quot;&gt;&quot;&lt;/span&gt;&lt;span style=&quot;color: #8b888f;&quot;&gt;,&lt;/span&gt; &lt;span style=&quot;color: #7bd88f;&quot;&gt;Cmd_int_ls_set&lt;/span&gt;&lt;/div&gt;&lt;/div&gt;&lt;/div&gt;&lt;/div&gt;&lt;/div&gt;&lt;/div&gt;&lt;/div&gt;&lt;/div&gt;&lt;/div&gt;&lt;/div&gt;&lt;/div&gt;" style="text;whiteSpace=wrap;html=1;" vertex="1" parent="1">
          <mxGeometry x="206" y="2617" width="150" height="36" as="geometry" />
        </mxCell>
        <mxCell id="FJRzQ0SDMOUs9rcgQZn3-266" value="Min ID: 0x20" style="rounded=0;whiteSpace=wrap;html=1;fillColor=#fff2cc;strokeColor=#d6b656;" vertex="1" parent="1">
          <mxGeometry x="-240" y="2580" width="140" height="40" as="geometry" />
        </mxCell>
        <mxCell id="FJRzQ0SDMOUs9rcgQZn3-267" value="CMD Code: 0x0F" style="rounded=0;whiteSpace=wrap;html=1;fillColor=none;" vertex="1" parent="1">
          <mxGeometry x="-100" y="2580" width="140" height="40" as="geometry" />
        </mxCell>
        <mxCell id="FJRzQ0SDMOUs9rcgQZn3-268" value="Min ID: 0x3F" style="rounded=0;whiteSpace=wrap;html=1;fillColor=none;" vertex="1" parent="1">
          <mxGeometry x="-30" y="2650" width="140" height="40" as="geometry" />
        </mxCell>
        <mxCell id="FJRzQ0SDMOUs9rcgQZn3-269" value="VALUE" style="rounded=0;whiteSpace=wrap;html=1;fillColor=none;" vertex="1" parent="1">
          <mxGeometry x="40" y="2580" width="70" height="40" as="geometry" />
        </mxCell>
        <mxCell id="FJRzQ0SDMOUs9rcgQZn3-270" value="" style="html=1;points=[[0,0,0,0,5],[0,1,0,0,-5],[1,0,0,0,5],[1,1,0,0,-5]];perimeter=orthogonalPerimeter;outlineConnect=0;targetShapes=umlLifeline;portConstraint=eastwest;newEdgeStyle={&quot;curved&quot;:0,&quot;rounded&quot;:0};" vertex="1" parent="1">
          <mxGeometry x="196" y="2595" width="10" height="80" as="geometry" />
        </mxCell>
        <mxCell id="FJRzQ0SDMOUs9rcgQZn3-271" value="Call" style="html=1;verticalAlign=bottom;endArrow=block;curved=0;rounded=0;" edge="1" parent="1" target="FJRzQ0SDMOUs9rcgQZn3-270">
          <mxGeometry relative="1" as="geometry">
            <mxPoint x="111" y="2600" as="sourcePoint" />
          </mxGeometry>
        </mxCell>
        <mxCell id="FJRzQ0SDMOUs9rcgQZn3-272" value="return" style="html=1;verticalAlign=bottom;endArrow=open;dashed=1;endSize=8;curved=0;rounded=0;exitX=1;exitY=1;exitDx=0;exitDy=-5;" edge="1" parent="1" source="FJRzQ0SDMOUs9rcgQZn3-270">
          <mxGeometry relative="1" as="geometry">
            <mxPoint x="111" y="2670" as="targetPoint" />
          </mxGeometry>
        </mxCell>
        <mxCell id="FJRzQ0SDMOUs9rcgQZn3-273" value="DONE" style="text;html=1;align=center;verticalAlign=middle;resizable=0;points=[];autosize=1;strokeColor=none;fillColor=none;fontStyle=1" vertex="1" parent="1">
          <mxGeometry x="-40" y="2670" width="60" height="30" as="geometry" />
        </mxCell>
        <mxCell id="FJRzQ0SDMOUs9rcgQZn3-274" value="&lt;b&gt;SET&lt;/b&gt;" style="text;html=1;align=center;verticalAlign=middle;resizable=0;points=[];autosize=1;strokeColor=none;fillColor=none;" vertex="1" parent="1">
          <mxGeometry x="-250" y="2600" width="50" height="30" as="geometry" />
        </mxCell>
        <mxCell id="FJRzQ0SDMOUs9rcgQZn3-275" value="&lt;b&gt;INT_LS_SET&lt;/b&gt;" style="text;html=1;align=center;verticalAlign=middle;resizable=0;points=[];autosize=1;strokeColor=none;fillColor=none;" vertex="1" parent="1">
          <mxGeometry x="-106" y="2600" width="90" height="30" as="geometry" />
        </mxCell>
        <mxCell id="FJRzQ0SDMOUs9rcgQZn3-276" value="&lt;div style=&quot;color: #f7f1ff;background-color: #222222;font-family: Consolas, &#39;Courier New&#39;, monospace;font-weight: normal;font-size: 16px;line-height: 22px;white-space: pre;&quot;&gt;&lt;div style=&quot;line-height: 22px;&quot;&gt;&lt;div style=&quot;line-height: 22px;&quot;&gt;&lt;div style=&quot;line-height: 22px;&quot;&gt;&lt;div style=&quot;line-height: 22px;&quot;&gt;&lt;div style=&quot;line-height: 22px;&quot;&gt;&lt;div style=&quot;line-height: 22px;&quot;&gt;&lt;div style=&quot;line-height: 22px;&quot;&gt;&lt;div style=&quot;line-height: 22px;&quot;&gt;&lt;div style=&quot;line-height: 22px;&quot;&gt;&lt;div style=&quot;line-height: 22px;&quot;&gt;&lt;div style=&quot;line-height: 22px;&quot;&gt;&lt;span style=&quot;color: #8b888f;&quot;&gt;&quot;&lt;/span&gt;&lt;span style=&quot;color: #fce566;&quot;&gt;int_ls_auto&lt;/span&gt;&lt;span style=&quot;color: #8b888f;&quot;&gt;&quot;&lt;/span&gt;&lt;span style=&quot;color: #8b888f;&quot;&gt;,&lt;/span&gt; &lt;span style=&quot;color: #7bd88f;&quot;&gt;Cmd_int_ls_auto&lt;/span&gt;&lt;/div&gt;&lt;/div&gt;&lt;/div&gt;&lt;/div&gt;&lt;/div&gt;&lt;/div&gt;&lt;/div&gt;&lt;/div&gt;&lt;/div&gt;&lt;/div&gt;&lt;/div&gt;&lt;/div&gt;" style="text;whiteSpace=wrap;html=1;" vertex="1" parent="1">
          <mxGeometry x="346" y="2767" width="150" height="36" as="geometry" />
        </mxCell>
        <mxCell id="FJRzQ0SDMOUs9rcgQZn3-277" value="Min ID: 0x20" style="rounded=0;whiteSpace=wrap;html=1;fillColor=#fff2cc;strokeColor=#d6b656;" vertex="1" parent="1">
          <mxGeometry x="-240" y="2730" width="140" height="40" as="geometry" />
        </mxCell>
        <mxCell id="FJRzQ0SDMOUs9rcgQZn3-278" value="CMD Code: 0x10" style="rounded=0;whiteSpace=wrap;html=1;fillColor=none;" vertex="1" parent="1">
          <mxGeometry x="-100" y="2730" width="140" height="40" as="geometry" />
        </mxCell>
        <mxCell id="FJRzQ0SDMOUs9rcgQZn3-279" value="Min ID: 0x3F" style="rounded=0;whiteSpace=wrap;html=1;fillColor=none;" vertex="1" parent="1">
          <mxGeometry x="110" y="2800" width="140" height="40" as="geometry" />
        </mxCell>
        <mxCell id="FJRzQ0SDMOUs9rcgQZn3-280" value="INTERVAL" style="rounded=0;whiteSpace=wrap;html=1;fillColor=none;" vertex="1" parent="1">
          <mxGeometry x="40" y="2730" width="70" height="40" as="geometry" />
        </mxCell>
        <mxCell id="FJRzQ0SDMOUs9rcgQZn3-281" value="" style="html=1;points=[[0,0,0,0,5],[0,1,0,0,-5],[1,0,0,0,5],[1,1,0,0,-5]];perimeter=orthogonalPerimeter;outlineConnect=0;targetShapes=umlLifeline;portConstraint=eastwest;newEdgeStyle={&quot;curved&quot;:0,&quot;rounded&quot;:0};" vertex="1" parent="1">
          <mxGeometry x="336" y="2745" width="10" height="80" as="geometry" />
        </mxCell>
        <mxCell id="FJRzQ0SDMOUs9rcgQZn3-282" value="Call" style="html=1;verticalAlign=bottom;endArrow=block;curved=0;rounded=0;" edge="1" parent="1" target="FJRzQ0SDMOUs9rcgQZn3-281">
          <mxGeometry relative="1" as="geometry">
            <mxPoint x="251" y="2750" as="sourcePoint" />
          </mxGeometry>
        </mxCell>
        <mxCell id="FJRzQ0SDMOUs9rcgQZn3-283" value="return" style="html=1;verticalAlign=bottom;endArrow=open;dashed=1;endSize=8;curved=0;rounded=0;exitX=1;exitY=1;exitDx=0;exitDy=-5;" edge="1" parent="1" source="FJRzQ0SDMOUs9rcgQZn3-281">
          <mxGeometry relative="1" as="geometry">
            <mxPoint x="251" y="2820" as="targetPoint" />
          </mxGeometry>
        </mxCell>
        <mxCell id="FJRzQ0SDMOUs9rcgQZn3-284" value="DONE" style="text;html=1;align=center;verticalAlign=middle;resizable=0;points=[];autosize=1;strokeColor=none;fillColor=none;fontStyle=1" vertex="1" parent="1">
          <mxGeometry x="100" y="2820" width="60" height="30" as="geometry" />
        </mxCell>
        <mxCell id="FJRzQ0SDMOUs9rcgQZn3-285" value="&lt;b&gt;SET&lt;/b&gt;" style="text;html=1;align=center;verticalAlign=middle;resizable=0;points=[];autosize=1;strokeColor=none;fillColor=none;" vertex="1" parent="1">
          <mxGeometry x="-250" y="2750" width="50" height="30" as="geometry" />
        </mxCell>
        <mxCell id="FJRzQ0SDMOUs9rcgQZn3-286" value="&lt;b&gt;INT_LS_AUTO&lt;/b&gt;" style="text;html=1;align=center;verticalAlign=middle;resizable=0;points=[];autosize=1;strokeColor=none;fillColor=none;" vertex="1" parent="1">
          <mxGeometry x="-111" y="2750" width="110" height="30" as="geometry" />
        </mxCell>
        <mxCell id="FJRzQ0SDMOUs9rcgQZn3-287" value="CYCLE ADC" style="rounded=0;whiteSpace=wrap;html=1;fillColor=none;" vertex="1" parent="1">
          <mxGeometry x="110" y="2730" width="70" height="40" as="geometry" />
        </mxCell>
        <mxCell id="FJRzQ0SDMOUs9rcgQZn3-288" value="USER&lt;br&gt;DELAY" style="rounded=0;whiteSpace=wrap;html=1;fillColor=none;" vertex="1" parent="1">
          <mxGeometry x="180" y="2730" width="70" height="40" as="geometry" />
        </mxCell>
        <mxCell id="FJRzQ0SDMOUs9rcgQZn3-289" value="&lt;div style=&quot;color: #f7f1ff;background-color: #222222;font-family: Consolas, &#39;Courier New&#39;, monospace;font-weight: normal;font-size: 16px;line-height: 22px;white-space: pre;&quot;&gt;&lt;div style=&quot;line-height: 22px;&quot;&gt;&lt;div style=&quot;line-height: 22px;&quot;&gt;&lt;div style=&quot;line-height: 22px;&quot;&gt;&lt;div style=&quot;line-height: 22px;&quot;&gt;&lt;div style=&quot;line-height: 22px;&quot;&gt;&lt;div style=&quot;line-height: 22px;&quot;&gt;&lt;div style=&quot;line-height: 22px;&quot;&gt;&lt;div style=&quot;line-height: 22px;&quot;&gt;&lt;div style=&quot;line-height: 22px;&quot;&gt;&lt;span style=&quot;color: #8b888f;&quot;&gt;&quot;&lt;/span&gt;&lt;span style=&quot;color: #fce566;&quot;&gt;ext_ls_dac&lt;/span&gt;&lt;span style=&quot;color: #8b888f;&quot;&gt;&quot;&lt;/span&gt;&lt;span style=&quot;color: #8b888f;&quot;&gt;,&lt;/span&gt; &lt;span style=&quot;color: #7bd88f;&quot;&gt;Cmd_ext_ls_dac&lt;/span&gt;&lt;/div&gt;&lt;/div&gt;&lt;/div&gt;&lt;/div&gt;&lt;/div&gt;&lt;/div&gt;&lt;/div&gt;&lt;/div&gt;&lt;/div&gt;&lt;/div&gt;" style="text;whiteSpace=wrap;html=1;" vertex="1" parent="1">
          <mxGeometry x="208" y="2917" width="150" height="36" as="geometry" />
        </mxCell>
        <mxCell id="FJRzQ0SDMOUs9rcgQZn3-290" value="Min ID: 0x20" style="rounded=0;whiteSpace=wrap;html=1;fillColor=#fff2cc;strokeColor=#d6b656;" vertex="1" parent="1">
          <mxGeometry x="-238" y="2880" width="140" height="40" as="geometry" />
        </mxCell>
        <mxCell id="FJRzQ0SDMOUs9rcgQZn3-291" value="CMD Code: 0x11" style="rounded=0;whiteSpace=wrap;html=1;fillColor=none;" vertex="1" parent="1">
          <mxGeometry x="-98" y="2880" width="140" height="40" as="geometry" />
        </mxCell>
        <mxCell id="FJRzQ0SDMOUs9rcgQZn3-292" value="Min ID: 0x3F" style="rounded=0;whiteSpace=wrap;html=1;fillColor=none;" vertex="1" parent="1">
          <mxGeometry x="-28" y="2950" width="140" height="40" as="geometry" />
        </mxCell>
        <mxCell id="FJRzQ0SDMOUs9rcgQZn3-293" value="VALUE" style="rounded=0;whiteSpace=wrap;html=1;fillColor=none;" vertex="1" parent="1">
          <mxGeometry x="42" y="2880" width="70" height="40" as="geometry" />
        </mxCell>
        <mxCell id="FJRzQ0SDMOUs9rcgQZn3-294" value="" style="html=1;points=[[0,0,0,0,5],[0,1,0,0,-5],[1,0,0,0,5],[1,1,0,0,-5]];perimeter=orthogonalPerimeter;outlineConnect=0;targetShapes=umlLifeline;portConstraint=eastwest;newEdgeStyle={&quot;curved&quot;:0,&quot;rounded&quot;:0};" vertex="1" parent="1">
          <mxGeometry x="198" y="2895" width="10" height="80" as="geometry" />
        </mxCell>
        <mxCell id="FJRzQ0SDMOUs9rcgQZn3-295" value="Call" style="html=1;verticalAlign=bottom;endArrow=block;curved=0;rounded=0;" edge="1" parent="1" target="FJRzQ0SDMOUs9rcgQZn3-294">
          <mxGeometry relative="1" as="geometry">
            <mxPoint x="113" y="2900" as="sourcePoint" />
          </mxGeometry>
        </mxCell>
        <mxCell id="FJRzQ0SDMOUs9rcgQZn3-296" value="return" style="html=1;verticalAlign=bottom;endArrow=open;dashed=1;endSize=8;curved=0;rounded=0;exitX=1;exitY=1;exitDx=0;exitDy=-5;" edge="1" parent="1" source="FJRzQ0SDMOUs9rcgQZn3-294">
          <mxGeometry relative="1" as="geometry">
            <mxPoint x="113" y="2970" as="targetPoint" />
          </mxGeometry>
        </mxCell>
        <mxCell id="FJRzQ0SDMOUs9rcgQZn3-297" value="DONE" style="text;html=1;align=center;verticalAlign=middle;resizable=0;points=[];autosize=1;strokeColor=none;fillColor=none;fontStyle=1" vertex="1" parent="1">
          <mxGeometry x="-38" y="2970" width="60" height="30" as="geometry" />
        </mxCell>
        <mxCell id="FJRzQ0SDMOUs9rcgQZn3-298" value="&lt;b&gt;SET&lt;/b&gt;" style="text;html=1;align=center;verticalAlign=middle;resizable=0;points=[];autosize=1;strokeColor=none;fillColor=none;" vertex="1" parent="1">
          <mxGeometry x="-248" y="2900" width="50" height="30" as="geometry" />
        </mxCell>
        <mxCell id="FJRzQ0SDMOUs9rcgQZn3-299" value="&lt;b&gt;EXT_LS_DAC&lt;/b&gt;" style="text;html=1;align=center;verticalAlign=middle;resizable=0;points=[];autosize=1;strokeColor=none;fillColor=none;" vertex="1" parent="1">
          <mxGeometry x="-107" y="2900" width="100" height="30" as="geometry" />
        </mxCell>
        <mxCell id="FJRzQ0SDMOUs9rcgQZn3-300" value="&lt;div style=&quot;color: #f7f1ff;background-color: #222222;font-family: Consolas, &#39;Courier New&#39;, monospace;font-weight: normal;font-size: 16px;line-height: 22px;white-space: pre;&quot;&gt;&lt;div style=&quot;line-height: 22px;&quot;&gt;&lt;div style=&quot;line-height: 22px;&quot;&gt;&lt;div style=&quot;line-height: 22px;&quot;&gt;&lt;div style=&quot;line-height: 22px;&quot;&gt;&lt;div style=&quot;line-height: 22px;&quot;&gt;&lt;div style=&quot;line-height: 22px;&quot;&gt;&lt;div style=&quot;line-height: 22px;&quot;&gt;&lt;div style=&quot;line-height: 22px;&quot;&gt;&lt;div style=&quot;line-height: 22px;&quot;&gt;&lt;div style=&quot;line-height: 22px;&quot;&gt;&lt;span style=&quot;color: #8b888f;&quot;&gt;&quot;&lt;/span&gt;&lt;span style=&quot;color: #fce566;&quot;&gt;ext_ls_set&lt;/span&gt;&lt;span style=&quot;color: #8b888f;&quot;&gt;&quot;&lt;/span&gt;&lt;span style=&quot;color: #8b888f;&quot;&gt;,&lt;/span&gt; &lt;span style=&quot;color: #7bd88f;&quot;&gt;Cmd_ext_ls_set&lt;/span&gt;&lt;/div&gt;&lt;/div&gt;&lt;/div&gt;&lt;/div&gt;&lt;/div&gt;&lt;/div&gt;&lt;/div&gt;&lt;/div&gt;&lt;/div&gt;&lt;/div&gt;&lt;/div&gt;" style="text;whiteSpace=wrap;html=1;" vertex="1" parent="1">
          <mxGeometry x="208" y="3067" width="150" height="36" as="geometry" />
        </mxCell>
        <mxCell id="FJRzQ0SDMOUs9rcgQZn3-301" value="Min ID: 0x20" style="rounded=0;whiteSpace=wrap;html=1;fillColor=#fff2cc;strokeColor=#d6b656;" vertex="1" parent="1">
          <mxGeometry x="-238" y="3030" width="140" height="40" as="geometry" />
        </mxCell>
        <mxCell id="FJRzQ0SDMOUs9rcgQZn3-302" value="CMD Code: 0x12" style="rounded=0;whiteSpace=wrap;html=1;fillColor=none;" vertex="1" parent="1">
          <mxGeometry x="-98" y="3030" width="140" height="40" as="geometry" />
        </mxCell>
        <mxCell id="FJRzQ0SDMOUs9rcgQZn3-303" value="Min ID: 0x3F" style="rounded=0;whiteSpace=wrap;html=1;fillColor=none;" vertex="1" parent="1">
          <mxGeometry x="-28" y="3100" width="140" height="40" as="geometry" />
        </mxCell>
        <mxCell id="FJRzQ0SDMOUs9rcgQZn3-304" value="VALUE" style="rounded=0;whiteSpace=wrap;html=1;fillColor=none;" vertex="1" parent="1">
          <mxGeometry x="42" y="3030" width="70" height="40" as="geometry" />
        </mxCell>
        <mxCell id="FJRzQ0SDMOUs9rcgQZn3-305" value="" style="html=1;points=[[0,0,0,0,5],[0,1,0,0,-5],[1,0,0,0,5],[1,1,0,0,-5]];perimeter=orthogonalPerimeter;outlineConnect=0;targetShapes=umlLifeline;portConstraint=eastwest;newEdgeStyle={&quot;curved&quot;:0,&quot;rounded&quot;:0};" vertex="1" parent="1">
          <mxGeometry x="198" y="3045" width="10" height="80" as="geometry" />
        </mxCell>
        <mxCell id="FJRzQ0SDMOUs9rcgQZn3-306" value="Call" style="html=1;verticalAlign=bottom;endArrow=block;curved=0;rounded=0;" edge="1" parent="1" target="FJRzQ0SDMOUs9rcgQZn3-305">
          <mxGeometry relative="1" as="geometry">
            <mxPoint x="113" y="3050" as="sourcePoint" />
          </mxGeometry>
        </mxCell>
        <mxCell id="FJRzQ0SDMOUs9rcgQZn3-307" value="return" style="html=1;verticalAlign=bottom;endArrow=open;dashed=1;endSize=8;curved=0;rounded=0;exitX=1;exitY=1;exitDx=0;exitDy=-5;" edge="1" parent="1" source="FJRzQ0SDMOUs9rcgQZn3-305">
          <mxGeometry relative="1" as="geometry">
            <mxPoint x="113" y="3120" as="targetPoint" />
          </mxGeometry>
        </mxCell>
        <mxCell id="FJRzQ0SDMOUs9rcgQZn3-308" value="DONE" style="text;html=1;align=center;verticalAlign=middle;resizable=0;points=[];autosize=1;strokeColor=none;fillColor=none;fontStyle=1" vertex="1" parent="1">
          <mxGeometry x="-38" y="3120" width="60" height="30" as="geometry" />
        </mxCell>
        <mxCell id="FJRzQ0SDMOUs9rcgQZn3-309" value="&lt;b&gt;SET&lt;/b&gt;" style="text;html=1;align=center;verticalAlign=middle;resizable=0;points=[];autosize=1;strokeColor=none;fillColor=none;" vertex="1" parent="1">
          <mxGeometry x="-248" y="3050" width="50" height="30" as="geometry" />
        </mxCell>
        <mxCell id="FJRzQ0SDMOUs9rcgQZn3-310" value="&lt;b&gt;EXT_LS_SET&lt;/b&gt;" style="text;html=1;align=center;verticalAlign=middle;resizable=0;points=[];autosize=1;strokeColor=none;fillColor=none;" vertex="1" parent="1">
          <mxGeometry x="-109" y="3050" width="100" height="30" as="geometry" />
        </mxCell>
        <mxCell id="FJRzQ0SDMOUs9rcgQZn3-311" value="&lt;div style=&quot;color: #f7f1ff;background-color: #222222;font-family: Consolas, &#39;Courier New&#39;, monospace;font-weight: normal;font-size: 16px;line-height: 22px;white-space: pre;&quot;&gt;&lt;div style=&quot;line-height: 22px;&quot;&gt;&lt;div style=&quot;line-height: 22px;&quot;&gt;&lt;div style=&quot;line-height: 22px;&quot;&gt;&lt;div style=&quot;line-height: 22px;&quot;&gt;&lt;div style=&quot;line-height: 22px;&quot;&gt;&lt;div style=&quot;line-height: 22px;&quot;&gt;&lt;div style=&quot;line-height: 22px;&quot;&gt;&lt;div style=&quot;line-height: 22px;&quot;&gt;&lt;div style=&quot;line-height: 22px;&quot;&gt;&lt;div style=&quot;line-height: 22px;&quot;&gt;&lt;div style=&quot;line-height: 22px;&quot;&gt;&lt;span style=&quot;color: #8b888f;&quot;&gt;&quot;&lt;/span&gt;&lt;span style=&quot;color: #fce566;&quot;&gt;ext_ls_auto&lt;/span&gt;&lt;span style=&quot;color: #8b888f;&quot;&gt;&quot;&lt;/span&gt;&lt;span style=&quot;color: #8b888f;&quot;&gt;,&lt;/span&gt; &lt;span style=&quot;color: #7bd88f;&quot;&gt;Cmd_ext_ls_auto&lt;/span&gt;&lt;/div&gt;&lt;/div&gt;&lt;/div&gt;&lt;/div&gt;&lt;/div&gt;&lt;/div&gt;&lt;/div&gt;&lt;/div&gt;&lt;/div&gt;&lt;/div&gt;&lt;/div&gt;&lt;/div&gt;" style="text;whiteSpace=wrap;html=1;" vertex="1" parent="1">
          <mxGeometry x="348" y="3217" width="150" height="36" as="geometry" />
        </mxCell>
        <mxCell id="FJRzQ0SDMOUs9rcgQZn3-312" value="Min ID: 0x20" style="rounded=0;whiteSpace=wrap;html=1;fillColor=#fff2cc;strokeColor=#d6b656;" vertex="1" parent="1">
          <mxGeometry x="-238" y="3180" width="140" height="40" as="geometry" />
        </mxCell>
        <mxCell id="FJRzQ0SDMOUs9rcgQZn3-313" value="CMD Code: 0x13" style="rounded=0;whiteSpace=wrap;html=1;fillColor=none;" vertex="1" parent="1">
          <mxGeometry x="-98" y="3180" width="140" height="40" as="geometry" />
        </mxCell>
        <mxCell id="FJRzQ0SDMOUs9rcgQZn3-314" value="Min ID: 0x3F" style="rounded=0;whiteSpace=wrap;html=1;fillColor=none;" vertex="1" parent="1">
          <mxGeometry x="112" y="3250" width="140" height="40" as="geometry" />
        </mxCell>
        <mxCell id="FJRzQ0SDMOUs9rcgQZn3-315" value="INTERVAL" style="rounded=0;whiteSpace=wrap;html=1;fillColor=none;" vertex="1" parent="1">
          <mxGeometry x="42" y="3180" width="70" height="40" as="geometry" />
        </mxCell>
        <mxCell id="FJRzQ0SDMOUs9rcgQZn3-316" value="" style="html=1;points=[[0,0,0,0,5],[0,1,0,0,-5],[1,0,0,0,5],[1,1,0,0,-5]];perimeter=orthogonalPerimeter;outlineConnect=0;targetShapes=umlLifeline;portConstraint=eastwest;newEdgeStyle={&quot;curved&quot;:0,&quot;rounded&quot;:0};" vertex="1" parent="1">
          <mxGeometry x="338" y="3195" width="10" height="80" as="geometry" />
        </mxCell>
        <mxCell id="FJRzQ0SDMOUs9rcgQZn3-317" value="Call" style="html=1;verticalAlign=bottom;endArrow=block;curved=0;rounded=0;" edge="1" parent="1" target="FJRzQ0SDMOUs9rcgQZn3-316">
          <mxGeometry relative="1" as="geometry">
            <mxPoint x="253" y="3200" as="sourcePoint" />
          </mxGeometry>
        </mxCell>
        <mxCell id="FJRzQ0SDMOUs9rcgQZn3-318" value="return" style="html=1;verticalAlign=bottom;endArrow=open;dashed=1;endSize=8;curved=0;rounded=0;exitX=1;exitY=1;exitDx=0;exitDy=-5;" edge="1" parent="1" source="FJRzQ0SDMOUs9rcgQZn3-316">
          <mxGeometry relative="1" as="geometry">
            <mxPoint x="253" y="3270" as="targetPoint" />
          </mxGeometry>
        </mxCell>
        <mxCell id="FJRzQ0SDMOUs9rcgQZn3-319" value="DONE" style="text;html=1;align=center;verticalAlign=middle;resizable=0;points=[];autosize=1;strokeColor=none;fillColor=none;fontStyle=1" vertex="1" parent="1">
          <mxGeometry x="102" y="3270" width="60" height="30" as="geometry" />
        </mxCell>
        <mxCell id="FJRzQ0SDMOUs9rcgQZn3-320" value="&lt;b&gt;SET&lt;/b&gt;" style="text;html=1;align=center;verticalAlign=middle;resizable=0;points=[];autosize=1;strokeColor=none;fillColor=none;" vertex="1" parent="1">
          <mxGeometry x="-248" y="3200" width="50" height="30" as="geometry" />
        </mxCell>
        <mxCell id="FJRzQ0SDMOUs9rcgQZn3-321" value="&lt;b&gt;EXT_LS_AUTO&lt;/b&gt;" style="text;html=1;align=center;verticalAlign=middle;resizable=0;points=[];autosize=1;strokeColor=none;fillColor=none;" vertex="1" parent="1">
          <mxGeometry x="-109" y="3200" width="110" height="30" as="geometry" />
        </mxCell>
        <mxCell id="FJRzQ0SDMOUs9rcgQZn3-322" value="CYCLE ADC" style="rounded=0;whiteSpace=wrap;html=1;fillColor=none;" vertex="1" parent="1">
          <mxGeometry x="112" y="3180" width="70" height="40" as="geometry" />
        </mxCell>
        <mxCell id="FJRzQ0SDMOUs9rcgQZn3-323" value="USER&lt;br&gt;DELAY" style="rounded=0;whiteSpace=wrap;html=1;fillColor=none;" vertex="1" parent="1">
          <mxGeometry x="182" y="3180" width="70" height="40" as="geometry" />
        </mxCell>
        <mxCell id="FJRzQ0SDMOUs9rcgQZn3-337" value="&lt;div style=&quot;color: #f7f1ff;background-color: #222222;font-family: Consolas, &#39;Courier New&#39;, monospace;font-weight: normal;font-size: 16px;line-height: 22px;white-space: pre;&quot;&gt;&lt;div style=&quot;line-height: 22px;&quot;&gt;&lt;div style=&quot;line-height: 22px;&quot;&gt;&lt;div style=&quot;line-height: 22px;&quot;&gt;&lt;div style=&quot;line-height: 22px;&quot;&gt;&lt;div style=&quot;line-height: 22px;&quot;&gt;&lt;div style=&quot;line-height: 22px;&quot;&gt;&lt;div style=&quot;line-height: 22px;&quot;&gt;&lt;div style=&quot;line-height: 22px;&quot;&gt;&lt;div style=&quot;line-height: 22px;&quot;&gt;&lt;div style=&quot;line-height: 22px;&quot;&gt;&lt;span style=&quot;color: #8b888f;&quot;&gt;&quot;&lt;/span&gt;&lt;span style=&quot;color: #fce566;&quot;&gt;pd_set&lt;/span&gt;&lt;span style=&quot;color: #8b888f;&quot;&gt;&quot;&lt;/span&gt;&lt;span style=&quot;color: #8b888f;&quot;&gt;,&lt;/span&gt; &lt;span style=&quot;color: #7bd88f;&quot;&gt;Cmd_pd_set&lt;/span&gt;&lt;/div&gt;&lt;/div&gt;&lt;/div&gt;&lt;/div&gt;&lt;/div&gt;&lt;/div&gt;&lt;/div&gt;&lt;/div&gt;&lt;/div&gt;&lt;/div&gt;&lt;/div&gt;" style="text;whiteSpace=wrap;html=1;" vertex="1" parent="1">
          <mxGeometry x="198" y="3367" width="150" height="36" as="geometry" />
        </mxCell>
        <mxCell id="FJRzQ0SDMOUs9rcgQZn3-338" value="Min ID: 0x20" style="rounded=0;whiteSpace=wrap;html=1;fillColor=#fff2cc;strokeColor=#d6b656;" vertex="1" parent="1">
          <mxGeometry x="-248" y="3330" width="140" height="40" as="geometry" />
        </mxCell>
        <mxCell id="FJRzQ0SDMOUs9rcgQZn3-339" value="CMD Code: 0x14" style="rounded=0;whiteSpace=wrap;html=1;fillColor=none;" vertex="1" parent="1">
          <mxGeometry x="-108" y="3330" width="140" height="40" as="geometry" />
        </mxCell>
        <mxCell id="FJRzQ0SDMOUs9rcgQZn3-340" value="Min ID: 0x3F" style="rounded=0;whiteSpace=wrap;html=1;fillColor=none;" vertex="1" parent="1">
          <mxGeometry x="-38" y="3400" width="140" height="40" as="geometry" />
        </mxCell>
        <mxCell id="FJRzQ0SDMOUs9rcgQZn3-341" value="VALUE" style="rounded=0;whiteSpace=wrap;html=1;fillColor=none;" vertex="1" parent="1">
          <mxGeometry x="32" y="3330" width="70" height="40" as="geometry" />
        </mxCell>
        <mxCell id="FJRzQ0SDMOUs9rcgQZn3-342" value="" style="html=1;points=[[0,0,0,0,5],[0,1,0,0,-5],[1,0,0,0,5],[1,1,0,0,-5]];perimeter=orthogonalPerimeter;outlineConnect=0;targetShapes=umlLifeline;portConstraint=eastwest;newEdgeStyle={&quot;curved&quot;:0,&quot;rounded&quot;:0};" vertex="1" parent="1">
          <mxGeometry x="188" y="3345" width="10" height="80" as="geometry" />
        </mxCell>
        <mxCell id="FJRzQ0SDMOUs9rcgQZn3-343" value="Call" style="html=1;verticalAlign=bottom;endArrow=block;curved=0;rounded=0;" edge="1" parent="1" target="FJRzQ0SDMOUs9rcgQZn3-342">
          <mxGeometry relative="1" as="geometry">
            <mxPoint x="103" y="3350" as="sourcePoint" />
          </mxGeometry>
        </mxCell>
        <mxCell id="FJRzQ0SDMOUs9rcgQZn3-344" value="return" style="html=1;verticalAlign=bottom;endArrow=open;dashed=1;endSize=8;curved=0;rounded=0;exitX=1;exitY=1;exitDx=0;exitDy=-5;" edge="1" parent="1" source="FJRzQ0SDMOUs9rcgQZn3-342">
          <mxGeometry relative="1" as="geometry">
            <mxPoint x="103" y="3420" as="targetPoint" />
          </mxGeometry>
        </mxCell>
        <mxCell id="FJRzQ0SDMOUs9rcgQZn3-345" value="DONE" style="text;html=1;align=center;verticalAlign=middle;resizable=0;points=[];autosize=1;strokeColor=none;fillColor=none;fontStyle=1" vertex="1" parent="1">
          <mxGeometry x="-48" y="3420" width="60" height="30" as="geometry" />
        </mxCell>
        <mxCell id="FJRzQ0SDMOUs9rcgQZn3-346" value="&lt;b&gt;SET&lt;/b&gt;" style="text;html=1;align=center;verticalAlign=middle;resizable=0;points=[];autosize=1;strokeColor=none;fillColor=none;" vertex="1" parent="1">
          <mxGeometry x="-258" y="3350" width="50" height="30" as="geometry" />
        </mxCell>
        <mxCell id="FJRzQ0SDMOUs9rcgQZn3-347" value="&lt;b&gt;EXT_LS_DAC&lt;/b&gt;" style="text;html=1;align=center;verticalAlign=middle;resizable=0;points=[];autosize=1;strokeColor=none;fillColor=none;" vertex="1" parent="1">
          <mxGeometry x="-117" y="3350" width="100" height="30" as="geometry" />
        </mxCell>
        <mxCell id="FJRzQ0SDMOUs9rcgQZn3-348" value="" style="rounded=0;whiteSpace=wrap;html=1;fillColor=none;dashed=1;" vertex="1" parent="1">
          <mxGeometry x="1343" y="30" width="340" height="80" as="geometry" />
        </mxCell>
        <mxCell id="FJRzQ0SDMOUs9rcgQZn3-349" value="" style="rounded=0;whiteSpace=wrap;html=1;fillColor=none;" vertex="1" parent="1">
          <mxGeometry x="1343" y="50" width="140" height="40" as="geometry" />
        </mxCell>
        <mxCell id="FJRzQ0SDMOUs9rcgQZn3-350" value="" style="rounded=0;whiteSpace=wrap;html=1;fillColor=none;" vertex="1" parent="1">
          <mxGeometry x="1203" y="50" width="140" height="40" as="geometry" />
        </mxCell>
        <mxCell id="FJRzQ0SDMOUs9rcgQZn3-351" value="Get [ id: 0x21]" style="text;html=1;align=center;verticalAlign=middle;resizable=0;points=[];autosize=1;strokeColor=none;fillColor=none;fontStyle=1;strokeWidth=1;fontSize=19;" vertex="1" parent="1">
          <mxGeometry x="1203" y="50" width="140" height="40" as="geometry" />
        </mxCell>
        <mxCell id="FJRzQ0SDMOUs9rcgQZn3-352" value="Command" style="text;html=1;align=center;verticalAlign=middle;resizable=0;points=[];autosize=1;strokeColor=none;fillColor=none;fontStyle=1;strokeWidth=1;fontSize=19;" vertex="1" parent="1">
          <mxGeometry x="1358" y="50" width="110" height="40" as="geometry" />
        </mxCell>
        <mxCell id="FJRzQ0SDMOUs9rcgQZn3-353" value="Min ID" style="text;html=1;align=center;verticalAlign=middle;resizable=0;points=[];autosize=1;strokeColor=none;fillColor=none;" vertex="1" parent="1">
          <mxGeometry x="1243" y="-10" width="60" height="30" as="geometry" />
        </mxCell>
        <mxCell id="FJRzQ0SDMOUs9rcgQZn3-354" value="Payload" style="text;html=1;align=center;verticalAlign=middle;resizable=0;points=[];autosize=1;strokeColor=none;fillColor=none;" vertex="1" parent="1">
          <mxGeometry x="1478" y="-10" width="70" height="30" as="geometry" />
        </mxCell>
        <mxCell id="FJRzQ0SDMOUs9rcgQZn3-355" value="" style="rounded=0;whiteSpace=wrap;html=1;fillColor=none;" vertex="1" parent="1">
          <mxGeometry x="1483" y="50" width="100" height="40" as="geometry" />
        </mxCell>
        <mxCell id="FJRzQ0SDMOUs9rcgQZn3-356" value="..." style="rounded=0;whiteSpace=wrap;html=1;fillColor=none;" vertex="1" parent="1">
          <mxGeometry x="1583" y="50" width="100" height="40" as="geometry" />
        </mxCell>
        <mxCell id="FJRzQ0SDMOUs9rcgQZn3-357" value="Content" style="text;html=1;align=center;verticalAlign=middle;resizable=0;points=[];autosize=1;strokeColor=none;fillColor=none;fontStyle=1;strokeWidth=1;fontSize=19;" vertex="1" parent="1">
          <mxGeometry x="1488" y="50" width="90" height="40" as="geometry" />
        </mxCell>
        <mxCell id="FJRzQ0SDMOUs9rcgQZn3-358" value="&lt;i&gt;Big-endian&lt;/i&gt;" style="text;html=1;align=center;verticalAlign=middle;resizable=0;points=[];autosize=1;strokeColor=none;fillColor=none;fontColor=#FF0000;" vertex="1" parent="1">
          <mxGeometry x="1473" y="30" width="80" height="30" as="geometry" />
        </mxCell>
        <mxCell id="FJRzQ0SDMOUs9rcgQZn3-359" value="CMD Code: 0x00" style="rounded=0;whiteSpace=wrap;html=1;fillColor=none;" vertex="1" parent="1">
          <mxGeometry x="1725" y="30" width="140" height="40" as="geometry" />
        </mxCell>
        <mxCell id="FJRzQ0SDMOUs9rcgQZn3-360" value="Min ID: 0x2A" style="rounded=0;whiteSpace=wrap;html=1;fillColor=none;" vertex="1" parent="1">
          <mxGeometry x="1725" y="70" width="140" height="40" as="geometry" />
        </mxCell>
        <mxCell id="FJRzQ0SDMOUs9rcgQZn3-361" value="&lt;b&gt;DEVICE STATUS ACK&lt;/b&gt;" style="text;html=1;align=center;verticalAlign=middle;resizable=0;points=[];autosize=1;strokeColor=none;fillColor=none;" vertex="1" parent="1">
          <mxGeometry x="1712" y="89" width="150" height="30" as="geometry" />
        </mxCell>
        <mxCell id="FJRzQ0SDMOUs9rcgQZn3-362" value="&lt;b&gt;DEVICE STATUS&lt;/b&gt;" style="text;html=1;align=center;verticalAlign=middle;resizable=0;points=[];autosize=1;strokeColor=none;fillColor=none;" vertex="1" parent="1">
          <mxGeometry x="1713" y="50" width="120" height="30" as="geometry" />
        </mxCell>
        <mxCell id="FJRzQ0SDMOUs9rcgQZn3-366" value="CMD Code: 0x01" style="rounded=0;whiteSpace=wrap;html=1;fillColor=none;" vertex="1" parent="1">
          <mxGeometry x="1865" y="30" width="140" height="40" as="geometry" />
        </mxCell>
        <mxCell id="FJRzQ0SDMOUs9rcgQZn3-367" value="Min ID: 0x2B" style="rounded=0;whiteSpace=wrap;html=1;fillColor=none;" vertex="1" parent="1">
          <mxGeometry x="1865" y="70" width="140" height="40" as="geometry" />
        </mxCell>
        <mxCell id="FJRzQ0SDMOUs9rcgQZn3-368" value="&lt;b&gt;SETTING ACK&lt;/b&gt;" style="text;html=1;align=center;verticalAlign=middle;resizable=0;points=[];autosize=1;strokeColor=none;fillColor=none;" vertex="1" parent="1">
          <mxGeometry x="1859" y="89" width="100" height="30" as="geometry" />
        </mxCell>
        <mxCell id="FJRzQ0SDMOUs9rcgQZn3-369" value="&lt;b&gt;SETTING&lt;/b&gt;" style="text;html=1;align=center;verticalAlign=middle;resizable=0;points=[];autosize=1;strokeColor=none;fillColor=none;" vertex="1" parent="1">
          <mxGeometry x="1854" y="50" width="80" height="30" as="geometry" />
        </mxCell>
        <mxCell id="FJRzQ0SDMOUs9rcgQZn3-378" value="CMD Code: 0x02" style="rounded=0;whiteSpace=wrap;html=1;fillColor=none;" vertex="1" parent="1">
          <mxGeometry x="2005" y="30" width="140" height="40" as="geometry" />
        </mxCell>
        <mxCell id="FJRzQ0SDMOUs9rcgQZn3-379" value="Min ID: 0x2C" style="rounded=0;whiteSpace=wrap;html=1;fillColor=none;" vertex="1" parent="1">
          <mxGeometry x="2005" y="70" width="140" height="40" as="geometry" />
        </mxCell>
        <mxCell id="FJRzQ0SDMOUs9rcgQZn3-380" value="&lt;b&gt;SENSOR ACK&lt;/b&gt;" style="text;html=1;align=center;verticalAlign=middle;resizable=0;points=[];autosize=1;strokeColor=none;fillColor=none;" vertex="1" parent="1">
          <mxGeometry x="1998" y="89" width="100" height="30" as="geometry" />
        </mxCell>
        <mxCell id="FJRzQ0SDMOUs9rcgQZn3-381" value="&lt;b&gt;SENSOR&lt;/b&gt;" style="text;html=1;align=center;verticalAlign=middle;resizable=0;points=[];autosize=1;strokeColor=none;fillColor=none;" vertex="1" parent="1">
          <mxGeometry x="1999" y="50" width="70" height="30" as="geometry" />
        </mxCell>
        <mxCell id="FJRzQ0SDMOUs9rcgQZn3-385" value="CMD Code: 0x03" style="rounded=0;whiteSpace=wrap;html=1;fillColor=none;" vertex="1" parent="1">
          <mxGeometry x="2145" y="30" width="140" height="40" as="geometry" />
        </mxCell>
        <mxCell id="FJRzQ0SDMOUs9rcgQZn3-386" value="Min ID: 0x2D" style="rounded=0;whiteSpace=wrap;html=1;fillColor=none;" vertex="1" parent="1">
          <mxGeometry x="2145" y="70" width="140" height="40" as="geometry" />
        </mxCell>
        <mxCell id="FJRzQ0SDMOUs9rcgQZn3-387" value="&lt;b&gt;PHOTO ACK&lt;/b&gt;" style="text;html=1;align=center;verticalAlign=middle;resizable=0;points=[];autosize=1;strokeColor=none;fillColor=none;" vertex="1" parent="1">
          <mxGeometry x="2143" y="89" width="90" height="30" as="geometry" />
        </mxCell>
        <mxCell id="FJRzQ0SDMOUs9rcgQZn3-388" value="&lt;b&gt;PHOTO&lt;/b&gt;" style="text;html=1;align=center;verticalAlign=middle;resizable=0;points=[];autosize=1;strokeColor=none;fillColor=none;" vertex="1" parent="1">
          <mxGeometry x="2139" y="50" width="70" height="30" as="geometry" />
        </mxCell>
        <mxCell id="FJRzQ0SDMOUs9rcgQZn3-390" value="Min ID: 0x21" style="rounded=0;whiteSpace=wrap;html=1;fillColor=#dae8fc;strokeColor=#6c8ebf;" vertex="1" parent="1">
          <mxGeometry x="921" y="199" width="140" height="40" as="geometry" />
        </mxCell>
        <mxCell id="FJRzQ0SDMOUs9rcgQZn3-391" value="CMD Code: 0x00" style="rounded=0;whiteSpace=wrap;html=1;fillColor=none;" vertex="1" parent="1">
          <mxGeometry x="1061" y="199" width="140" height="40" as="geometry" />
        </mxCell>
        <mxCell id="FJRzQ0SDMOUs9rcgQZn3-392" value="Min ID: 0x2A" style="rounded=0;whiteSpace=wrap;html=1;fillColor=none;" vertex="1" parent="1">
          <mxGeometry x="1061" y="269" width="140" height="40" as="geometry" />
        </mxCell>
        <mxCell id="FJRzQ0SDMOUs9rcgQZn3-393" value="" style="html=1;points=[[0,0,0,0,5],[0,1,0,0,-5],[1,0,0,0,5],[1,1,0,0,-5]];perimeter=orthogonalPerimeter;outlineConnect=0;targetShapes=umlLifeline;portConstraint=eastwest;newEdgeStyle={&quot;curved&quot;:0,&quot;rounded&quot;:0};" vertex="1" parent="1">
          <mxGeometry x="1287" y="214" width="10" height="80" as="geometry" />
        </mxCell>
        <mxCell id="FJRzQ0SDMOUs9rcgQZn3-394" value="Call" style="html=1;verticalAlign=bottom;endArrow=block;curved=0;rounded=0;" edge="1" parent="1" target="FJRzQ0SDMOUs9rcgQZn3-393">
          <mxGeometry relative="1" as="geometry">
            <mxPoint x="1202" y="219" as="sourcePoint" />
          </mxGeometry>
        </mxCell>
        <mxCell id="FJRzQ0SDMOUs9rcgQZn3-395" value="return" style="html=1;verticalAlign=bottom;endArrow=open;dashed=1;endSize=8;curved=0;rounded=0;exitX=1;exitY=1;exitDx=0;exitDy=-5;" edge="1" parent="1" source="FJRzQ0SDMOUs9rcgQZn3-393">
          <mxGeometry relative="1" as="geometry">
            <mxPoint x="1202" y="289" as="targetPoint" />
          </mxGeometry>
        </mxCell>
        <mxCell id="FJRzQ0SDMOUs9rcgQZn3-396" value="&lt;b&gt;DEVICE STATUS ACK&lt;/b&gt;" style="text;html=1;align=center;verticalAlign=middle;resizable=0;points=[];autosize=1;strokeColor=none;fillColor=none;" vertex="1" parent="1">
          <mxGeometry x="1049" y="288" width="150" height="30" as="geometry" />
        </mxCell>
        <mxCell id="FJRzQ0SDMOUs9rcgQZn3-397" value="&lt;b&gt;GET&lt;/b&gt;" style="text;html=1;align=center;verticalAlign=middle;resizable=0;points=[];autosize=1;strokeColor=none;fillColor=none;" vertex="1" parent="1">
          <mxGeometry x="910" y="219" width="50" height="30" as="geometry" />
        </mxCell>
        <mxCell id="FJRzQ0SDMOUs9rcgQZn3-398" value="&lt;b&gt;DEVICE STATUS&lt;/b&gt;" style="text;html=1;align=center;verticalAlign=middle;resizable=0;points=[];autosize=1;strokeColor=none;fillColor=none;" vertex="1" parent="1">
          <mxGeometry x="1049" y="219" width="120" height="30" as="geometry" />
        </mxCell>
        <mxCell id="FJRzQ0SDMOUs9rcgQZn3-399" value="TEC INIT [1] : F/OK/?" style="rounded=0;whiteSpace=wrap;html=1;fillColor=none;" vertex="1" parent="1">
          <mxGeometry x="1061" y="309" width="140" height="40" as="geometry" />
        </mxCell>
        <mxCell id="FJRzQ0SDMOUs9rcgQZn3-400" value="TEC INIT [2] : F/OK/?" style="rounded=0;whiteSpace=wrap;html=1;fillColor=none;" vertex="1" parent="1">
          <mxGeometry x="1061" y="349" width="140" height="40" as="geometry" />
        </mxCell>
        <mxCell id="FJRzQ0SDMOUs9rcgQZn3-401" value="TEC INIT [3] : F/OK/?" style="rounded=0;whiteSpace=wrap;html=1;fillColor=none;" vertex="1" parent="1">
          <mxGeometry x="1061" y="389" width="140" height="40" as="geometry" />
        </mxCell>
        <mxCell id="FJRzQ0SDMOUs9rcgQZn3-402" value="TEC INIT [4] : F/OK/?" style="rounded=0;whiteSpace=wrap;html=1;fillColor=none;" vertex="1" parent="1">
          <mxGeometry x="1061" y="429" width="140" height="40" as="geometry" />
        </mxCell>
        <mxCell id="FJRzQ0SDMOUs9rcgQZn3-403" value="I2C [1]: F/OK/?" style="rounded=0;whiteSpace=wrap;html=1;fillColor=none;" vertex="1" parent="1">
          <mxGeometry x="1061" y="469" width="140" height="40" as="geometry" />
        </mxCell>
        <mxCell id="FJRzQ0SDMOUs9rcgQZn3-404" value="I2C [2]: F/OK/?" style="rounded=0;whiteSpace=wrap;html=1;fillColor=none;" vertex="1" parent="1">
          <mxGeometry x="1061" y="509" width="140" height="40" as="geometry" />
        </mxCell>
        <mxCell id="FJRzQ0SDMOUs9rcgQZn3-405" value="..." style="rounded=0;whiteSpace=wrap;html=1;fillColor=none;" vertex="1" parent="1">
          <mxGeometry x="1061" y="549" width="140" height="40" as="geometry" />
        </mxCell>
        <mxCell id="FJRzQ0SDMOUs9rcgQZn3-406" value="Min ID: 0x21" style="rounded=0;whiteSpace=wrap;html=1;fillColor=#dae8fc;strokeColor=#6c8ebf;" vertex="1" parent="1">
          <mxGeometry x="1401" y="199" width="140" height="40" as="geometry" />
        </mxCell>
        <mxCell id="FJRzQ0SDMOUs9rcgQZn3-407" value="CMD Code: 0x01" style="rounded=0;whiteSpace=wrap;html=1;fillColor=none;" vertex="1" parent="1">
          <mxGeometry x="1541" y="199" width="140" height="40" as="geometry" />
        </mxCell>
        <mxCell id="FJRzQ0SDMOUs9rcgQZn3-408" value="Min ID: 0x2B" style="rounded=0;whiteSpace=wrap;html=1;fillColor=none;" vertex="1" parent="1">
          <mxGeometry x="1541" y="269" width="140" height="40" as="geometry" />
        </mxCell>
        <mxCell id="FJRzQ0SDMOUs9rcgQZn3-409" value="" style="html=1;points=[[0,0,0,0,5],[0,1,0,0,-5],[1,0,0,0,5],[1,1,0,0,-5]];perimeter=orthogonalPerimeter;outlineConnect=0;targetShapes=umlLifeline;portConstraint=eastwest;newEdgeStyle={&quot;curved&quot;:0,&quot;rounded&quot;:0};" vertex="1" parent="1">
          <mxGeometry x="1767" y="214" width="10" height="80" as="geometry" />
        </mxCell>
        <mxCell id="FJRzQ0SDMOUs9rcgQZn3-410" value="Call" style="html=1;verticalAlign=bottom;endArrow=block;curved=0;rounded=0;" edge="1" parent="1" target="FJRzQ0SDMOUs9rcgQZn3-409">
          <mxGeometry relative="1" as="geometry">
            <mxPoint x="1682" y="219" as="sourcePoint" />
          </mxGeometry>
        </mxCell>
        <mxCell id="FJRzQ0SDMOUs9rcgQZn3-411" value="return" style="html=1;verticalAlign=bottom;endArrow=open;dashed=1;endSize=8;curved=0;rounded=0;exitX=1;exitY=1;exitDx=0;exitDy=-5;" edge="1" parent="1" source="FJRzQ0SDMOUs9rcgQZn3-409">
          <mxGeometry relative="1" as="geometry">
            <mxPoint x="1682" y="289" as="targetPoint" />
          </mxGeometry>
        </mxCell>
        <mxCell id="FJRzQ0SDMOUs9rcgQZn3-412" value="&lt;b&gt;SETTING ACK&lt;/b&gt;" style="text;html=1;align=center;verticalAlign=middle;resizable=0;points=[];autosize=1;strokeColor=none;fillColor=none;" vertex="1" parent="1">
          <mxGeometry x="1534" y="288" width="100" height="30" as="geometry" />
        </mxCell>
        <mxCell id="FJRzQ0SDMOUs9rcgQZn3-413" value="&lt;b&gt;GET&lt;/b&gt;" style="text;html=1;align=center;verticalAlign=middle;resizable=0;points=[];autosize=1;strokeColor=none;fillColor=none;" vertex="1" parent="1">
          <mxGeometry x="1390" y="219" width="50" height="30" as="geometry" />
        </mxCell>
        <mxCell id="FJRzQ0SDMOUs9rcgQZn3-414" value="&lt;b&gt;SETTING&lt;/b&gt;" style="text;html=1;align=center;verticalAlign=middle;resizable=0;points=[];autosize=1;strokeColor=none;fillColor=none;" vertex="1" parent="1">
          <mxGeometry x="1529" y="219" width="80" height="30" as="geometry" />
        </mxCell>
        <mxCell id="FJRzQ0SDMOUs9rcgQZn3-415" value="TEMP_SET_POINT [1]" style="rounded=0;whiteSpace=wrap;html=1;fillColor=none;" vertex="1" parent="1">
          <mxGeometry x="1541" y="309" width="140" height="40" as="geometry" />
        </mxCell>
        <mxCell id="FJRzQ0SDMOUs9rcgQZn3-416" value="TEMP_SET_POINT [2]" style="rounded=0;whiteSpace=wrap;html=1;fillColor=none;" vertex="1" parent="1">
          <mxGeometry x="1541" y="349" width="140" height="40" as="geometry" />
        </mxCell>
        <mxCell id="FJRzQ0SDMOUs9rcgQZn3-417" value="TEMP_SET_POINT [3]" style="rounded=0;whiteSpace=wrap;html=1;fillColor=none;" vertex="1" parent="1">
          <mxGeometry x="1541" y="389" width="140" height="40" as="geometry" />
        </mxCell>
        <mxCell id="FJRzQ0SDMOUs9rcgQZn3-418" value="TEMP_SET_POINT [4]" style="rounded=0;whiteSpace=wrap;html=1;fillColor=none;" vertex="1" parent="1">
          <mxGeometry x="1541" y="429" width="140" height="40" as="geometry" />
        </mxCell>
        <mxCell id="FJRzQ0SDMOUs9rcgQZn3-419" value="TEC_VOL [1]" style="rounded=0;whiteSpace=wrap;html=1;fillColor=none;" vertex="1" parent="1">
          <mxGeometry x="1541" y="469" width="140" height="40" as="geometry" />
        </mxCell>
        <mxCell id="FJRzQ0SDMOUs9rcgQZn3-420" value="TEC_VOL [2]" style="rounded=0;whiteSpace=wrap;html=1;fillColor=none;" vertex="1" parent="1">
          <mxGeometry x="1541" y="509" width="140" height="40" as="geometry" />
        </mxCell>
        <mxCell id="FJRzQ0SDMOUs9rcgQZn3-421" value="TEC_VOL [3]" style="rounded=0;whiteSpace=wrap;html=1;fillColor=none;" vertex="1" parent="1">
          <mxGeometry x="1541" y="549" width="140" height="40" as="geometry" />
        </mxCell>
        <mxCell id="FJRzQ0SDMOUs9rcgQZn3-422" value="TEC_VOL [4]" style="rounded=0;whiteSpace=wrap;html=1;fillColor=none;" vertex="1" parent="1">
          <mxGeometry x="1541" y="589" width="140" height="40" as="geometry" />
        </mxCell>
        <mxCell id="FJRzQ0SDMOUs9rcgQZn3-423" value="TEC_CODE [1]" style="rounded=0;whiteSpace=wrap;html=1;fillColor=none;" vertex="1" parent="1">
          <mxGeometry x="1541" y="629" width="140" height="40" as="geometry" />
        </mxCell>
        <mxCell id="FJRzQ0SDMOUs9rcgQZn3-424" value="TEC_CODE [2]" style="rounded=0;whiteSpace=wrap;html=1;fillColor=none;" vertex="1" parent="1">
          <mxGeometry x="1541" y="669" width="140" height="40" as="geometry" />
        </mxCell>
        <mxCell id="FJRzQ0SDMOUs9rcgQZn3-425" value="TEC_CODE [3]" style="rounded=0;whiteSpace=wrap;html=1;fillColor=none;" vertex="1" parent="1">
          <mxGeometry x="1541" y="709" width="140" height="40" as="geometry" />
        </mxCell>
        <mxCell id="FJRzQ0SDMOUs9rcgQZn3-426" value="TEC_CODE [4]" style="rounded=0;whiteSpace=wrap;html=1;fillColor=none;" vertex="1" parent="1">
          <mxGeometry x="1541" y="749" width="140" height="40" as="geometry" />
        </mxCell>
        <mxCell id="FJRzQ0SDMOUs9rcgQZn3-427" value="HEATER_DUTY [1]" style="rounded=0;whiteSpace=wrap;html=1;fillColor=none;" vertex="1" parent="1">
          <mxGeometry x="1541" y="789" width="140" height="40" as="geometry" />
        </mxCell>
        <mxCell id="FJRzQ0SDMOUs9rcgQZn3-428" value="HEATER_DUTY [2]" style="rounded=0;whiteSpace=wrap;html=1;fillColor=none;" vertex="1" parent="1">
          <mxGeometry x="1541" y="829" width="140" height="40" as="geometry" />
        </mxCell>
        <mxCell id="FJRzQ0SDMOUs9rcgQZn3-429" value="HEATER_DUTY [3]" style="rounded=0;whiteSpace=wrap;html=1;fillColor=none;" vertex="1" parent="1">
          <mxGeometry x="1541" y="869" width="140" height="40" as="geometry" />
        </mxCell>
        <mxCell id="FJRzQ0SDMOUs9rcgQZn3-430" value="HEATER_DUTY [4]" style="rounded=0;whiteSpace=wrap;html=1;fillColor=none;" vertex="1" parent="1">
          <mxGeometry x="1541" y="909" width="140" height="40" as="geometry" />
        </mxCell>
        <mxCell id="FJRzQ0SDMOUs9rcgQZn3-431" value="IR_DUTY" style="rounded=0;whiteSpace=wrap;html=1;fillColor=none;" vertex="1" parent="1">
          <mxGeometry x="1541" y="949" width="140" height="40" as="geometry" />
        </mxCell>
        <mxCell id="FJRzQ0SDMOUs9rcgQZn3-432" value="Min ID: 0x21" style="rounded=0;whiteSpace=wrap;html=1;fillColor=#dae8fc;strokeColor=#6c8ebf;" vertex="1" parent="1">
          <mxGeometry x="1884.5" y="199" width="140" height="40" as="geometry" />
        </mxCell>
        <mxCell id="FJRzQ0SDMOUs9rcgQZn3-433" value="CMD Code: 0x02" style="rounded=0;whiteSpace=wrap;html=1;fillColor=none;" vertex="1" parent="1">
          <mxGeometry x="2024.5" y="199" width="140" height="40" as="geometry" />
        </mxCell>
        <mxCell id="FJRzQ0SDMOUs9rcgQZn3-434" value="Min ID: 0x2C" style="rounded=0;whiteSpace=wrap;html=1;fillColor=none;" vertex="1" parent="1">
          <mxGeometry x="2024.5" y="269" width="140" height="40" as="geometry" />
        </mxCell>
        <mxCell id="FJRzQ0SDMOUs9rcgQZn3-435" value="" style="html=1;points=[[0,0,0,0,5],[0,1,0,0,-5],[1,0,0,0,5],[1,1,0,0,-5]];perimeter=orthogonalPerimeter;outlineConnect=0;targetShapes=umlLifeline;portConstraint=eastwest;newEdgeStyle={&quot;curved&quot;:0,&quot;rounded&quot;:0};" vertex="1" parent="1">
          <mxGeometry x="2250.5" y="214" width="10" height="80" as="geometry" />
        </mxCell>
        <mxCell id="FJRzQ0SDMOUs9rcgQZn3-436" value="Call" style="html=1;verticalAlign=bottom;endArrow=block;curved=0;rounded=0;" edge="1" parent="1" target="FJRzQ0SDMOUs9rcgQZn3-435">
          <mxGeometry relative="1" as="geometry">
            <mxPoint x="2165.5" y="219" as="sourcePoint" />
          </mxGeometry>
        </mxCell>
        <mxCell id="FJRzQ0SDMOUs9rcgQZn3-437" value="return" style="html=1;verticalAlign=bottom;endArrow=open;dashed=1;endSize=8;curved=0;rounded=0;exitX=1;exitY=1;exitDx=0;exitDy=-5;" edge="1" parent="1" source="FJRzQ0SDMOUs9rcgQZn3-435">
          <mxGeometry relative="1" as="geometry">
            <mxPoint x="2165.5" y="289" as="targetPoint" />
          </mxGeometry>
        </mxCell>
        <mxCell id="FJRzQ0SDMOUs9rcgQZn3-438" value="&lt;b&gt;SENSOR ACK&lt;/b&gt;" style="text;html=1;align=center;verticalAlign=middle;resizable=0;points=[];autosize=1;strokeColor=none;fillColor=none;" vertex="1" parent="1">
          <mxGeometry x="2017.5" y="288" width="100" height="30" as="geometry" />
        </mxCell>
        <mxCell id="FJRzQ0SDMOUs9rcgQZn3-439" value="&lt;b&gt;GET&lt;/b&gt;" style="text;html=1;align=center;verticalAlign=middle;resizable=0;points=[];autosize=1;strokeColor=none;fillColor=none;" vertex="1" parent="1">
          <mxGeometry x="1873.5" y="219" width="50" height="30" as="geometry" />
        </mxCell>
        <mxCell id="FJRzQ0SDMOUs9rcgQZn3-440" value="&lt;b&gt;SENSOR&lt;/b&gt;" style="text;html=1;align=center;verticalAlign=middle;resizable=0;points=[];autosize=1;strokeColor=none;fillColor=none;" vertex="1" parent="1">
          <mxGeometry x="2017.5" y="219" width="70" height="30" as="geometry" />
        </mxCell>
        <mxCell id="FJRzQ0SDMOUs9rcgQZn3-441" value="NTC [1]" style="rounded=0;whiteSpace=wrap;html=1;fillColor=none;" vertex="1" parent="1">
          <mxGeometry x="2024.5" y="309" width="140" height="40" as="geometry" />
        </mxCell>
        <mxCell id="FJRzQ0SDMOUs9rcgQZn3-442" value="NTC [2]" style="rounded=0;whiteSpace=wrap;html=1;fillColor=none;" vertex="1" parent="1">
          <mxGeometry x="2024.5" y="349" width="140" height="40" as="geometry" />
        </mxCell>
        <mxCell id="FJRzQ0SDMOUs9rcgQZn3-443" value="NTC [3]" style="rounded=0;whiteSpace=wrap;html=1;fillColor=none;" vertex="1" parent="1">
          <mxGeometry x="2024.5" y="389" width="140" height="40" as="geometry" />
        </mxCell>
        <mxCell id="FJRzQ0SDMOUs9rcgQZn3-444" value="NTC [4]" style="rounded=0;whiteSpace=wrap;html=1;fillColor=none;" vertex="1" parent="1">
          <mxGeometry x="2024.5" y="429" width="140" height="40" as="geometry" />
        </mxCell>
        <mxCell id="FJRzQ0SDMOUs9rcgQZn3-445" value="NTC [5]" style="rounded=0;whiteSpace=wrap;html=1;fillColor=none;" vertex="1" parent="1">
          <mxGeometry x="2024.5" y="469" width="140" height="40" as="geometry" />
        </mxCell>
        <mxCell id="FJRzQ0SDMOUs9rcgQZn3-446" value="NTC [6]" style="rounded=0;whiteSpace=wrap;html=1;fillColor=none;" vertex="1" parent="1">
          <mxGeometry x="2024.5" y="509" width="140" height="40" as="geometry" />
        </mxCell>
        <mxCell id="FJRzQ0SDMOUs9rcgQZn3-447" value="NTC [7]" style="rounded=0;whiteSpace=wrap;html=1;fillColor=none;" vertex="1" parent="1">
          <mxGeometry x="2024.5" y="549" width="140" height="40" as="geometry" />
        </mxCell>
        <mxCell id="FJRzQ0SDMOUs9rcgQZn3-448" value="NTC [8]" style="rounded=0;whiteSpace=wrap;html=1;fillColor=none;" vertex="1" parent="1">
          <mxGeometry x="2024.5" y="589" width="140" height="40" as="geometry" />
        </mxCell>
        <mxCell id="FJRzQ0SDMOUs9rcgQZn3-449" value="ACCEL [1]" style="rounded=0;whiteSpace=wrap;html=1;fillColor=none;" vertex="1" parent="1">
          <mxGeometry x="2024.5" y="629" width="140" height="40" as="geometry" />
        </mxCell>
        <mxCell id="FJRzQ0SDMOUs9rcgQZn3-450" value="ACCEL [2]" style="rounded=0;whiteSpace=wrap;html=1;fillColor=none;" vertex="1" parent="1">
          <mxGeometry x="2024.5" y="669" width="140" height="40" as="geometry" />
        </mxCell>
        <mxCell id="FJRzQ0SDMOUs9rcgQZn3-451" value="ACCEL [3]" style="rounded=0;whiteSpace=wrap;html=1;fillColor=none;" vertex="1" parent="1">
          <mxGeometry x="2024.5" y="709" width="140" height="40" as="geometry" />
        </mxCell>
        <mxCell id="FJRzQ0SDMOUs9rcgQZn3-452" value="GYRO [1]" style="rounded=0;whiteSpace=wrap;html=1;fillColor=none;" vertex="1" parent="1">
          <mxGeometry x="2024.5" y="749" width="140" height="40" as="geometry" />
        </mxCell>
        <mxCell id="FJRzQ0SDMOUs9rcgQZn3-453" value="GYRO [2]" style="rounded=0;whiteSpace=wrap;html=1;fillColor=none;" vertex="1" parent="1">
          <mxGeometry x="2024.5" y="789" width="140" height="40" as="geometry" />
        </mxCell>
        <mxCell id="FJRzQ0SDMOUs9rcgQZn3-454" value="GYRO [3]" style="rounded=0;whiteSpace=wrap;html=1;fillColor=none;" vertex="1" parent="1">
          <mxGeometry x="2024.5" y="829" width="140" height="40" as="geometry" />
        </mxCell>
        <mxCell id="FJRzQ0SDMOUs9rcgQZn3-458" value="Min ID: 0x21" style="rounded=0;whiteSpace=wrap;html=1;fillColor=#dae8fc;strokeColor=#6c8ebf;" vertex="1" parent="1">
          <mxGeometry x="2361" y="199" width="140" height="40" as="geometry" />
        </mxCell>
        <mxCell id="FJRzQ0SDMOUs9rcgQZn3-459" value="CMD Code: 0x02" style="rounded=0;whiteSpace=wrap;html=1;fillColor=none;" vertex="1" parent="1">
          <mxGeometry x="2501" y="199" width="140" height="40" as="geometry" />
        </mxCell>
        <mxCell id="FJRzQ0SDMOUs9rcgQZn3-460" value="Min ID: 0x2C" style="rounded=0;whiteSpace=wrap;html=1;fillColor=none;" vertex="1" parent="1">
          <mxGeometry x="2501" y="269" width="140" height="40" as="geometry" />
        </mxCell>
        <mxCell id="FJRzQ0SDMOUs9rcgQZn3-461" value="" style="html=1;points=[[0,0,0,0,5],[0,1,0,0,-5],[1,0,0,0,5],[1,1,0,0,-5]];perimeter=orthogonalPerimeter;outlineConnect=0;targetShapes=umlLifeline;portConstraint=eastwest;newEdgeStyle={&quot;curved&quot;:0,&quot;rounded&quot;:0};" vertex="1" parent="1">
          <mxGeometry x="2727" y="214" width="10" height="80" as="geometry" />
        </mxCell>
        <mxCell id="FJRzQ0SDMOUs9rcgQZn3-462" value="Call" style="html=1;verticalAlign=bottom;endArrow=block;curved=0;rounded=0;" edge="1" parent="1" target="FJRzQ0SDMOUs9rcgQZn3-461">
          <mxGeometry relative="1" as="geometry">
            <mxPoint x="2642" y="219" as="sourcePoint" />
          </mxGeometry>
        </mxCell>
        <mxCell id="FJRzQ0SDMOUs9rcgQZn3-463" value="return" style="html=1;verticalAlign=bottom;endArrow=open;dashed=1;endSize=8;curved=0;rounded=0;exitX=1;exitY=1;exitDx=0;exitDy=-5;" edge="1" parent="1" source="FJRzQ0SDMOUs9rcgQZn3-461">
          <mxGeometry relative="1" as="geometry">
            <mxPoint x="2642" y="289" as="targetPoint" />
          </mxGeometry>
        </mxCell>
        <mxCell id="FJRzQ0SDMOUs9rcgQZn3-464" value="&lt;b&gt;PHOTO ACK&lt;/b&gt;" style="text;html=1;align=center;verticalAlign=middle;resizable=0;points=[];autosize=1;strokeColor=none;fillColor=none;" vertex="1" parent="1">
          <mxGeometry x="2494" y="288" width="90" height="30" as="geometry" />
        </mxCell>
        <mxCell id="FJRzQ0SDMOUs9rcgQZn3-465" value="&lt;b&gt;GET&lt;/b&gt;" style="text;html=1;align=center;verticalAlign=middle;resizable=0;points=[];autosize=1;strokeColor=none;fillColor=none;" vertex="1" parent="1">
          <mxGeometry x="2350" y="219" width="50" height="30" as="geometry" />
        </mxCell>
        <mxCell id="FJRzQ0SDMOUs9rcgQZn3-466" value="&lt;b&gt;PHOTO&lt;/b&gt;" style="text;html=1;align=center;verticalAlign=middle;resizable=0;points=[];autosize=1;strokeColor=none;fillColor=none;" vertex="1" parent="1">
          <mxGeometry x="2488" y="219" width="70" height="30" as="geometry" />
        </mxCell>
        <mxCell id="FJRzQ0SDMOUs9rcgQZn3-467" value="SLOT" style="rounded=0;whiteSpace=wrap;html=1;fillColor=none;" vertex="1" parent="1">
          <mxGeometry x="2501" y="309" width="140" height="40" as="geometry" />
        </mxCell>
        <mxCell id="FJRzQ0SDMOUs9rcgQZn3-468" value="DATA [1]" style="rounded=0;whiteSpace=wrap;html=1;fillColor=none;" vertex="1" parent="1">
          <mxGeometry x="2501" y="349" width="140" height="40" as="geometry" />
        </mxCell>
        <mxCell id="FJRzQ0SDMOUs9rcgQZn3-469" value="DATA [2]" style="rounded=0;whiteSpace=wrap;html=1;fillColor=none;" vertex="1" parent="1">
          <mxGeometry x="2501" y="389" width="140" height="40" as="geometry" />
        </mxCell>
        <mxCell id="FJRzQ0SDMOUs9rcgQZn3-507" value="" style="rounded=0;whiteSpace=wrap;html=1;fillColor=none;dashed=1;" vertex="1" parent="1">
          <mxGeometry x="1343" y="1261" width="340" height="80" as="geometry" />
        </mxCell>
        <mxCell id="FJRzQ0SDMOUs9rcgQZn3-508" value="" style="rounded=0;whiteSpace=wrap;html=1;fillColor=none;" vertex="1" parent="1">
          <mxGeometry x="1343" y="1281" width="140" height="40" as="geometry" />
        </mxCell>
        <mxCell id="FJRzQ0SDMOUs9rcgQZn3-509" value="" style="rounded=0;whiteSpace=wrap;html=1;fillColor=none;" vertex="1" parent="1">
          <mxGeometry x="1160" y="1281" width="183" height="40" as="geometry" />
        </mxCell>
        <mxCell id="FJRzQ0SDMOUs9rcgQZn3-510" value="Mission [ id: 0xHH]" style="text;html=1;align=center;verticalAlign=middle;resizable=0;points=[];autosize=1;strokeColor=none;fillColor=none;fontStyle=1;strokeWidth=1;fontSize=19;" vertex="1" parent="1">
          <mxGeometry x="1160" y="1281" width="180" height="40" as="geometry" />
        </mxCell>
        <mxCell id="FJRzQ0SDMOUs9rcgQZn3-511" value="Command" style="text;html=1;align=center;verticalAlign=middle;resizable=0;points=[];autosize=1;strokeColor=none;fillColor=none;fontStyle=1;strokeWidth=1;fontSize=19;" vertex="1" parent="1">
          <mxGeometry x="1358" y="1281" width="110" height="40" as="geometry" />
        </mxCell>
        <mxCell id="FJRzQ0SDMOUs9rcgQZn3-512" value="Min ID" style="text;html=1;align=center;verticalAlign=middle;resizable=0;points=[];autosize=1;strokeColor=none;fillColor=none;" vertex="1" parent="1">
          <mxGeometry x="1243" y="1221" width="60" height="30" as="geometry" />
        </mxCell>
        <mxCell id="FJRzQ0SDMOUs9rcgQZn3-513" value="Payload" style="text;html=1;align=center;verticalAlign=middle;resizable=0;points=[];autosize=1;strokeColor=none;fillColor=none;" vertex="1" parent="1">
          <mxGeometry x="1478" y="1221" width="70" height="30" as="geometry" />
        </mxCell>
        <mxCell id="FJRzQ0SDMOUs9rcgQZn3-514" value="" style="rounded=0;whiteSpace=wrap;html=1;fillColor=none;" vertex="1" parent="1">
          <mxGeometry x="1483" y="1281" width="100" height="40" as="geometry" />
        </mxCell>
        <mxCell id="FJRzQ0SDMOUs9rcgQZn3-515" value="..." style="rounded=0;whiteSpace=wrap;html=1;fillColor=none;" vertex="1" parent="1">
          <mxGeometry x="1583" y="1281" width="100" height="40" as="geometry" />
        </mxCell>
        <mxCell id="FJRzQ0SDMOUs9rcgQZn3-516" value="Content" style="text;html=1;align=center;verticalAlign=middle;resizable=0;points=[];autosize=1;strokeColor=none;fillColor=none;fontStyle=1;strokeWidth=1;fontSize=19;" vertex="1" parent="1">
          <mxGeometry x="1488" y="1281" width="90" height="40" as="geometry" />
        </mxCell>
        <mxCell id="FJRzQ0SDMOUs9rcgQZn3-517" value="&lt;i&gt;Big-endian&lt;/i&gt;" style="text;html=1;align=center;verticalAlign=middle;resizable=0;points=[];autosize=1;strokeColor=none;fillColor=none;fontColor=#FF0000;" vertex="1" parent="1">
          <mxGeometry x="1473" y="1261" width="80" height="30" as="geometry" />
        </mxCell>
        <mxCell id="FJRzQ0SDMOUs9rcgQZn3-518" value="Min ID: 0x12" style="rounded=0;whiteSpace=wrap;html=1;fillColor=#f8cecc;strokeColor=#b85450;" vertex="1" parent="1">
          <mxGeometry x="1725" y="1261" width="140" height="40" as="geometry" />
        </mxCell>
        <mxCell id="FJRzQ0SDMOUs9rcgQZn3-519" value="Min ID: 0x3F" style="rounded=0;whiteSpace=wrap;html=1;fillColor=#f5f5f5;fontColor=#333333;strokeColor=#666666;" vertex="1" parent="1">
          <mxGeometry x="1725" y="1301" width="140" height="40" as="geometry" />
        </mxCell>
        <mxCell id="FJRzQ0SDMOUs9rcgQZn3-520" value="&lt;b&gt;DONE&lt;/b&gt;" style="text;html=1;align=center;verticalAlign=middle;resizable=0;points=[];autosize=1;strokeColor=none;fillColor=none;" vertex="1" parent="1">
          <mxGeometry x="1713" y="1321" width="60" height="30" as="geometry" />
        </mxCell>
        <mxCell id="FJRzQ0SDMOUs9rcgQZn3-521" value="&lt;b&gt;COLLECT_DATA_CMD&lt;/b&gt;" style="text;html=1;align=center;verticalAlign=middle;resizable=0;points=[];autosize=1;strokeColor=none;fillColor=none;" vertex="1" parent="1">
          <mxGeometry x="1714" y="1281" width="150" height="30" as="geometry" />
        </mxCell>
        <mxCell id="FJRzQ0SDMOUs9rcgQZn3-522" value="Min ID: 0x13" style="rounded=0;whiteSpace=wrap;html=1;fillColor=#f8cecc;strokeColor=#b85450;" vertex="1" parent="1">
          <mxGeometry x="1865" y="1261" width="140" height="40" as="geometry" />
        </mxCell>
        <mxCell id="FJRzQ0SDMOUs9rcgQZn3-523" value="Min ID: 0x14" style="rounded=0;whiteSpace=wrap;html=1;fillColor=#f5f5f5;fontColor=#333333;strokeColor=#666666;" vertex="1" parent="1">
          <mxGeometry x="1865" y="1301" width="140" height="40" as="geometry" />
        </mxCell>
        <mxCell id="FJRzQ0SDMOUs9rcgQZn3-524" value="&lt;b&gt;PRE_CHUNK_ACK&lt;/b&gt;" style="text;html=1;align=center;verticalAlign=middle;resizable=0;points=[];autosize=1;strokeColor=none;fillColor=none;" vertex="1" parent="1">
          <mxGeometry x="1854" y="1320" width="130" height="30" as="geometry" />
        </mxCell>
        <mxCell id="FJRzQ0SDMOUs9rcgQZn3-525" value="&lt;b&gt;PRE_CHUNK_CMD&lt;/b&gt;" style="text;html=1;align=center;verticalAlign=middle;resizable=0;points=[];autosize=1;strokeColor=none;fillColor=none;" vertex="1" parent="1">
          <mxGeometry x="1855" y="1281" width="130" height="30" as="geometry" />
        </mxCell>
        <mxCell id="FJRzQ0SDMOUs9rcgQZn3-526" value="Min ID: 0x15" style="rounded=0;whiteSpace=wrap;html=1;fillColor=#f8cecc;strokeColor=#b85450;" vertex="1" parent="1">
          <mxGeometry x="2005" y="1261" width="140" height="40" as="geometry" />
        </mxCell>
        <mxCell id="FJRzQ0SDMOUs9rcgQZn3-527" value="Min ID: 0x16" style="rounded=0;whiteSpace=wrap;html=1;fillColor=#f5f5f5;fontColor=#333333;strokeColor=#666666;" vertex="1" parent="1">
          <mxGeometry x="2005" y="1301" width="140" height="40" as="geometry" />
        </mxCell>
        <mxCell id="FJRzQ0SDMOUs9rcgQZn3-528" value="&lt;b&gt;PRE_DATA_ACK&lt;/b&gt;" style="text;html=1;align=center;verticalAlign=middle;resizable=0;points=[];autosize=1;strokeColor=none;fillColor=none;" vertex="1" parent="1">
          <mxGeometry x="1993" y="1320" width="120" height="30" as="geometry" />
        </mxCell>
        <mxCell id="FJRzQ0SDMOUs9rcgQZn3-529" value="&lt;b&gt;PRE_DATA_CMD&lt;/b&gt;" style="text;html=1;align=center;verticalAlign=middle;resizable=0;points=[];autosize=1;strokeColor=none;fillColor=none;" vertex="1" parent="1">
          <mxGeometry x="1994" y="1281" width="120" height="30" as="geometry" />
        </mxCell>
        <mxCell id="FJRzQ0SDMOUs9rcgQZn3-530" value="Min ID: 0x17" style="rounded=0;whiteSpace=wrap;html=1;fillColor=#f8cecc;strokeColor=#b85450;" vertex="1" parent="1">
          <mxGeometry x="2145" y="1261" width="165" height="40" as="geometry" />
        </mxCell>
        <mxCell id="FJRzQ0SDMOUs9rcgQZn3-531" value="Min ID: 0x3F" style="rounded=0;whiteSpace=wrap;html=1;fillColor=#f5f5f5;fontColor=#333333;strokeColor=#666666;" vertex="1" parent="1">
          <mxGeometry x="2145" y="1301" width="165" height="40" as="geometry" />
        </mxCell>
        <mxCell id="FJRzQ0SDMOUs9rcgQZn3-532" value="&lt;b&gt;DONE&lt;/b&gt;" style="text;html=1;align=center;verticalAlign=middle;resizable=0;points=[];autosize=1;strokeColor=none;fillColor=none;" vertex="1" parent="1">
          <mxGeometry x="2133" y="1321" width="60" height="30" as="geometry" />
        </mxCell>
        <mxCell id="FJRzQ0SDMOUs9rcgQZn3-533" value="&lt;b&gt;SAMPLERATE_SET_CMD&lt;/b&gt;" style="text;html=1;align=center;verticalAlign=middle;resizable=0;points=[];autosize=1;strokeColor=none;fillColor=none;" vertex="1" parent="1">
          <mxGeometry x="2133" y="1281" width="170" height="30" as="geometry" />
        </mxCell>
        <mxCell id="FJRzQ0SDMOUs9rcgQZn3-534" value="" style="html=1;points=[[0,0,0,0,5],[0,1,0,0,-5],[1,0,0,0,5],[1,1,0,0,-5]];perimeter=orthogonalPerimeter;outlineConnect=0;targetShapes=umlLifeline;portConstraint=eastwest;newEdgeStyle={&quot;curved&quot;:0,&quot;rounded&quot;:0};" vertex="1" parent="1">
          <mxGeometry x="2370" y="50" width="10" height="46" as="geometry" />
        </mxCell>
        <mxCell id="FJRzQ0SDMOUs9rcgQZn3-535" value="Call" style="html=1;verticalAlign=bottom;endArrow=block;curved=0;rounded=0;" edge="1" parent="1" target="FJRzQ0SDMOUs9rcgQZn3-534">
          <mxGeometry relative="1" as="geometry">
            <mxPoint x="2285" y="55" as="sourcePoint" />
          </mxGeometry>
        </mxCell>
        <mxCell id="FJRzQ0SDMOUs9rcgQZn3-536" value="return" style="html=1;verticalAlign=bottom;endArrow=open;dashed=1;endSize=8;curved=0;rounded=0;exitX=1;exitY=1;exitDx=0;exitDy=-5;entryX=1;entryY=0.5;entryDx=0;entryDy=0;" edge="1" parent="1" source="FJRzQ0SDMOUs9rcgQZn3-534" target="FJRzQ0SDMOUs9rcgQZn3-386">
          <mxGeometry relative="1" as="geometry">
            <mxPoint x="2285" y="125" as="targetPoint" />
          </mxGeometry>
        </mxCell>
        <mxCell id="FJRzQ0SDMOUs9rcgQZn3-540" value="" style="html=1;points=[[0,0,0,0,5],[0,1,0,0,-5],[1,0,0,0,5],[1,1,0,0,-5]];perimeter=orthogonalPerimeter;outlineConnect=0;targetShapes=umlLifeline;portConstraint=eastwest;newEdgeStyle={&quot;curved&quot;:0,&quot;rounded&quot;:0};" vertex="1" parent="1">
          <mxGeometry x="2722" y="1281" width="10" height="46" as="geometry" />
        </mxCell>
        <mxCell id="FJRzQ0SDMOUs9rcgQZn3-541" value="Call" style="html=1;verticalAlign=bottom;endArrow=block;curved=0;rounded=0;" edge="1" parent="1" target="FJRzQ0SDMOUs9rcgQZn3-540">
          <mxGeometry relative="1" as="geometry">
            <mxPoint x="2637" y="1286" as="sourcePoint" />
          </mxGeometry>
        </mxCell>
        <mxCell id="FJRzQ0SDMOUs9rcgQZn3-542" value="return" style="html=1;verticalAlign=bottom;endArrow=open;dashed=1;endSize=8;curved=0;rounded=0;exitX=1;exitY=1;exitDx=0;exitDy=-5;entryX=1;entryY=0.5;entryDx=0;entryDy=0;" edge="1" parent="1" source="FJRzQ0SDMOUs9rcgQZn3-540">
          <mxGeometry relative="1" as="geometry">
            <mxPoint x="2637" y="1321" as="targetPoint" />
          </mxGeometry>
        </mxCell>
        <mxCell id="FJRzQ0SDMOUs9rcgQZn3-547" value="Min ID: 0x18" style="rounded=0;whiteSpace=wrap;html=1;fillColor=#f8cecc;strokeColor=#b85450;" vertex="1" parent="1">
          <mxGeometry x="2302" y="1261" width="165" height="40" as="geometry" />
        </mxCell>
        <mxCell id="FJRzQ0SDMOUs9rcgQZn3-548" value="Min ID: 0x19" style="rounded=0;whiteSpace=wrap;html=1;fillColor=#f5f5f5;fontColor=#333333;strokeColor=#666666;" vertex="1" parent="1">
          <mxGeometry x="2302" y="1301" width="165" height="40" as="geometry" />
        </mxCell>
        <mxCell id="FJRzQ0SDMOUs9rcgQZn3-549" value="&lt;b&gt;SAMPLE_RATE_GET_ACK&lt;/b&gt;" style="text;html=1;align=center;verticalAlign=middle;resizable=0;points=[];autosize=1;strokeColor=none;fillColor=none;" vertex="1" parent="1">
          <mxGeometry x="2288" y="1320" width="180" height="30" as="geometry" />
        </mxCell>
        <mxCell id="FJRzQ0SDMOUs9rcgQZn3-550" value="&lt;b&gt;SAMPLE_RATE_GET_CMD&lt;/b&gt;" style="text;html=1;align=center;verticalAlign=middle;resizable=0;points=[];autosize=1;strokeColor=none;fillColor=none;" vertex="1" parent="1">
          <mxGeometry x="2289" y="1281" width="180" height="30" as="geometry" />
        </mxCell>
        <mxCell id="FJRzQ0SDMOUs9rcgQZn3-555" value="Min ID: 0x1A" style="rounded=0;whiteSpace=wrap;html=1;fillColor=#f8cecc;strokeColor=#b85450;" vertex="1" parent="1">
          <mxGeometry x="2468" y="1261" width="169" height="40" as="geometry" />
        </mxCell>
        <mxCell id="FJRzQ0SDMOUs9rcgQZn3-556" value="Min ID: 0x1B" style="rounded=0;whiteSpace=wrap;html=1;fillColor=#f5f5f5;fontColor=#333333;strokeColor=#666666;" vertex="1" parent="1">
          <mxGeometry x="2468" y="1301" width="169" height="40" as="geometry" />
        </mxCell>
        <mxCell id="FJRzQ0SDMOUs9rcgQZn3-557" value="&lt;b&gt;COLLECT_PACKAGE_ACK&lt;/b&gt;" style="text;html=1;align=center;verticalAlign=middle;resizable=0;points=[];autosize=1;strokeColor=none;fillColor=none;" vertex="1" parent="1">
          <mxGeometry x="2454" y="1320" width="180" height="30" as="geometry" />
        </mxCell>
        <mxCell id="FJRzQ0SDMOUs9rcgQZn3-558" value="&lt;b&gt;COLLECT_PACKAGE_CMD&lt;/b&gt;" style="text;html=1;align=center;verticalAlign=middle;resizable=0;points=[];autosize=1;strokeColor=none;fillColor=none;" vertex="1" parent="1">
          <mxGeometry x="2455" y="1281" width="180" height="30" as="geometry" />
        </mxCell>
        <mxCell id="FJRzQ0SDMOUs9rcgQZn3-570" value="&lt;font style=&quot;font-size: 50px;&quot;&gt;&lt;b&gt;&lt;i&gt;tbd&lt;/i&gt;&lt;/b&gt;&lt;/font&gt;" style="text;html=1;align=center;verticalAlign=middle;resizable=0;points=[];autosize=1;strokeColor=none;fillColor=none;" vertex="1" parent="1">
          <mxGeometry x="1848.5" y="1453" width="100" height="70" as="geometry" />
        </mxCell>
      </root>
    </mxGraphModel>
  </diagram>
  <diagram name="SPI-Flow" id="CZWRHBFwUL6is0XoEeS1">
    <mxGraphModel dx="1725" dy="524" grid="1" gridSize="10" guides="1" tooltips="1" connect="1" arrows="1" fold="1" page="1" pageScale="1" pageWidth="850" pageHeight="1100" math="0" shadow="0">
      <root>
        <mxCell id="0" />
        <mxCell id="1" parent="0" />
        <mxCell id="lQY0D4fQhdhs5MUqG8Rd-4" value="" style="edgeStyle=orthogonalEdgeStyle;rounded=0;orthogonalLoop=1;jettySize=auto;html=1;" parent="1" source="lQY0D4fQhdhs5MUqG8Rd-1" target="lQY0D4fQhdhs5MUqG8Rd-3" edge="1">
          <mxGeometry relative="1" as="geometry" />
        </mxCell>
        <mxCell id="lQY0D4fQhdhs5MUqG8Rd-1" value="Collect_data" style="html=1;whiteSpace=wrap;" parent="1" vertex="1">
          <mxGeometry x="250" y="160" width="110" height="50" as="geometry" />
        </mxCell>
        <mxCell id="lQY0D4fQhdhs5MUqG8Rd-2" value="all sample will be storage in RAM" style="text;html=1;align=center;verticalAlign=middle;resizable=0;points=[];autosize=1;strokeColor=none;fillColor=none;" parent="1" vertex="1">
          <mxGeometry x="370" y="170" width="200" height="30" as="geometry" />
        </mxCell>
        <mxCell id="lQY0D4fQhdhs5MUqG8Rd-11" value="" style="edgeStyle=orthogonalEdgeStyle;rounded=0;orthogonalLoop=1;jettySize=auto;html=1;" parent="1" source="lQY0D4fQhdhs5MUqG8Rd-3" target="lQY0D4fQhdhs5MUqG8Rd-10" edge="1">
          <mxGeometry relative="1" as="geometry" />
        </mxCell>
        <mxCell id="lQY0D4fQhdhs5MUqG8Rd-3" value="Pre_data" style="html=1;whiteSpace=wrap;" parent="1" vertex="1">
          <mxGeometry x="250" y="250" width="110" height="50" as="geometry" />
        </mxCell>
        <mxCell id="lQY0D4fQhdhs5MUqG8Rd-5" value="Collect_data(sample)" style="text;html=1;align=center;verticalAlign=middle;resizable=0;points=[];autosize=1;strokeColor=none;fillColor=none;" parent="1" vertex="1">
          <mxGeometry x="610" y="170" width="140" height="30" as="geometry" />
        </mxCell>
        <mxCell id="lQY0D4fQhdhs5MUqG8Rd-6" value="from chunk size before&lt;br&gt;calculate&lt;div&gt;Number chunks &amp;amp; CRC each&lt;/div&gt;" style="text;html=1;align=center;verticalAlign=middle;resizable=0;points=[];autosize=1;strokeColor=none;fillColor=none;" parent="1" vertex="1">
          <mxGeometry x="380" y="245" width="180" height="60" as="geometry" />
        </mxCell>
        <mxCell id="lQY0D4fQhdhs5MUqG8Rd-7" value="Pre_data(Chunksize)" style="text;html=1;align=center;verticalAlign=middle;resizable=0;points=[];autosize=1;strokeColor=none;fillColor=none;" parent="1" vertex="1">
          <mxGeometry x="610" y="260" width="140" height="30" as="geometry" />
        </mxCell>
        <mxCell id="lQY0D4fQhdhs5MUqG8Rd-8" value="* OK&lt;div&gt;* Fail&lt;/div&gt;" style="text;html=1;align=left;verticalAlign=middle;resizable=0;points=[];autosize=1;strokeColor=none;fillColor=none;" parent="1" vertex="1">
          <mxGeometry x="830" y="165" width="50" height="40" as="geometry" />
        </mxCell>
        <mxCell id="lQY0D4fQhdhs5MUqG8Rd-9" value="* Num chunk: x -&amp;gt; CRC: 0xHH&lt;div&gt;* FAIL&lt;/div&gt;" style="text;html=1;align=left;verticalAlign=middle;resizable=0;points=[];autosize=1;strokeColor=none;fillColor=none;" parent="1" vertex="1">
          <mxGeometry x="830" y="255" width="190" height="40" as="geometry" />
        </mxCell>
        <mxCell id="lQY0D4fQhdhs5MUqG8Rd-10" value="Pre_chunk" style="html=1;whiteSpace=wrap;" parent="1" vertex="1">
          <mxGeometry x="250" y="340" width="110" height="50" as="geometry" />
        </mxCell>
        <mxCell id="lQY0D4fQhdhs5MUqG8Rd-12" value="Clear SPI_RAM&lt;br&gt;Charge {Chunksize} data to spi_ram" style="text;html=1;align=center;verticalAlign=middle;resizable=0;points=[];autosize=1;strokeColor=none;fillColor=none;" parent="1" vertex="1">
          <mxGeometry x="360" y="345" width="220" height="40" as="geometry" />
        </mxCell>
        <mxCell id="lQY0D4fQhdhs5MUqG8Rd-13" value="Pre_chunk(No.Chunk)" style="text;html=1;align=center;verticalAlign=middle;resizable=0;points=[];autosize=1;strokeColor=none;fillColor=none;" parent="1" vertex="1">
          <mxGeometry x="610" y="350" width="140" height="30" as="geometry" />
        </mxCell>
        <mxCell id="lQY0D4fQhdhs5MUqG8Rd-14" value="* This.NoChunk &amp;amp; This.CRC&lt;div&gt;* FAIL&lt;/div&gt;" style="text;html=1;align=left;verticalAlign=middle;resizable=0;points=[];autosize=1;strokeColor=none;fillColor=none;" parent="1" vertex="1">
          <mxGeometry x="830" y="345" width="170" height="40" as="geometry" />
        </mxCell>
        <mxCell id="lQY0D4fQhdhs5MUqG8Rd-15" value="" style="edgeStyle=entityRelationEdgeStyle;fontSize=12;html=1;endArrow=doubleBlock;endFill=0;rounded=0;" parent="1" edge="1">
          <mxGeometry width="100" height="100" relative="1" as="geometry">
            <mxPoint x="330" y="390" as="sourcePoint" />
            <mxPoint x="400" y="440" as="targetPoint" />
          </mxGeometry>
        </mxCell>
        <mxCell id="lQY0D4fQhdhs5MUqG8Rd-17" value="Also clear setting of SPI Slave to index 0" style="text;html=1;align=center;verticalAlign=middle;resizable=0;points=[];autosize=1;strokeColor=none;fillColor=none;" parent="1" vertex="1">
          <mxGeometry x="400" y="428" width="240" height="30" as="geometry" />
        </mxCell>
        <mxCell id="lQY0D4fQhdhs5MUqG8Rd-18" value="Collect_package" style="html=1;whiteSpace=wrap;" parent="1" vertex="1">
          <mxGeometry x="250" y="620" width="110" height="50" as="geometry" />
        </mxCell>
        <mxCell id="lQY0D4fQhdhs5MUqG8Rd-19" value="Streaming: Call this for one touch collect, meanwhile we could use this method to collect large data&amp;nbsp;" style="text;html=1;align=left;verticalAlign=middle;resizable=0;points=[];autosize=1;strokeColor=#d79b00;fillColor=none;" parent="1" vertex="1">
          <mxGeometry x="250" y="520" width="550" height="30" as="geometry" />
        </mxCell>
        <mxCell id="lQY0D4fQhdhs5MUqG8Rd-20" value="Default:&amp;nbsp;&lt;div&gt;1 Package &amp;lt;-&amp;gt; 5K sample &amp;lt;-&amp;gt; 10KB&lt;div&gt;This could set by some cmd tbd&lt;/div&gt;&lt;/div&gt;&lt;div&gt;all will storage into RAM&lt;br&gt;(CRC Applied)&lt;/div&gt;" style="text;html=1;align=center;verticalAlign=middle;resizable=0;points=[];autosize=1;strokeColor=none;fillColor=none;" parent="1" vertex="1">
          <mxGeometry x="360" y="610" width="220" height="90" as="geometry" />
        </mxCell>
        <mxCell id="lQY0D4fQhdhs5MUqG8Rd-21" value="Collect_package()" style="text;html=1;align=center;verticalAlign=middle;resizable=0;points=[];autosize=1;strokeColor=none;fillColor=none;" parent="1" vertex="1">
          <mxGeometry x="620" y="620" width="120" height="30" as="geometry" />
        </mxCell>
        <mxCell id="lQY0D4fQhdhs5MUqG8Rd-22" value="* This.CRC&lt;div&gt;* FAIL&lt;/div&gt;" style="text;html=1;align=left;verticalAlign=middle;resizable=0;points=[];autosize=1;strokeColor=none;fillColor=none;" parent="1" vertex="1">
          <mxGeometry x="830" y="625" width="80" height="40" as="geometry" />
        </mxCell>
        <mxCell id="lQY0D4fQhdhs5MUqG8Rd-23" value="" style="edgeStyle=entityRelationEdgeStyle;fontSize=12;html=1;endArrow=doubleBlock;endFill=0;rounded=0;" parent="1" edge="1">
          <mxGeometry width="100" height="100" relative="1" as="geometry">
            <mxPoint x="330" y="670" as="sourcePoint" />
            <mxPoint x="400" y="720" as="targetPoint" />
          </mxGeometry>
        </mxCell>
        <mxCell id="lQY0D4fQhdhs5MUqG8Rd-24" value="Clear SPI_RAM, Charge direct into&lt;br&gt;Also clear setting of SPI Slave to index 0" style="text;html=1;align=center;verticalAlign=middle;resizable=0;points=[];autosize=1;strokeColor=none;fillColor=none;" parent="1" vertex="1">
          <mxGeometry x="400" y="703" width="240" height="40" as="geometry" />
        </mxCell>
        <mxCell id="lQY0D4fQhdhs5MUqG8Rd-29" value="" style="html=1;points=[[0,0,0,0,5],[0,1,0,0,-5],[1,0,0,0,5],[1,1,0,0,-5]];perimeter=orthogonalPerimeter;outlineConnect=0;targetShapes=umlLifeline;portConstraint=eastwest;newEdgeStyle={&quot;curved&quot;:0,&quot;rounded&quot;:0};" parent="1" vertex="1">
          <mxGeometry x="287.5" y="690" width="10" height="40" as="geometry" />
        </mxCell>
        <mxCell id="lQY0D4fQhdhs5MUqG8Rd-30" value="Wait for&lt;br&gt;Master read" style="html=1;align=left;spacingLeft=2;endArrow=block;rounded=0;edgeStyle=orthogonalEdgeStyle;curved=0;rounded=0;" parent="1" target="lQY0D4fQhdhs5MUqG8Rd-29" edge="1">
          <mxGeometry x="1" y="57" relative="1" as="geometry">
            <mxPoint x="292.5" y="670" as="sourcePoint" />
            <Array as="points">
              <mxPoint x="322.5" y="700" />
            </Array>
            <mxPoint x="-27" y="-7" as="offset" />
          </mxGeometry>
        </mxCell>
        <mxCell id="lQY0D4fQhdhs5MUqG8Rd-31" value="So we could use this method, collect as many as number data we want" style="text;html=1;align=center;verticalAlign=middle;resizable=0;points=[];autosize=1;strokeColor=none;fillColor=none;" parent="1" vertex="1">
          <mxGeometry x="400" y="743" width="400" height="30" as="geometry" />
        </mxCell>
        <mxCell id="lQY0D4fQhdhs5MUqG8Rd-33" style="edgeStyle=orthogonalEdgeStyle;rounded=0;orthogonalLoop=1;jettySize=auto;html=1;exitX=0;exitY=0;exitDx=15;exitDy=0;exitPerimeter=0;entryX=0.5;entryY=0;entryDx=0;entryDy=0;" parent="1" source="lQY0D4fQhdhs5MUqG8Rd-32" target="lQY0D4fQhdhs5MUqG8Rd-1" edge="1">
          <mxGeometry relative="1" as="geometry">
            <mxPoint x="210" y="50" as="targetPoint" />
            <Array as="points">
              <mxPoint x="30" y="425" />
              <mxPoint x="30" y="50" />
              <mxPoint x="305" y="50" />
            </Array>
          </mxGeometry>
        </mxCell>
        <mxCell id="lQY0D4fQhdhs5MUqG8Rd-34" style="edgeStyle=orthogonalEdgeStyle;rounded=0;orthogonalLoop=1;jettySize=auto;html=1;entryX=0;entryY=0.5;entryDx=0;entryDy=0;" parent="1" source="lQY0D4fQhdhs5MUqG8Rd-32" target="lQY0D4fQhdhs5MUqG8Rd-18" edge="1">
          <mxGeometry relative="1" as="geometry">
            <Array as="points">
              <mxPoint x="30" y="645" />
            </Array>
          </mxGeometry>
        </mxCell>
        <mxCell id="lQY0D4fQhdhs5MUqG8Rd-32" value="Sample rate Set" style="verticalAlign=top;align=center;spacingTop=8;spacingLeft=2;spacingRight=12;shape=cube;size=10;direction=south;fontStyle=4;html=1;whiteSpace=wrap;" parent="1" vertex="1">
          <mxGeometry x="-60" y="410" width="180" height="40" as="geometry" />
        </mxCell>
      </root>
    </mxGraphModel>
  </diagram>
</mxfile>
